SplineFontDB: 3.0
FontName: Oswald
FullName: Oswald 
FamilyName: Oswald
Weight: Book
Copyright: Copyright (c) 2011 by vernon adams. All rights reserved.
Version: 1.000
ItalicAngle: 0
UnderlinePosition: -103
UnderlineWidth: 102
Ascent: 1638
Descent: 410
sfntRevision: 0x00010000
LayerCount: 2
Layer: 0 1 "Back"  1
Layer: 1 1 "Fore"  0
NeedsXUIDChange: 1
XUID: [1021 14 500265001 6765310]
FSType: 0
OS2Version: 2
OS2_WeightWidthSlopeOnly: 0
OS2_UseTypoMetrics: 1
CreationTime: 1299844920
ModificationTime: 1316715487
PfmFamily: 17
TTFWeight: 400
TTFWidth: 5
LineGap: 0
VLineGap: 0
Panose: 2 0 5 6 0 0 0 2 0 4
OS2TypoAscent: 806
OS2TypoAOffset: 1
OS2TypoDescent: -103
OS2TypoDOffset: 1
OS2TypoLinegap: 0
OS2WinAscent: 0
OS2WinAOffset: 1
OS2WinDescent: -10
OS2WinDOffset: 1
HheadAscent: 0
HheadAOffset: 1
HheadDescent: 10
HheadDOffset: 1
OS2SubXSize: 1434
OS2SubYSize: 1331
OS2SubXOff: 0
OS2SubYOff: 287
OS2SupXSize: 1434
OS2SupYSize: 1331
OS2SupXOff: 0
OS2SupYOff: 977
OS2StrikeYSize: 102
OS2StrikeYPos: 512
OS2Vendor: 'newt'
OS2CodePages: 00000001.00000000
OS2UnicodeRanges: 8000002f.4000204b.00000000.00000000
Lookup: 258 0 0 "'kern' Horizontal Kerning in Latin lookup 0"  {"'kern' Horizontal Kerning in Latin lookup 0 subtable"  } ['kern' ('latn' <'dflt' > ) ]
MarkAttachClasses: 1
DEI: 91125
KernClass2: 8+ 6 "'kern' Horizontal Kerning in Latin lookup 0 subtable" 
 7 T V W Y
 3 E F
 1 A
 1 K
 1 P
 1 L
 3 v y
 11 a b c e o p
 11 a c e g o s
 1 A
 1 u
 7 T V W Y
 3 v y
 0 {} -128 {} -128 {} -64 {} 0 {} 0 {} 0 {} -64 {} 0 {} 0 {} 0 {} 0 {} 0 {} -32 {} 0 {} 0 {} -128 {} 0 {} 0 {} -64 {} 0 {} 0 {} 0 {} 0 {} 0 {} -64 {} 0 {} 0 {} 0 {} 0 {} 0 {} -32 {} 0 {} 0 {} 0 {} 0 {} 0 {} -64 {} 0 {} 0 {} 0 {} 0 {} 0 {} 0 {} 0 {} 0 {} 0 {} -64 {}
TtTable: prep
PUSHW_1
 511
SCANCTRL
PUSHB_1
 1
SCANTYPE
SVTCA[y-axis]
MPPEM
PUSHB_1
 8
LT
IF
PUSHB_2
 1
 1
INSTCTRL
EIF
PUSHB_2
 70
 6
CALL
IF
POP
PUSHB_1
 16
EIF
MPPEM
PUSHB_1
 20
GT
IF
POP
PUSHB_1
 128
EIF
SCVTCI
PUSHB_1
 6
CALL
NOT
IF
SVTCA[y-axis]
PUSHB_1
 4

StartChar: .notdef
Encoding: 65536 -1 0
Width: 791
Flags: W
LayerCount: 2
Fore
SplineSet
126 0 m 1,0,-1
 126 1365 l 1,1,-1
 670 1365 l 1,2,-1
 670 0 l 1,3,-1
 126 0 l 1,0,-1
194 68 m 1,4,-1
 602 68 l 1,5,-1
 602 1297 l 1,6,-1
 194 1297 l 1,7,-1
 194 68 l 1,4,-1
EndSplineSet
EndChar

StartChar: exclam
Encoding: 33 33 4
Width: 461
GlyphClass: 2
Flags: W
LayerCount: 2
Fore
SplineSet
106 1792 m 1,0,-1
 362 1792 l 1,1,-1
 298 384 l 1,2,-1
 170 384 l 1,3,-1
 106 1792 l 1,0,-1
106 256 m 1,4,-1
 362 256 l 1,5,-1
 362 0 l 1,6,-1
 106 0 l 1,7,-1
 106 256 l 1,4,-1
EndSplineSet
EndChar

StartChar: quotedbl
Encoding: 34 34 5
Width: 699
GlyphClass: 2
Flags: W
LayerCount: 2
Fore
SplineSet
63 1792 m 1,0,-1
 319 1792 l 1,1,-1
 255 1408 l 1,2,-1
 127 1408 l 1,3,-1
 63 1792 l 1,0,-1
386 1792 m 1,4,-1
 642 1792 l 1,5,-1
 578 1408 l 1,6,-1
 450 1408 l 1,7,-1
 386 1792 l 1,4,-1
EndSplineSet
EndChar

StartChar: numbersign
Encoding: 35 35 6
Width: 1105
GlyphClass: 2
Flags: W
LayerCount: 2
Fore
SplineSet
1028 1024 m 1,0,-1
 917 1024 l 1,1,-1
 889 832 l 1,2,-1
 1028 832 l 1,3,-1
 1028 640 l 1,4,-1
 862 640 l 1,5,-1
 772 0 l 1,6,-1
 516 0 l 1,7,-1
 606 640 l 1,8,-1
 414 640 l 1,9,-1
 324 0 l 1,10,-1
 68 0 l 1,11,-1
 158 640 l 1,12,-1
 68 640 l 1,13,-1
 68 832 l 1,14,-1
 185 832 l 1,15,-1
 213 1024 l 1,16,-1
 68 1024 l 1,17,-1
 68 1216 l 1,18,-1
 240 1216 l 1,19,-1
 322 1792 l 1,20,-1
 578 1792 l 1,21,-1
 496 1216 l 1,22,-1
 688 1216 l 1,23,-1
 770 1792 l 1,24,-1
 1026 1792 l 1,25,-1
 944 1216 l 1,26,-1
 1028 1216 l 1,27,-1
 1028 1024 l 1,0,-1
441 832 m 1,28,-1
 634 832 l 1,29,-1
 661 1024 l 1,30,-1
 469 1024 l 1,31,-1
 441 832 l 1,28,-1
EndSplineSet
EndChar

StartChar: dollar
Encoding: 36 36 7
Width: 1072
GlyphClass: 2
Flags: W
LayerCount: 2
Fore
SplineSet
505 1920 m 1,0,-1
 633 1920 l 1,1,-1
 633 1799 l 1,2,3
 654 1795 654 1795 674 1790 c 0,4,5
 747 1770 747 1770 801 1737 c 128,-1,6
 855 1704 855 1704 892 1662 c 128,-1,7
 929 1620 929 1620 953 1577 c 0,8,9
 1009 1474 1009 1474 1017 1344 c 1,10,-1
 761 1280 l 1,11,12
 757 1370 757 1370 729 1440 c 0,13,14
 717 1470 717 1470 698.5 1498.5 c 128,-1,15
 680 1527 680 1527 653 1549 c 0,16,17
 643 1557 643 1557 633 1564 c 1,18,-1
 633 998 l 1,19,-1
 761 896 l 2,20,21
 822 847 822 847 869.5 788.5 c 128,-1,22
 917 730 917 730 950 666 c 128,-1,23
 983 602 983 602 1000 534.5 c 128,-1,24
 1017 467 1017 467 1017 401 c 0,25,26
 1017 318 1017 318 990 242.5 c 128,-1,27
 963 167 963 167 907.5 109 c 128,-1,28
 852 51 852 51 768 16 c 0,29,30
 708 -8 708 -8 633 -15 c 1,31,-1
 633 -128 l 1,32,-1
 505 -128 l 1,33,-1
 505 -15 l 1,34,35
 447 -10 447 -10 400 4 c 0,36,37
 327 27 327 27 273 64.5 c 128,-1,38
 219 102 219 102 182 149.5 c 128,-1,39
 145 197 145 197 121 247 c 0,40,41
 65 363 65 363 57 512 c 1,42,-1
 313 576 l 1,43,44
 317 468 317 468 345 384 c 0,45,46
 357 348 357 348 375.5 313.5 c 128,-1,47
 394 279 394 279 421 252 c 128,-1,48
 448 225 448 225 484 208 c 0,49,50
 494 204 494 204 505 200 c 1,51,-1
 505 755 l 1,52,-1
 249 960 l 2,53,54
 200 999 200 999 163.5 1048.5 c 128,-1,55
 127 1098 127 1098 103 1153 c 128,-1,56
 79 1208 79 1208 67.5 1265 c 128,-1,57
 56 1322 56 1322 56 1378 c 0,58,59
 56 1464 56 1464 85 1542.5 c 128,-1,60
 114 1621 114 1621 170.5 1680.5 c 128,-1,61
 227 1740 227 1740 311 1775 c 128,-1,62
 395 1810 395 1810 505 1810 c 1,63,-1
 505 1920 l 1,0,-1
418 1584 m 0,64,65
 382 1569 382 1569 358.5 1543 c 128,-1,66
 335 1517 335 1517 324 1482 c 128,-1,67
 313 1447 313 1447 313 1408 c 0,68,69
 313 1342 313 1342 344 1273 c 128,-1,70
 375 1204 375 1204 441 1152 c 2,71,-1
 505 1101 l 1,72,-1
 505 1600 l 1,73,74
 455 1600 455 1600 418 1584 c 0,64,65
761 384 m 0,75,76
 761 432 761 432 749 473.5 c 128,-1,77
 737 515 737 515 713 553.5 c 128,-1,78
 689 592 689 592 653 628 c 0,79,80
 643 638 643 638 633 648 c 1,81,-1
 633 198 l 1,82,83
 761 227 761 227 761 384 c 0,75,76
EndSplineSet
EndChar

StartChar: percent
Encoding: 37 37 8
Width: 1860
GlyphClass: 2
Flags: W
LayerCount: 2
Fore
SplineSet
20 1032 m 0,0,1
 20 1143 20 1143 40 1222 c 128,-1,2
 60 1301 60 1301 92 1355 c 128,-1,3
 124 1409 124 1409 164.5 1441 c 128,-1,4
 205 1473 205 1473 245.5 1489.5 c 128,-1,5
 286 1506 286 1506 323 1511 c 128,-1,6
 360 1516 360 1516 386 1516 c 256,7,8
 412 1516 412 1516 449 1511 c 128,-1,9
 486 1506 486 1506 527 1489.5 c 128,-1,10
 568 1473 568 1473 608.5 1441 c 128,-1,11
 649 1409 649 1409 681 1355 c 128,-1,12
 713 1301 713 1301 733 1222 c 128,-1,13
 753 1143 753 1143 753 1032 c 0,14,15
 753 899 753 899 722 806 c 128,-1,16
 691 713 691 713 639.5 654 c 128,-1,17
 588 595 588 595 522 568 c 128,-1,18
 456 541 456 541 386 541 c 256,19,20
 316 541 316 541 250 568 c 128,-1,21
 184 595 184 595 133 654 c 128,-1,22
 82 713 82 713 51 806 c 128,-1,23
 20 899 20 899 20 1032 c 0,0,1
253 1032 m 0,24,25
 253 1005 253 1005 255 973 c 128,-1,26
 257 941 257 941 262.5 908 c 128,-1,27
 268 875 268 875 277.5 844 c 128,-1,28
 287 813 287 813 302 788.5 c 128,-1,29
 317 764 317 764 337.5 749.5 c 128,-1,30
 358 735 358 735 386 735 c 0,31,32
 428 735 428 735 454.5 766 c 128,-1,33
 481 797 481 797 495.5 843 c 128,-1,34
 510 889 510 889 515 940 c 128,-1,35
 520 991 520 991 520 1032 c 0,36,37
 520 1072 520 1072 516 1122 c 128,-1,38
 512 1172 512 1172 498 1216.5 c 128,-1,39
 484 1261 484 1261 457.5 1291 c 128,-1,40
 431 1321 431 1321 386 1321 c 0,41,42
 342 1321 342 1321 315.5 1291 c 128,-1,43
 289 1261 289 1261 275 1216.5 c 128,-1,44
 261 1172 261 1172 257 1122 c 128,-1,45
 253 1072 253 1072 253 1032 c 0,24,25
1130 492 m 0,46,47
 1130 603 1130 603 1150 682 c 128,-1,48
 1170 761 1170 761 1202 814.5 c 128,-1,49
 1234 868 1234 868 1274.5 900 c 128,-1,50
 1315 932 1315 932 1355.5 948.5 c 128,-1,51
 1396 965 1396 965 1433 970 c 128,-1,52
 1470 975 1470 975 1496 975 c 256,53,54
 1522 975 1522 975 1559 970 c 128,-1,55
 1596 965 1596 965 1637 948.5 c 128,-1,56
 1678 932 1678 932 1718.5 900 c 128,-1,57
 1759 868 1759 868 1791 814.5 c 128,-1,58
 1823 761 1823 761 1843 682 c 128,-1,59
 1863 603 1863 603 1863 492 c 0,60,61
 1863 359 1863 359 1832 265.5 c 128,-1,62
 1801 172 1801 172 1749.5 113 c 128,-1,63
 1698 54 1698 54 1632 27 c 128,-1,64
 1566 0 1566 0 1496 0 c 256,65,66
 1426 0 1426 0 1360 27 c 128,-1,67
 1294 54 1294 54 1243 113 c 128,-1,68
 1192 172 1192 172 1161 265.5 c 128,-1,69
 1130 359 1130 359 1130 492 c 0,46,47
1363 492 m 0,70,71
 1363 452 1363 452 1368 400.5 c 128,-1,72
 1373 349 1373 349 1387.5 303.5 c 128,-1,73
 1402 258 1402 258 1428 226.5 c 128,-1,74
 1454 195 1454 195 1496 195 c 256,75,76
 1538 195 1538 195 1564.5 226 c 128,-1,77
 1591 257 1591 257 1605.5 302.5 c 128,-1,78
 1620 348 1620 348 1625 399.5 c 128,-1,79
 1630 451 1630 451 1630 492 c 0,80,81
 1630 532 1630 532 1626 582 c 128,-1,82
 1622 632 1622 632 1608 676 c 128,-1,83
 1594 720 1594 720 1567.5 750 c 128,-1,84
 1541 780 1541 780 1496 780 c 0,85,86
 1466 780 1466 780 1445 766 c 128,-1,87
 1424 752 1424 752 1409 729 c 128,-1,88
 1394 706 1394 706 1385 676 c 128,-1,89
 1376 646 1376 646 1371 614 c 128,-1,90
 1366 582 1366 582 1364.5 550.5 c 128,-1,91
 1363 519 1363 519 1363 492 c 0,70,71
976 1518 m 1,92,-1
 1195 1518 l 1,93,-1
 913 0 l 1,94,-1
 693 0 l 1,95,-1
 976 1518 l 1,92,-1
EndSplineSet
EndChar

StartChar: ampersand
Encoding: 38 38 9
Width: 1164
GlyphClass: 2
Flags: W
LayerCount: 2
Fore
SplineSet
435 -18 m 0,0,1
 343 -18 343 -18 271.5 13.5 c 128,-1,2
 200 45 200 45 151 99 c 128,-1,3
 102 153 102 153 76.5 226.5 c 128,-1,4
 51 300 51 300 51 384 c 0,5,6
 51 446 51 446 66 512 c 128,-1,7
 81 578 81 578 112.5 644 c 128,-1,8
 144 710 144 710 192.5 774 c 128,-1,9
 241 838 241 838 307 896 c 1,10,11
 277 957 277 957 243 1024 c 128,-1,12
 209 1091 209 1091 180.5 1157.5 c 128,-1,13
 152 1224 152 1224 133.5 1288 c 128,-1,14
 115 1352 115 1352 115 1408 c 0,15,16
 115 1491 115 1491 141 1564 c 128,-1,17
 167 1637 167 1637 216 1692 c 128,-1,18
 265 1747 265 1747 336.5 1778.5 c 128,-1,19
 408 1810 408 1810 499 1810 c 0,20,21
 578 1810 578 1810 648 1785.5 c 128,-1,22
 718 1761 718 1761 770.5 1717 c 128,-1,23
 823 1673 823 1673 853 1610.5 c 128,-1,24
 883 1548 883 1548 883 1472 c 0,25,26
 883 1402 883 1402 852.5 1323 c 128,-1,27
 822 1244 822 1244 775.5 1166.5 c 128,-1,28
 729 1089 729 1089 672 1018.5 c 128,-1,29
 615 948 615 948 563 896 c 1,30,-1
 819 512 l 1,31,32
 839 557 839 557 854 635.5 c 128,-1,33
 869 714 869 714 883 832 c 1,34,-1
 1139 832 l 1,35,36
 1139 783 1139 783 1124.5 717 c 128,-1,37
 1110 651 1110 651 1086.5 583.5 c 128,-1,38
 1063 516 1063 516 1035 453.5 c 128,-1,39
 1007 391 1007 391 980 350 c 1,40,41
 990 337 990 337 1007 320.5 c 128,-1,42
 1024 304 1024 304 1045.5 290 c 128,-1,43
 1067 276 1067 276 1091 266 c 128,-1,44
 1115 256 1115 256 1139 256 c 1,45,-1
 1139 -18 l 1,46,47
 1091 -18 1091 -18 1048.5 -3.5 c 128,-1,48
 1006 11 1006 11 967 35 c 128,-1,49
 928 59 928 59 891.5 90.5 c 128,-1,50
 855 122 855 122 819 157 c 1,51,52
 786 115 786 115 743 82 c 128,-1,53
 700 49 700 49 650.5 27 c 128,-1,54
 601 5 601 5 546 -6.5 c 128,-1,55
 491 -18 491 -18 435 -18 c 0,0,1
468 1024 m 1,56,57
 484 1044 484 1044 502.5 1076 c 128,-1,58
 521 1108 521 1108 538.5 1147.5 c 128,-1,59
 556 1187 556 1187 572 1231 c 128,-1,60
 588 1275 588 1275 600.5 1318 c 128,-1,61
 613 1361 613 1361 620 1401 c 128,-1,62
 627 1441 627 1441 627 1472 c 0,63,64
 627 1529 627 1529 593 1564.5 c 128,-1,65
 559 1600 559 1600 499 1600 c 0,66,67
 467 1600 467 1600 443 1584 c 128,-1,68
 419 1568 419 1568 403 1541.5 c 128,-1,69
 387 1515 387 1515 379 1480 c 128,-1,70
 371 1445 371 1445 371 1408 c 0,71,72
 371 1373 371 1373 379.5 1325.5 c 128,-1,73
 388 1278 388 1278 401.5 1225.5 c 128,-1,74
 415 1173 415 1173 432.5 1120.5 c 128,-1,75
 450 1068 450 1068 468 1024 c 1,56,57
404 704 m 1,76,77
 383 676 383 676 365 638 c 128,-1,78
 347 600 347 600 334 557 c 128,-1,79
 321 514 321 514 314 469.5 c 128,-1,80
 307 425 307 425 307 384 c 0,81,82
 307 345 307 345 314 310.5 c 128,-1,83
 321 276 321 276 336 249.5 c 128,-1,84
 351 223 351 223 375.5 207.5 c 128,-1,85
 400 192 400 192 435 192 c 0,86,87
 483 192 483 192 524 212 c 128,-1,88
 565 232 565 232 595 256 c 0,89,90
 630 284 630 284 659 320 c 1,91,92
 591 421 591 421 536 503 c 0,93,94
 513 538 513 538 490 572 c 128,-1,95
 467 606 467 606 449 634 c 128,-1,96
 431 662 431 662 418.5 680.5 c 128,-1,97
 406 699 406 699 404 704 c 1,76,77
EndSplineSet
EndChar

StartChar: quotesingle
Encoding: 39 39 10
Width: 376
GlyphClass: 2
Flags: W
LayerCount: 2
Fore
SplineSet
63 1792 m 1,0,-1
 319 1792 l 1,1,-1
 255 1408 l 1,2,-1
 127 1408 l 1,3,-1
 63 1792 l 1,0,-1
EndSplineSet
EndChar

StartChar: parenleft
Encoding: 40 40 11
Width: 551
GlyphClass: 2
Flags: W
LayerCount: 2
Fore
SplineSet
80 896 m 256,0,1
 80 1091 80 1091 93 1238 c 128,-1,2
 106 1385 106 1385 131.5 1491.5 c 128,-1,3
 157 1598 157 1598 195 1668.5 c 128,-1,4
 233 1739 233 1739 282.5 1780.5 c 128,-1,5
 332 1822 332 1822 393.5 1839 c 128,-1,6
 455 1856 455 1856 528 1856 c 1,7,-1
 528 1664 l 1,8,9
 490 1664 490 1664 461 1650 c 128,-1,10
 432 1636 432 1636 411 1602 c 128,-1,11
 390 1568 390 1568 375.5 1511 c 128,-1,12
 361 1454 361 1454 352 1369 c 128,-1,13
 343 1284 343 1284 339.5 1167 c 128,-1,14
 336 1050 336 1050 336 896 c 256,15,16
 336 742 336 742 339.5 625 c 128,-1,17
 343 508 343 508 352 423 c 128,-1,18
 361 338 361 338 375.5 281 c 128,-1,19
 390 224 390 224 411 190 c 128,-1,20
 432 156 432 156 461 142 c 128,-1,21
 490 128 490 128 528 128 c 1,22,-1
 528 -64 l 1,23,24
 455 -64 455 -64 393.5 -47 c 128,-1,25
 332 -30 332 -30 282.5 11.5 c 128,-1,26
 233 53 233 53 195 123.5 c 128,-1,27
 157 194 157 194 131.5 300.5 c 128,-1,28
 106 407 106 407 93 554 c 128,-1,29
 80 701 80 701 80 896 c 256,0,1
EndSplineSet
EndChar

StartChar: parenright
Encoding: 41 41 12
Width: 564
GlyphClass: 2
Flags: W
LayerCount: 2
Fore
SplineSet
487 896 m 256,0,1
 487 701 487 701 474 554 c 128,-1,2
 461 407 461 407 435.5 300.5 c 128,-1,3
 410 194 410 194 372 123.5 c 128,-1,4
 334 53 334 53 284.5 11.5 c 128,-1,5
 235 -30 235 -30 173.5 -47 c 128,-1,6
 112 -64 112 -64 39 -64 c 1,7,-1
 39 128 l 1,8,9
 77 128 77 128 106 142 c 128,-1,10
 135 156 135 156 156 190 c 128,-1,11
 177 224 177 224 191.5 281 c 128,-1,12
 206 338 206 338 215 423 c 128,-1,13
 224 508 224 508 227.5 625 c 128,-1,14
 231 742 231 742 231 896 c 256,15,16
 231 1050 231 1050 227.5 1167 c 128,-1,17
 224 1284 224 1284 215 1369 c 128,-1,18
 206 1454 206 1454 191.5 1511 c 128,-1,19
 177 1568 177 1568 156 1602 c 128,-1,20
 135 1636 135 1636 106 1650 c 128,-1,21
 77 1664 77 1664 39 1664 c 1,22,-1
 39 1856 l 1,23,24
 112 1856 112 1856 173.5 1839 c 128,-1,25
 235 1822 235 1822 284.5 1780.5 c 128,-1,26
 334 1739 334 1739 372 1668.5 c 128,-1,27
 410 1598 410 1598 435.5 1491.5 c 128,-1,28
 461 1385 461 1385 474 1238 c 128,-1,29
 487 1091 487 1091 487 896 c 256,0,1
EndSplineSet
EndChar

StartChar: asterisk
Encoding: 42 42 13
Width: 774
GlyphClass: 2
Flags: W
LayerCount: 2
Fore
SplineSet
242 904 m 1,0,-1
 90 994 l 1,1,-1
 262 1237 l 1,2,-1
 5 1335 l 1,3,-1
 66 1496 l 1,4,-1
 311 1364 l 1,5,-1
 283 1664 l 1,6,-1
 475 1664 l 1,7,-1
 446 1364 l 1,8,-1
 692 1496 l 1,9,-1
 753 1335 l 1,10,-1
 496 1236 l 1,11,-1
 668 994 l 1,12,-1
 516 904 l 1,13,-1
 379 1181 l 1,14,-1
 242 904 l 1,0,-1
EndSplineSet
EndChar

StartChar: plus
Encoding: 43 43 14
Width: 718
GlyphClass: 2
Flags: W
LayerCount: 2
Fore
SplineSet
269 384 m 1,0,-1
 269 576 l 1,1,-1
 77 576 l 1,2,-1
 77 768 l 1,3,-1
 269 768 l 1,4,-1
 269 960 l 1,5,-1
 461 960 l 1,6,-1
 461 768 l 1,7,-1
 653 768 l 1,8,-1
 653 576 l 1,9,-1
 461 576 l 1,10,-1
 461 384 l 1,11,-1
 269 384 l 1,0,-1
EndSplineSet
EndChar

StartChar: comma
Encoding: 44 44 15
Width: 422
GlyphClass: 2
Flags: W
LayerCount: 2
Fore
SplineSet
91 256 m 1,0,-1
 347 256 l 1,1,2
 347 112 347 112 344 14 c 128,-1,3
 341 -84 341 -84 323 -144 c 128,-1,4
 305 -204 305 -204 266 -230 c 128,-1,5
 227 -256 227 -256 155 -256 c 1,6,-1
 91 -128 l 1,7,8
 139 -128 139 -128 165 -114.5 c 128,-1,9
 191 -101 191 -101 203 -81 c 128,-1,10
 215 -61 215 -61 217 -39 c 128,-1,11
 219 -17 219 -17 219 0 c 1,12,-1
 91 0 l 1,13,-1
 91 256 l 1,0,-1
EndSplineSet
EndChar

StartChar: hyphen
Encoding: 45 45 16
Width: 580
GlyphClass: 2
Flags: W
LayerCount: 2
Fore
SplineSet
101 640 m 1,0,-1
 485 640 l 1,1,-1
 485 448 l 1,2,-1
 101 448 l 1,3,-1
 101 640 l 1,0,-1
EndSplineSet
EndChar

StartChar: period
Encoding: 46 46 17
Width: 425
GlyphClass: 2
Flags: W
LayerCount: 2
Fore
SplineSet
95 256 m 1,0,-1
 351 256 l 1,1,-1
 351 0 l 1,2,-1
 95 0 l 1,3,-1
 95 256 l 1,0,-1
EndSplineSet
EndChar

StartChar: slash
Encoding: 47 47 18
Width: 691
GlyphClass: 2
Flags: W
LayerCount: 2
Fore
SplineSet
511 1792 m 1,0,-1
 768 1792 l 1,1,-1
 192 0 l 1,2,-1
 -64 0 l 1,3,-1
 511 1792 l 1,0,-1
EndSplineSet
EndChar

StartChar: zero
Encoding: 48 48 19
Width: 1074
GlyphClass: 2
Flags: W
LayerCount: 2
Fore
SplineSet
538 -18 m 256,0,1
 452 -18 452 -18 371 11.5 c 128,-1,2
 290 41 290 41 227.5 105 c 128,-1,3
 165 169 165 169 127.5 269.5 c 128,-1,4
 90 370 90 370 90 512 c 2,5,-1
 90 1280 l 2,6,7
 90 1401 90 1401 114.5 1487 c 128,-1,8
 139 1573 139 1573 178 1632 c 128,-1,9
 217 1691 217 1691 266 1726 c 128,-1,10
 315 1761 315 1761 365 1780 c 128,-1,11
 415 1799 415 1799 460.5 1804.5 c 128,-1,12
 506 1810 506 1810 538 1810 c 256,13,14
 570 1810 570 1810 615.5 1804.5 c 128,-1,15
 661 1799 661 1799 711 1780 c 128,-1,16
 761 1761 761 1761 810 1726 c 128,-1,17
 859 1691 859 1691 898 1632 c 128,-1,18
 937 1573 937 1573 961.5 1487 c 128,-1,19
 986 1401 986 1401 986 1280 c 2,20,-1
 986 512 l 2,21,22
 986 370 986 370 948.5 269.5 c 128,-1,23
 911 169 911 169 848.5 105 c 128,-1,24
 786 41 786 41 705 11.5 c 128,-1,25
 624 -18 624 -18 538 -18 c 256,0,1
538 192 m 256,26,27
 580 192 580 192 611 208 c 128,-1,28
 642 224 642 224 663 250 c 128,-1,29
 684 276 684 276 697.5 310 c 128,-1,30
 711 344 711 344 718 379.5 c 128,-1,31
 725 415 725 415 727.5 449.5 c 128,-1,32
 730 484 730 484 730 512 c 2,33,-1
 730 1280 l 2,34,35
 730 1309 730 1309 728.5 1344 c 128,-1,36
 727 1379 727 1379 720.5 1414.5 c 128,-1,37
 714 1450 714 1450 702 1483.5 c 128,-1,38
 690 1517 690 1517 668.5 1543 c 128,-1,39
 647 1569 647 1569 615 1584.5 c 128,-1,40
 583 1600 583 1600 538 1600 c 256,41,42
 493 1600 493 1600 461 1584.5 c 128,-1,43
 429 1569 429 1569 407.5 1543 c 128,-1,44
 386 1517 386 1517 374 1483.5 c 128,-1,45
 362 1450 362 1450 355.5 1414.5 c 128,-1,46
 349 1379 349 1379 347.5 1344 c 128,-1,47
 346 1309 346 1309 346 1280 c 2,48,-1
 346 512 l 2,49,50
 346 484 346 484 348.5 449.5 c 128,-1,51
 351 415 351 415 358 379.5 c 128,-1,52
 365 344 365 344 378.5 310 c 128,-1,53
 392 276 392 276 413 250 c 128,-1,54
 434 224 434 224 465 208 c 128,-1,55
 496 192 496 192 538 192 c 256,26,27
EndSplineSet
EndChar

StartChar: one
Encoding: 49 49 20
Width: 581
GlyphClass: 2
Flags: W
LayerCount: 2
Fore
SplineSet
8 1600 m 1,0,1
 63 1620 63 1620 112 1648 c 0,2,3
 154 1672 154 1672 197 1708 c 128,-1,4
 240 1744 240 1744 264 1792 c 1,5,-1
 456 1792 l 1,6,-1
 456 0 l 1,7,-1
 200 0 l 1,8,-1
 200 1408 l 1,9,-1
 8 1408 l 1,10,-1
 8 1600 l 1,0,1
EndSplineSet
EndChar

StartChar: two
Encoding: 50 50 21
Width: 1032
GlyphClass: 2
Flags: W
LayerCount: 2
Fore
SplineSet
71 1216 m 1,0,-1
 71 1280 l 2,1,2
 71 1400 71 1400 96 1498 c 128,-1,3
 121 1596 121 1596 175 1665 c 128,-1,4
 229 1734 229 1734 314 1772 c 128,-1,5
 399 1810 399 1810 519 1810 c 256,6,7
 639 1810 639 1810 724 1773 c 128,-1,8
 809 1736 809 1736 863 1673 c 128,-1,9
 917 1610 917 1610 942 1525 c 128,-1,10
 967 1440 967 1440 967 1344 c 0,11,12
 967 1272 967 1272 955.5 1209 c 128,-1,13
 944 1146 944 1146 920 1085.5 c 128,-1,14
 896 1025 896 1025 860 963.5 c 128,-1,15
 824 902 824 902 775 832 c 1,16,-1
 327 256 l 1,17,-1
 967 256 l 1,18,-1
 967 0 l 1,19,-1
 70 0 l 1,20,-1
 70 256 l 1,21,-1
 519 896 l 2,22,23
 587 993 587 993 625.5 1062.5 c 128,-1,24
 664 1132 664 1132 683 1183 c 128,-1,25
 702 1234 702 1234 706.5 1272 c 128,-1,26
 711 1310 711 1310 711 1344 c 0,27,28
 711 1392 711 1392 699 1438 c 128,-1,29
 687 1484 687 1484 663 1520 c 128,-1,30
 639 1556 639 1556 603 1578 c 128,-1,31
 567 1600 567 1600 519 1600 c 256,32,33
 471 1600 471 1600 435 1577 c 128,-1,34
 399 1554 399 1554 375 1512 c 128,-1,35
 351 1470 351 1470 339 1411 c 128,-1,36
 327 1352 327 1352 327 1280 c 2,37,-1
 327 1216 l 1,38,-1
 71 1216 l 1,0,-1
EndSplineSet
EndChar

StartChar: three
Encoding: 51 51 22
Width: 1036
GlyphClass: 2
Flags: W
LayerCount: 2
Fore
SplineSet
511 -18 m 256,0,1
 391 -18 391 -18 306 19 c 128,-1,2
 221 56 221 56 167 119 c 128,-1,3
 113 182 113 182 88 267 c 128,-1,4
 63 352 63 352 63 448 c 2,5,-1
 63 512 l 1,6,-1
 319 512 l 1,7,8
 319 416 319 416 331 354 c 128,-1,9
 343 292 343 292 367 256 c 128,-1,10
 391 220 391 220 427 206 c 128,-1,11
 463 192 463 192 511 192 c 256,12,13
 559 192 559 192 595 206 c 128,-1,14
 631 220 631 220 655 256 c 128,-1,15
 679 292 679 292 691 354 c 128,-1,16
 703 416 703 416 703 512 c 0,17,18
 703 584 703 584 690 643 c 128,-1,19
 677 702 677 702 647 744 c 128,-1,20
 617 786 617 786 568 809 c 128,-1,21
 519 832 519 832 447 832 c 1,22,-1
 447 1088 l 1,23,24
 519 1088 519 1088 568 1101 c 128,-1,25
 617 1114 617 1114 647 1144 c 128,-1,26
 677 1174 677 1174 690 1223 c 128,-1,27
 703 1272 703 1272 703 1344 c 256,28,29
 703 1416 703 1416 691 1465 c 128,-1,30
 679 1514 679 1514 655 1544 c 128,-1,31
 631 1574 631 1574 595 1587 c 128,-1,32
 559 1600 559 1600 511 1600 c 256,33,34
 463 1600 463 1600 427 1586 c 128,-1,35
 391 1572 391 1572 367 1536 c 128,-1,36
 343 1500 343 1500 331 1438 c 128,-1,37
 319 1376 319 1376 319 1280 c 1,38,-1
 63 1280 l 1,39,-1
 63 1344 l 2,40,41
 63 1440 63 1440 88 1525 c 128,-1,42
 113 1610 113 1610 167 1673 c 128,-1,43
 221 1736 221 1736 306 1773 c 128,-1,44
 391 1810 391 1810 511 1810 c 256,45,46
 631 1810 631 1810 716 1773 c 128,-1,47
 801 1736 801 1736 855 1673 c 128,-1,48
 909 1610 909 1610 934 1525 c 128,-1,49
 959 1440 959 1440 959 1344 c 0,50,51
 959 1284 959 1284 948 1235.5 c 128,-1,52
 937 1187 937 1187 919 1149 c 128,-1,53
 901 1111 901 1111 878 1082 c 128,-1,54
 855 1053 855 1053 831 1032 c 0,55,56
 775 983 775 983 703 960 c 1,57,58
 775 936 775 936 831 880 c 0,59,60
 855 856 855 856 878 822.5 c 128,-1,61
 901 789 901 789 919 744 c 128,-1,62
 937 699 937 699 948 641.5 c 128,-1,63
 959 584 959 584 959 512 c 0,64,65
 959 392 959 392 934 294 c 128,-1,66
 909 196 909 196 855 127 c 128,-1,67
 801 58 801 58 716 20 c 128,-1,68
 631 -18 631 -18 511 -18 c 256,0,1
EndSplineSet
EndChar

StartChar: four
Encoding: 52 52 23
Width: 968
GlyphClass: 2
Flags: W
LayerCount: 2
Fore
SplineSet
507 460 m 1,0,-1
 -5 460 l 1,1,-1
 -5 745 l 1,2,-1
 443 1793 l 1,3,-1
 763 1793 l 1,4,-1
 763 702 l 1,5,-1
 961 702 l 1,6,-1
 961 460 l 1,7,-1
 763 460 l 1,8,-1
 763 0 l 1,9,-1
 507 0 l 1,10,-1
 507 460 l 1,0,-1
507 702 m 1,11,-1
 539 1472 l 1,12,-1
 251 702 l 1,13,-1
 507 702 l 1,11,-1
EndSplineSet
EndChar

StartChar: five
Encoding: 53 53 24
Width: 1028
GlyphClass: 2
Flags: W
LayerCount: 2
Fore
SplineSet
906 1536 m 1,0,-1
 346 1536 l 1,1,-1
 330 1102 l 1,2,3
 359 1120 359 1120 398 1134 c 0,4,5
 431 1146 431 1146 478 1156 c 128,-1,6
 525 1166 525 1166 586 1166 c 0,7,8
 693 1166 693 1166 766.5 1127.5 c 128,-1,9
 840 1089 840 1089 885 1019 c 128,-1,10
 930 949 930 949 950 852.5 c 128,-1,11
 970 756 970 756 970 640 c 0,12,13
 970 567 970 567 964 490 c 128,-1,14
 958 413 958 413 941 340 c 128,-1,15
 924 267 924 267 893 201.5 c 128,-1,16
 862 136 862 136 811.5 87.5 c 128,-1,17
 761 39 761 39 689 10.5 c 128,-1,18
 617 -18 617 -18 517 -18 c 0,19,20
 381 -18 381 -18 295 24 c 128,-1,21
 209 66 209 66 160 138 c 128,-1,22
 111 210 111 210 92.5 306.5 c 128,-1,23
 74 403 74 403 74 512 c 1,24,-1
 330 512 l 1,25,-1
 330 472 l 2,26,27
 330 420 330 420 335 369 c 128,-1,28
 340 318 340 318 357.5 277.5 c 128,-1,29
 375 237 375 237 409.5 211.5 c 128,-1,30
 444 186 444 186 503 186 c 0,31,32
 569 186 569 186 610 212 c 128,-1,33
 651 238 651 238 674 289 c 128,-1,34
 697 340 697 340 705.5 416.5 c 128,-1,35
 714 493 714 493 714 595 c 0,36,37
 714 671 714 671 712.5 740 c 128,-1,38
 711 809 711 809 694.5 861 c 128,-1,39
 678 913 678 913 638.5 943.5 c 128,-1,40
 599 974 599 974 523 974 c 0,41,42
 487 974 487 974 456 959.5 c 128,-1,43
 425 945 425 945 400.5 923 c 128,-1,44
 376 901 376 901 358.5 875 c 128,-1,45
 341 849 341 849 332 826 c 1,46,-1
 114 826 l 1,47,-1
 114 1792 l 1,48,-1
 906 1792 l 1,49,-1
 906 1536 l 1,0,-1
EndSplineSet
EndChar

StartChar: six
Encoding: 54 54 25
Width: 1054
GlyphClass: 2
Flags: W
LayerCount: 2
Fore
SplineSet
532 -18 m 0,0,1
 436 -18 436 -18 354 21 c 128,-1,2
 272 60 272 60 212 135 c 128,-1,3
 152 210 152 210 118 321 c 128,-1,4
 84 432 84 432 84 576 c 2,5,-1
 84 1152 l 2,6,7
 84 1296 84 1296 109 1417 c 128,-1,8
 134 1538 134 1538 188 1625 c 128,-1,9
 242 1712 242 1712 327 1761 c 128,-1,10
 412 1810 412 1810 532 1810 c 0,11,12
 628 1810 628 1810 710 1782 c 128,-1,13
 792 1754 792 1754 852 1697 c 128,-1,14
 912 1640 912 1640 946 1552 c 128,-1,15
 980 1464 980 1464 980 1344 c 1,16,-1
 724 1344 l 1,17,18
 724 1416 724 1416 712.5 1465 c 128,-1,19
 701 1514 701 1514 677 1544 c 128,-1,20
 653 1574 653 1574 617 1587 c 128,-1,21
 581 1600 581 1600 532 1600 c 0,22,23
 340 1600 340 1600 340 1216 c 2,24,-1
 340 960 l 1,25,26
 361 996 361 996 396 1024 c 0,27,28
 426 1048 426 1048 475 1068 c 128,-1,29
 524 1088 524 1088 596 1088 c 0,30,31
 716 1088 716 1088 791 1044 c 128,-1,32
 866 1000 866 1000 908 928 c 128,-1,33
 950 856 950 856 965 764 c 128,-1,34
 980 672 980 672 980 576 c 0,35,36
 980 456 980 456 955 348 c 128,-1,37
 930 240 930 240 876 159 c 128,-1,38
 822 78 822 78 737 30 c 128,-1,39
 652 -18 652 -18 532 -18 c 0,0,1
340 512 m 2,40,41
 340 440 340 440 352 381 c 128,-1,42
 364 322 364 322 388 280 c 128,-1,43
 412 238 412 238 448 215 c 128,-1,44
 484 192 484 192 532 192 c 256,45,46
 580 192 580 192 616 215 c 128,-1,47
 652 238 652 238 676 280 c 128,-1,48
 700 322 700 322 712 381 c 128,-1,49
 724 440 724 440 724 512 c 256,50,51
 724 584 724 584 721 653 c 128,-1,52
 718 722 718 722 700 776 c 128,-1,53
 682 830 682 830 643 863 c 128,-1,54
 604 896 604 896 532 896 c 0,55,56
 484 896 484 896 448 876 c 128,-1,57
 412 856 412 856 388 832 c 0,58,59
 360 804 360 804 340 768 c 1,60,-1
 340 512 l 2,40,41
EndSplineSet
EndChar

StartChar: seven
Encoding: 55 55 26
Width: 694
GlyphClass: 2
Flags: W
LayerCount: 2
Fore
SplineSet
-31 1792 m 1,0,-1
 686 1792 l 1,1,-1
 686 1669 l 1,2,-1
 360 0 l 1,3,-1
 114 0 l 1,4,-1
 442 1579 l 1,5,-1
 -31 1579 l 1,6,-1
 -31 1792 l 1,0,-1
EndSplineSet
EndChar

StartChar: eight
Encoding: 56 56 27
Width: 1036
GlyphClass: 2
Flags: W
LayerCount: 2
Fore
SplineSet
522 1600 m 0,0,1
 471 1600 471 1600 439.5 1577 c 128,-1,2
 408 1554 408 1554 390.5 1517.5 c 128,-1,3
 373 1481 373 1481 366.5 1435.5 c 128,-1,4
 360 1390 360 1390 360 1344 c 0,5,6
 360 1296 360 1296 365 1246 c 128,-1,7
 370 1196 370 1196 387 1155.5 c 128,-1,8
 404 1115 404 1115 436 1089 c 128,-1,9
 468 1063 468 1063 522 1063 c 256,10,11
 576 1063 576 1063 607.5 1089 c 128,-1,12
 639 1115 639 1115 655.5 1155.5 c 128,-1,13
 672 1196 672 1196 677 1246 c 128,-1,14
 682 1296 682 1296 682 1344 c 0,15,16
 682 1390 682 1390 675.5 1435.5 c 128,-1,17
 669 1481 669 1481 651.5 1517.5 c 128,-1,18
 634 1554 634 1554 603 1577 c 128,-1,19
 572 1600 572 1600 522 1600 c 0,0,1
522 1810 m 0,20,21
 628 1810 628 1810 707.5 1777.5 c 128,-1,22
 787 1745 787 1745 839 1684.5 c 128,-1,23
 891 1624 891 1624 917 1538 c 128,-1,24
 943 1452 943 1452 943 1344 c 0,25,26
 943 1285 943 1285 936.5 1230 c 128,-1,27
 930 1175 930 1175 911.5 1124.5 c 128,-1,28
 893 1074 893 1074 860.5 1029.5 c 128,-1,29
 828 985 828 985 776 946 c 1,30,31
 821 916 821 916 856.5 881 c 128,-1,32
 892 846 892 846 917 796.5 c 128,-1,33
 942 747 942 747 955.5 677.5 c 128,-1,34
 969 608 969 608 969 511 c 0,35,36
 969 391 969 391 946 293.5 c 128,-1,37
 923 196 923 196 870 127 c 128,-1,38
 817 58 817 58 731.5 20 c 128,-1,39
 646 -18 646 -18 522 -18 c 0,40,41
 397 -18 397 -18 311.5 20 c 128,-1,42
 226 58 226 58 173 127 c 128,-1,43
 120 196 120 196 96.5 293.5 c 128,-1,44
 73 391 73 391 73 511 c 0,45,46
 73 608 73 608 86.5 677 c 128,-1,47
 100 746 100 746 125 796 c 128,-1,48
 150 846 150 846 186 881.5 c 128,-1,49
 222 917 222 917 267 946 c 1,50,51
 215 985 215 985 182.5 1029.5 c 128,-1,52
 150 1074 150 1074 131.5 1124.5 c 128,-1,53
 113 1175 113 1175 106 1230 c 128,-1,54
 99 1285 99 1285 99 1344 c 0,55,56
 99 1452 99 1452 125 1538 c 128,-1,57
 151 1624 151 1624 203.5 1684.5 c 128,-1,58
 256 1745 256 1745 335.5 1777.5 c 128,-1,59
 415 1810 415 1810 522 1810 c 0,20,21
522 192 m 256,60,61
 594 192 594 192 632.5 224 c 128,-1,62
 671 256 671 256 689 304 c 128,-1,63
 707 352 707 352 710 407.5 c 128,-1,64
 713 463 713 463 713 511 c 0,65,66
 713 558 713 558 707 612 c 128,-1,67
 701 666 701 666 681.5 711.5 c 128,-1,68
 662 757 662 757 624 787.5 c 128,-1,69
 586 818 586 818 522 818 c 0,70,71
 457 818 457 818 419 787.5 c 128,-1,72
 381 757 381 757 361 711.5 c 128,-1,73
 341 666 341 666 335 612 c 128,-1,74
 329 558 329 558 329 511 c 0,75,76
 329 463 329 463 332 407.5 c 128,-1,77
 335 352 335 352 353 304 c 128,-1,78
 371 256 371 256 410.5 224 c 128,-1,79
 450 192 450 192 522 192 c 256,60,61
EndSplineSet
EndChar

StartChar: nine
Encoding: 57 57 28
Width: 1047
GlyphClass: 2
Flags: W
LayerCount: 2
Fore
SplineSet
516 1810 m 0,0,1
 612 1810 612 1810 694 1771 c 128,-1,2
 776 1732 776 1732 836 1657 c 128,-1,3
 896 1582 896 1582 930 1471 c 128,-1,4
 964 1360 964 1360 964 1216 c 2,5,-1
 964 640 l 2,6,7
 964 496 964 496 939 375 c 128,-1,8
 914 254 914 254 860 167 c 128,-1,9
 806 80 806 80 721 31 c 128,-1,10
 636 -18 636 -18 516 -18 c 0,11,12
 420 -18 420 -18 338 10 c 128,-1,13
 256 38 256 38 196 95 c 128,-1,14
 136 152 136 152 102 240 c 128,-1,15
 68 328 68 328 68 448 c 1,16,-1
 324 448 l 1,17,18
 324 376 324 376 335.5 327 c 128,-1,19
 347 278 347 278 371 248 c 128,-1,20
 395 218 395 218 431 205 c 128,-1,21
 467 192 467 192 516 192 c 0,22,23
 708 192 708 192 708 576 c 2,24,-1
 708 832 l 1,25,26
 687 796 687 796 652 768 c 0,27,28
 622 744 622 744 573 724 c 128,-1,29
 524 704 524 704 452 704 c 0,30,31
 332 704 332 704 257 748 c 128,-1,32
 182 792 182 792 140 864 c 128,-1,33
 98 936 98 936 83 1028 c 128,-1,34
 68 1120 68 1120 68 1216 c 0,35,36
 68 1336 68 1336 93 1444 c 128,-1,37
 118 1552 118 1552 172 1633 c 128,-1,38
 226 1714 226 1714 311 1762 c 128,-1,39
 396 1810 396 1810 516 1810 c 0,0,1
708 1280 m 2,40,41
 708 1352 708 1352 696 1411 c 128,-1,42
 684 1470 684 1470 660 1512 c 128,-1,43
 636 1554 636 1554 600 1577 c 128,-1,44
 564 1600 564 1600 516 1600 c 256,45,46
 468 1600 468 1600 432 1577 c 128,-1,47
 396 1554 396 1554 372 1512 c 128,-1,48
 348 1470 348 1470 336 1411 c 128,-1,49
 324 1352 324 1352 324 1280 c 256,50,51
 324 1208 324 1208 327 1139 c 128,-1,52
 330 1070 330 1070 348 1016 c 128,-1,53
 366 962 366 962 405 929 c 128,-1,54
 444 896 444 896 516 896 c 0,55,56
 564 896 564 896 600 916 c 128,-1,57
 636 936 636 936 660 960 c 0,58,59
 688 988 688 988 708 1024 c 1,60,-1
 708 1280 l 2,40,41
EndSplineSet
EndChar

StartChar: colon
Encoding: 58 58 29
Width: 473
GlyphClass: 2
Flags: W
LayerCount: 2
Fore
SplineSet
111 1088 m 1,0,-1
 367 1088 l 1,1,-1
 367 832 l 1,2,-1
 111 832 l 1,3,-1
 111 1088 l 1,0,-1
111 512 m 1,4,-1
 367 512 l 1,5,-1
 367 256 l 1,6,-1
 111 256 l 1,7,-1
 111 512 l 1,4,-1
EndSplineSet
EndChar

StartChar: semicolon
Encoding: 59 59 30
Width: 470
GlyphClass: 2
Flags: W
LayerCount: 2
Fore
SplineSet
113 1088 m 1,0,-1
 369 1088 l 1,1,-1
 369 832 l 1,2,-1
 113 832 l 1,3,-1
 113 1088 l 1,0,-1
113 512 m 1,4,-1
 369 512 l 1,5,6
 369 368 369 368 366 270 c 128,-1,7
 363 172 363 172 345 112 c 128,-1,8
 327 52 327 52 288 26 c 128,-1,9
 249 0 249 0 177 0 c 1,10,-1
 113 128 l 1,11,12
 161 128 161 128 187 141.5 c 128,-1,13
 213 155 213 155 225 175 c 128,-1,14
 237 195 237 195 239 217 c 128,-1,15
 241 239 241 239 241 256 c 1,16,-1
 113 256 l 1,17,-1
 113 512 l 1,4,-1
EndSplineSet
EndChar

StartChar: less
Encoding: 60 60 31
Width: 779
GlyphClass: 2
Flags: W
LayerCount: 2
Fore
SplineSet
51 768 m 1,0,-1
 691 1216 l 1,1,-1
 691 960 l 1,2,-1
 243 641 l 1,3,-1
 691 320 l 1,4,-1
 691 64 l 1,5,-1
 51 512 l 1,6,-1
 51 768 l 1,0,-1
EndSplineSet
EndChar

StartChar: equal
Encoding: 61 61 32
Width: 799
GlyphClass: 2
Flags: W
LayerCount: 2
Fore
SplineSet
116 576 m 1,0,-1
 116 768 l 1,1,-1
 692 768 l 1,2,-1
 692 576 l 1,3,-1
 116 576 l 1,0,-1
116 255 m 1,4,-1
 116 447 l 1,5,-1
 692 447 l 1,6,-1
 692 255 l 1,7,-1
 116 255 l 1,4,-1
EndSplineSet
EndChar

StartChar: greater
Encoding: 62 62 33
Width: 780
GlyphClass: 2
Flags: W
LayerCount: 2
Fore
SplineSet
738 512 m 1,0,-1
 98 64 l 1,1,-1
 98 320 l 1,2,-1
 546 641 l 1,3,-1
 98 960 l 1,4,-1
 98 1216 l 1,5,-1
 738 768 l 1,6,-1
 738 512 l 1,0,-1
EndSplineSet
EndChar

StartChar: question
Encoding: 63 63 34
Width: 903
GlyphClass: 2
Flags: W
LayerCount: 2
Fore
SplineSet
247 384 m 1,0,-1
 247 704 l 1,1,2
 367 776 367 776 442 847 c 128,-1,3
 517 918 517 918 559 984 c 128,-1,4
 601 1050 601 1050 616 1109 c 128,-1,5
 631 1168 631 1168 631 1216 c 0,6,7
 631 1408 631 1408 439 1408 c 0,8,9
 391 1408 391 1408 355 1395 c 128,-1,10
 319 1382 319 1382 295 1352 c 128,-1,11
 271 1322 271 1322 259 1273 c 128,-1,12
 247 1224 247 1224 247 1152 c 1,13,-1
 -9 1152 l 1,14,-1
 -9 1216 l 2,15,16
 -9 1336 -9 1336 25 1421 c 128,-1,17
 59 1506 59 1506 119 1560 c 128,-1,18
 179 1614 179 1614 261 1639 c 128,-1,19
 343 1664 343 1664 439 1664 c 0,20,21
 559 1664 559 1664 644.5 1630 c 128,-1,22
 730 1596 730 1596 784 1536 c 128,-1,23
 838 1476 838 1476 863 1394 c 128,-1,24
 888 1312 888 1312 888 1216 c 0,25,26
 888 1023 888 1023 792.5 878 c 128,-1,27
 697 733 697 733 503 640 c 1,28,-1
 503 384 l 1,29,-1
 247 384 l 1,0,-1
247 256 m 1,30,-1
 503 256 l 1,31,-1
 503 0 l 1,32,-1
 247 0 l 1,33,-1
 247 256 l 1,30,-1
EndSplineSet
EndChar

StartChar: at
Encoding: 64 64 35
Width: 1545
GlyphClass: 2
Flags: W
LayerCount: 2
Fore
SplineSet
848 945 m 1,0,1
 847 959 847 959 841 970 c 0,2,3
 836 980 836 980 825 988 c 128,-1,4
 814 996 814 996 794 996 c 0,5,6
 746 996 746 996 718.5 971 c 128,-1,7
 691 946 691 946 677.5 904 c 128,-1,8
 664 862 664 862 661 807 c 128,-1,9
 658 752 658 752 658 693 c 0,10,11
 658 640 658 640 667 604 c 128,-1,12
 676 568 676 568 692 545 c 128,-1,13
 708 522 708 522 729 512 c 128,-1,14
 750 502 750 502 774 502 c 0,15,16
 802 502 802 502 817 508 c 128,-1,17
 832 514 832 514 839 522 c 0,18,19
 847 531 847 531 848 542 c 1,20,-1
 848 945 l 1,0,1
901 420 m 1,21,22
 885 384 885 384 860 356 c 0,23,24
 839 332 839 332 807 312 c 128,-1,25
 775 292 775 292 730 292 c 0,26,27
 668 292 668 292 619.5 311 c 128,-1,28
 571 330 571 330 534.5 362 c 128,-1,29
 498 394 498 394 472.5 435.5 c 128,-1,30
 447 477 447 477 431.5 521.5 c 128,-1,31
 416 566 416 566 409 610.5 c 128,-1,32
 402 655 402 655 402 693 c 0,33,34
 402 822 402 822 427 917 c 128,-1,35
 452 1012 452 1012 494 1074.5 c 128,-1,36
 536 1137 536 1137 591 1167 c 128,-1,37
 646 1197 646 1197 706 1197 c 0,38,39
 733 1197 733 1197 753 1191 c 128,-1,40
 773 1185 773 1185 788 1175.5 c 128,-1,41
 803 1166 803 1166 813 1154 c 128,-1,42
 823 1142 823 1142 830 1129 c 0,43,44
 846 1099 846 1099 848 1061 c 1,45,-1
 848 1188 l 1,46,-1
 1104 1188 l 1,47,-1
 1104 620 l 2,48,49
 1104 601 1104 601 1105 580 c 128,-1,50
 1106 559 1106 559 1112 542 c 128,-1,51
 1118 525 1118 525 1132 513.5 c 128,-1,52
 1146 502 1146 502 1172 502 c 0,53,54
 1195 502 1195 502 1216 516.5 c 128,-1,55
 1237 531 1237 531 1253 563 c 128,-1,56
 1269 595 1269 595 1278.5 645.5 c 128,-1,57
 1288 696 1288 696 1288 768 c 0,58,59
 1288 938 1288 938 1254.5 1055 c 128,-1,60
 1221 1172 1221 1172 1156.5 1244 c 128,-1,61
 1092 1316 1092 1316 999 1348 c 128,-1,62
 906 1380 906 1380 786 1380 c 0,63,64
 737 1380 737 1380 680.5 1370 c 128,-1,65
 624 1360 624 1360 567 1335 c 128,-1,66
 510 1310 510 1310 457 1266 c 128,-1,67
 404 1222 404 1222 363.5 1154 c 128,-1,68
 323 1086 323 1086 298.5 991 c 128,-1,69
 274 896 274 896 274 768 c 0,70,71
 274 608 274 608 298.5 493.5 c 128,-1,72
 323 379 323 379 365.5 301 c 128,-1,73
 408 223 408 223 465 176 c 128,-1,74
 522 129 522 129 585.5 104 c 128,-1,75
 649 79 649 79 716.5 71.5 c 128,-1,76
 784 64 784 64 848 64 c 0,77,78
 893 64 893 64 944.5 72 c 128,-1,79
 996 80 996 80 1041 91 c 0,80,81
 1093 103 1093 103 1144 119 c 1,82,-1
 1238 -77 l 1,83,84
 1170 -92 1170 -92 1101 -103 c 0,85,86
 1042 -113 1042 -113 974 -120.5 c 128,-1,87
 906 -128 906 -128 848 -128 c 0,88,89
 641 -128 641 -128 485.5 -78 c 128,-1,90
 330 -28 330 -28 226 80 c 128,-1,91
 122 188 122 188 70 358 c 128,-1,92
 18 528 18 528 18 768 c 0,93,94
 18 960 18 960 74.5 1109.5 c 128,-1,95
 131 1259 131 1259 233 1362 c 128,-1,96
 335 1465 335 1465 476 1518.5 c 128,-1,97
 617 1572 617 1572 786 1572 c 0,98,99
 966 1572 966 1572 1107 1518.5 c 128,-1,100
 1248 1465 1248 1465 1345 1362 c 128,-1,101
 1442 1259 1442 1259 1493 1109.5 c 128,-1,102
 1544 960 1544 960 1544 768 c 0,103,104
 1544 656 1544 656 1521 577 c 128,-1,105
 1498 498 1498 498 1462.5 445.5 c 128,-1,106
 1427 393 1427 393 1384 362 c 128,-1,107
 1341 331 1341 331 1300 315.5 c 128,-1,108
 1259 300 1259 300 1225.5 296 c 128,-1,109
 1192 292 1192 292 1176 292 c 0,110,111
 1101 292 1101 292 1048.5 312 c 128,-1,112
 996 332 996 332 963 356 c 0,113,114
 924 384 924 384 901 420 c 1,21,22
EndSplineSet
EndChar

StartChar: A
Encoding: 65 65 36
Width: 1061
GlyphClass: 2
Flags: W
LayerCount: 2
Fore
SplineSet
369 448 m 1,0,-1
 273 0 l 1,1,-1
 17 0 l 1,2,-1
 401 1792 l 1,3,-1
 657 1792 l 1,4,-1
 1041 0 l 1,5,-1
 785 0 l 1,6,-1
 689 448 l 1,7,-1
 369 448 l 1,0,-1
657 640 m 1,8,-1
 529 1408 l 1,9,-1
 401 640 l 1,10,-1
 657 640 l 1,8,-1
EndSplineSet
EndChar

StartChar: B
Encoding: 66 66 37
Width: 1173
GlyphClass: 2
Flags: W
LayerCount: 2
Fore
SplineSet
514 1792 m 2,0,1
 626 1792 626 1792 710 1772 c 128,-1,2
 794 1752 794 1752 854.5 1718.5 c 128,-1,3
 915 1685 915 1685 955 1640 c 128,-1,4
 995 1595 995 1595 1018 1545.5 c 128,-1,5
 1041 1496 1041 1496 1050.5 1444 c 128,-1,6
 1060 1392 1060 1392 1060 1344 c 0,7,8
 1060 1272 1060 1272 1047.5 1212 c 128,-1,9
 1035 1152 1035 1152 1002 1104 c 128,-1,10
 969 1056 969 1056 913 1020 c 128,-1,11
 857 984 857 984 770 960 c 1,12,13
 842 936 842 936 901 902 c 128,-1,14
 960 868 960 868 1002 816.5 c 128,-1,15
 1044 765 1044 765 1067 691 c 128,-1,16
 1090 617 1090 617 1090 512 c 0,17,18
 1090 399 1090 399 1055 305 c 128,-1,19
 1020 211 1020 211 954 143.5 c 128,-1,20
 888 76 888 76 793 38 c 128,-1,21
 698 0 698 0 578 0 c 2,22,-1
 130 0 l 1,23,-1
 130 1792 l 1,24,-1
 514 1792 l 2,0,1
386 192 m 1,25,-1
 514 192 l 2,26,27
 586 192 586 192 645 206 c 128,-1,28
 704 220 704 220 746 256 c 128,-1,29
 788 292 788 292 811 354 c 128,-1,30
 834 416 834 416 834 512 c 256,31,32
 834 608 834 608 811 670 c 128,-1,33
 788 732 788 732 746 768 c 128,-1,34
 704 804 704 804 645 818 c 128,-1,35
 586 832 586 832 514 832 c 2,36,-1
 386 832 l 1,37,-1
 386 192 l 1,25,-1
386 1024 m 1,38,-1
 514 1024 l 2,39,40
 546 1024 546 1024 582 1028 c 128,-1,41
 618 1032 618 1032 653.5 1043.5 c 128,-1,42
 689 1055 689 1055 722 1076.5 c 128,-1,43
 755 1098 755 1098 779.5 1133.5 c 128,-1,44
 804 1169 804 1169 819 1220.5 c 128,-1,45
 834 1272 834 1272 834 1344 c 0,46,47
 834 1440 834 1440 800 1492 c 128,-1,48
 766 1544 766 1544 706 1568 c 128,-1,49
 646 1592 646 1592 564 1596 c 128,-1,50
 482 1600 482 1600 386 1600 c 1,51,-1
 386 1024 l 1,38,-1
EndSplineSet
EndChar

StartChar: C
Encoding: 67 67 38
Width: 1209
GlyphClass: 2
Flags: W
LayerCount: 2
Fore
SplineSet
1115 640 m 1,0,-1
 1115 576 l 2,1,2
 1115 456 1115 456 1089 348 c 128,-1,3
 1063 240 1063 240 1003 159 c 128,-1,4
 943 78 943 78 845 30 c 128,-1,5
 747 -18 747 -18 603 -18 c 256,6,7
 459 -18 459 -18 361 31 c 128,-1,8
 263 80 263 80 203 167.5 c 128,-1,9
 143 255 143 255 117 376 c 128,-1,10
 91 497 91 497 91 641 c 2,11,-1
 91 1152 l 2,12,13
 91 1296 91 1296 117 1417 c 128,-1,14
 143 1538 143 1538 203 1625 c 128,-1,15
 263 1712 263 1712 361 1761 c 128,-1,16
 459 1810 459 1810 603 1810 c 0,17,18
 739 1810 739 1810 836.5 1766.5 c 128,-1,19
 934 1723 934 1723 995.5 1645 c 128,-1,20
 1057 1567 1057 1567 1086 1457.5 c 128,-1,21
 1115 1348 1115 1348 1115 1216 c 1,22,-1
 859 1216 l 1,23,24
 859 1312 859 1312 846 1384 c 128,-1,25
 833 1456 833 1456 803 1504 c 128,-1,26
 773 1552 773 1552 724 1576 c 128,-1,27
 675 1600 675 1600 603 1600 c 256,28,29
 531 1600 531 1600 482 1576 c 128,-1,30
 433 1552 433 1552 403 1504 c 128,-1,31
 373 1456 373 1456 360 1384 c 128,-1,32
 347 1312 347 1312 347 1216 c 2,33,-1
 347 576 l 2,34,35
 347 504 347 504 360 435 c 128,-1,36
 373 366 373 366 403 312 c 128,-1,37
 433 258 433 258 482 225 c 128,-1,38
 531 192 531 192 603 192 c 256,39,40
 675 192 675 192 724 225 c 128,-1,41
 773 258 773 258 803 312 c 128,-1,42
 833 366 833 366 846 435 c 128,-1,43
 859 504 859 504 859 576 c 2,44,-1
 859 640 l 1,45,-1
 1115 640 l 1,0,-1
EndSplineSet
EndChar

StartChar: D
Encoding: 68 68 39
Width: 1137
GlyphClass: 2
Flags: W
LayerCount: 2
Fore
SplineSet
130 0 m 1,0,-1
 130 1792 l 1,1,-1
 514 1792 l 2,2,3
 658 1792 658 1792 756 1766 c 128,-1,4
 854 1740 854 1740 914 1680 c 128,-1,5
 974 1620 974 1620 1000 1522 c 128,-1,6
 1026 1424 1026 1424 1026 1280 c 2,7,-1
 1026 576 l 2,8,9
 1026 432 1026 432 1000 324 c 128,-1,10
 974 216 974 216 914 144 c 128,-1,11
 854 72 854 72 755.5 36 c 128,-1,12
 657 0 657 0 512 0 c 2,13,-1
 130 0 l 1,0,-1
514 192 m 2,14,15
 610 192 610 192 662 217 c 128,-1,16
 714 242 714 242 738 296 c 128,-1,17
 762 350 762 350 766 435 c 128,-1,18
 770 520 770 520 770 640 c 2,19,-1
 770 1216 l 2,20,21
 770 1312 770 1312 766 1384 c 128,-1,22
 762 1456 762 1456 737.5 1504 c 128,-1,23
 713 1552 713 1552 660 1576 c 128,-1,24
 607 1600 607 1600 509 1600 c 2,25,-1
 386 1600 l 1,26,-1
 386 192 l 1,27,-1
 514 192 l 2,14,15
EndSplineSet
EndChar

StartChar: E
Encoding: 69 69 40
Width: 879
GlyphClass: 2
Flags: W
LayerCount: 2
Fore
SplineSet
706 832 m 1,0,-1
 386 832 l 1,1,-1
 386 192 l 1,2,-1
 834 192 l 1,3,-1
 834 0 l 1,4,-1
 130 0 l 1,5,-1
 130 1792 l 1,6,-1
 834 1792 l 1,7,-1
 834 1600 l 1,8,-1
 386 1600 l 1,9,-1
 386 1024 l 1,10,-1
 706 1024 l 1,11,-1
 706 832 l 1,0,-1
EndSplineSet
EndChar

StartChar: F
Encoding: 70 70 41
Width: 799
GlyphClass: 2
Flags: W
LayerCount: 2
Fore
SplineSet
834 1600 m 1,0,-1
 386 1600 l 1,1,-1
 386 1024 l 1,2,-1
 706 1024 l 1,3,-1
 706 832 l 1,4,-1
 386 832 l 1,5,-1
 386 0 l 1,6,-1
 130 0 l 1,7,-1
 130 1792 l 1,8,-1
 834 1792 l 1,9,-1
 834 1600 l 1,0,-1
EndSplineSet
EndChar

StartChar: G
Encoding: 71 71 42
Width: 1231
GlyphClass: 2
Flags: W
LayerCount: 2
Fore
SplineSet
859 1216 m 1,0,1
 859 1312 859 1312 846 1384 c 128,-1,2
 833 1456 833 1456 803 1504 c 128,-1,3
 773 1552 773 1552 724 1576 c 128,-1,4
 675 1600 675 1600 603 1600 c 256,5,6
 531 1600 531 1600 482 1576 c 128,-1,7
 433 1552 433 1552 403 1504 c 128,-1,8
 373 1456 373 1456 360 1384 c 128,-1,9
 347 1312 347 1312 347 1216 c 2,10,-1
 347 640 l 2,11,12
 347 496 347 496 369 408 c 128,-1,13
 391 320 391 320 427 272 c 128,-1,14
 463 224 463 224 509 208 c 128,-1,15
 555 192 555 192 603 192 c 256,16,17
 651 192 651 192 697 208 c 128,-1,18
 743 224 743 224 779 272 c 128,-1,19
 815 320 815 320 837 408 c 128,-1,20
 859 496 859 496 859 640 c 2,21,-1
 859 704 l 1,22,-1
 603 704 l 1,23,-1
 603 896 l 1,24,-1
 1115 896 l 1,25,-1
 1115 0 l 1,26,-1
 923 0 l 1,27,-1
 859 192 l 1,28,29
 838 133 838 133 803 87 c 0,30,31
 788 67 788 67 768.5 48 c 128,-1,32
 749 29 749 29 724 14.5 c 128,-1,33
 699 0 699 0 669 -9 c 128,-1,34
 639 -18 639 -18 603 -18 c 0,35,36
 523 -18 523 -18 454 -4.5 c 128,-1,37
 385 9 385 9 328 41 c 128,-1,38
 271 73 271 73 227 126 c 128,-1,39
 183 179 183 179 152.5 259 c 128,-1,40
 122 339 122 339 106.5 447 c 128,-1,41
 91 555 91 555 91 698 c 2,42,-1
 91 1152 l 2,43,44
 91 1296 91 1296 117 1417 c 128,-1,45
 143 1538 143 1538 203 1625 c 128,-1,46
 263 1712 263 1712 361 1761 c 128,-1,47
 459 1810 459 1810 603 1810 c 0,48,49
 730 1810 730 1810 825.5 1770.5 c 128,-1,50
 921 1731 921 1731 985.5 1655.5 c 128,-1,51
 1050 1580 1050 1580 1082.5 1469 c 128,-1,52
 1115 1358 1115 1358 1115 1216 c 1,53,-1
 859 1216 l 1,0,1
EndSplineSet
EndChar

StartChar: H
Encoding: 72 72 43
Width: 1217
GlyphClass: 2
Flags: W
LayerCount: 2
Fore
SplineSet
834 832 m 1,0,-1
 386 832 l 1,1,-1
 386 0 l 1,2,-1
 130 0 l 1,3,-1
 130 1792 l 1,4,-1
 386 1792 l 1,5,-1
 386 1024 l 1,6,-1
 834 1024 l 1,7,-1
 834 1792 l 1,8,-1
 1090 1792 l 1,9,-1
 1090 0 l 1,10,-1
 834 0 l 1,11,-1
 834 832 l 1,0,-1
EndSplineSet
EndChar

StartChar: I
Encoding: 73 73 44
Width: 513
GlyphClass: 2
Flags: W
LayerCount: 2
Fore
SplineSet
130 1792 m 1,0,-1
 386 1792 l 1,1,-1
 386 0 l 1,2,-1
 130 0 l 1,3,-1
 130 1792 l 1,0,-1
EndSplineSet
EndChar

StartChar: J
Encoding: 74 74 45
Width: 640
GlyphClass: 2
Flags: W
LayerCount: 2
Fore
SplineSet
519 1792 m 1,0,-1
 519 448 l 2,1,2
 519 328 519 328 504 243 c 128,-1,3
 489 158 489 158 447 104 c 128,-1,4
 405 50 405 50 330 25 c 128,-1,5
 255 0 255 0 135 0 c 2,6,-1
 7 0 l 1,7,-1
 7 192 l 1,8,9
 79 192 79 192 128 196 c 128,-1,10
 177 200 177 200 207 224 c 128,-1,11
 237 248 237 248 250 300 c 128,-1,12
 263 352 263 352 263 448 c 2,13,-1
 263 1792 l 1,14,-1
 519 1792 l 1,0,-1
EndSplineSet
EndChar

StartChar: K
Encoding: 75 75 46
Width: 1139
GlyphClass: 2
Flags: W
LayerCount: 2
Fore
SplineSet
1154 0 m 1,0,-1
 834 0 l 1,1,-1
 514 832 l 1,2,-1
 386 576 l 1,3,-1
 386 0 l 1,4,-1
 130 0 l 1,5,-1
 130 1792 l 1,6,-1
 386 1792 l 1,7,-1
 386 1024 l 1,8,-1
 770 1792 l 1,9,-1
 1090 1792 l 1,10,-1
 705 1088 l 1,11,-1
 1154 0 l 1,0,-1
EndSplineSet
EndChar

StartChar: L
Encoding: 76 76 47
Width: 823
GlyphClass: 2
Flags: W
LayerCount: 2
Fore
SplineSet
130 0 m 1,0,-1
 130 1792 l 1,1,-1
 386 1792 l 1,2,-1
 386 192 l 1,3,-1
 834 192 l 1,4,-1
 834 0 l 1,5,-1
 130 0 l 1,0,-1
EndSplineSet
EndChar

StartChar: M
Encoding: 77 77 48
Width: 1473
GlyphClass: 2
Flags: W
LayerCount: 2
Fore
SplineSet
642 0 m 1,0,-1
 386 1414 l 1,1,-1
 386 0 l 1,2,-1
 130 0 l 1,3,-1
 130 1792 l 1,4,-1
 484 1792 l 1,5,-1
 738 420 l 1,6,-1
 992 1792 l 1,7,-1
 1346 1792 l 1,8,-1
 1346 0 l 1,9,-1
 1090 0 l 1,10,-1
 1090 1414 l 1,11,-1
 834 0 l 1,12,-1
 642 0 l 1,0,-1
EndSplineSet
EndChar

StartChar: N
Encoding: 78 78 49
Width: 1153
GlyphClass: 2
Flags: W
LayerCount: 2
Fore
SplineSet
844 0 m 1,0,-1
 386 1192 l 1,1,-1
 386 0 l 1,2,-1
 130 0 l 1,3,-1
 130 1792 l 1,4,-1
 322 1792 l 1,5,-1
 770 684 l 1,6,-1
 770 1792 l 1,7,-1
 1026 1792 l 1,8,-1
 1026 0 l 1,9,-1
 844 0 l 1,0,-1
EndSplineSet
EndChar

StartChar: O
Encoding: 79 79 50
Width: 1227
GlyphClass: 2
Flags: W
LayerCount: 2
Fore
SplineSet
1119 576 m 2,0,1
 1119 456 1119 456 1094 348 c 128,-1,2
 1069 240 1069 240 1010 159 c 128,-1,3
 951 78 951 78 852.5 30 c 128,-1,4
 754 -18 754 -18 607 -18 c 0,5,6
 507 -18 507 -18 430 4 c 128,-1,7
 353 26 353 26 296.5 65 c 128,-1,8
 240 104 240 104 201 159 c 128,-1,9
 162 214 162 214 138.5 280 c 128,-1,10
 115 346 115 346 105 421 c 128,-1,11
 95 496 95 496 95 576 c 2,12,-1
 95 1216 l 2,13,14
 95 1296 95 1296 105 1371 c 128,-1,15
 115 1446 115 1446 138.5 1512 c 128,-1,16
 162 1578 162 1578 201 1633 c 128,-1,17
 240 1688 240 1688 296.5 1727 c 128,-1,18
 353 1766 353 1766 430 1788 c 128,-1,19
 507 1810 507 1810 607 1810 c 0,20,21
 754 1810 754 1810 852.5 1762 c 128,-1,22
 951 1714 951 1714 1010 1633 c 128,-1,23
 1069 1552 1069 1552 1094 1444 c 128,-1,24
 1119 1336 1119 1336 1119 1216 c 2,25,-1
 1119 576 l 2,0,1
351 512 m 2,26,27
 351 440 351 440 364 381 c 128,-1,28
 377 322 377 322 407 280 c 128,-1,29
 437 238 437 238 486 215 c 128,-1,30
 535 192 535 192 607 192 c 256,31,32
 679 192 679 192 728 215 c 128,-1,33
 777 238 777 238 807 280 c 128,-1,34
 837 322 837 322 850 381 c 128,-1,35
 863 440 863 440 863 512 c 2,36,-1
 863 1280 l 2,37,38
 863 1352 863 1352 850 1411 c 128,-1,39
 837 1470 837 1470 807 1512 c 128,-1,40
 777 1554 777 1554 728 1577 c 128,-1,41
 679 1600 679 1600 607 1600 c 256,42,43
 535 1600 535 1600 486 1577 c 128,-1,44
 437 1554 437 1554 407 1512 c 128,-1,45
 377 1470 377 1470 364 1411 c 128,-1,46
 351 1352 351 1352 351 1280 c 2,47,-1
 351 512 l 2,26,27
EndSplineSet
EndChar

StartChar: P
Encoding: 80 80 51
Width: 1079
GlyphClass: 2
Flags: W
LayerCount: 2
Fore
SplineSet
578 1792 m 2,0,1
 698 1792 698 1792 783 1757 c 128,-1,2
 868 1722 868 1722 922 1656 c 128,-1,3
 976 1590 976 1590 1001 1495 c 128,-1,4
 1026 1400 1026 1400 1026 1280 c 256,5,6
 1026 1160 1026 1160 992 1075 c 128,-1,7
 958 990 958 990 898 936 c 128,-1,8
 838 882 838 882 756 857 c 128,-1,9
 674 832 674 832 578 832 c 2,10,-1
 386 832 l 1,11,-1
 386 0 l 1,12,-1
 130 0 l 1,13,-1
 130 1792 l 1,14,-1
 578 1792 l 2,0,1
450 1024 m 2,15,16
 546 1024 546 1024 608 1037 c 128,-1,17
 670 1050 670 1050 706 1080 c 128,-1,18
 742 1110 742 1110 756 1159 c 128,-1,19
 770 1208 770 1208 770 1280 c 256,20,21
 770 1352 770 1352 765 1411 c 128,-1,22
 760 1470 760 1470 730 1512 c 128,-1,23
 700 1554 700 1554 635 1577 c 128,-1,24
 570 1600 570 1600 450 1600 c 2,25,-1
 386 1600 l 1,26,-1
 386 1024 l 1,27,-1
 450 1024 l 2,15,16
EndSplineSet
EndChar

StartChar: Q
Encoding: 81 81 52
Width: 1229
GlyphClass: 2
Flags: W
LayerCount: 2
Fore
SplineSet
1119 576 m 2,0,1
 1119 456 1119 456 1094 348 c 128,-1,2
 1069 240 1069 240 1010 159 c 0,3,4
 970 104 970 104 911 64 c 1,5,6
 935 40 935 40 971 20 c 128,-1,7
 1007 0 1007 0 1055 0 c 1,8,-1
 1055 -192 l 1,9,10
 1007 -192 1007 -192 964.5 -178 c 128,-1,11
 922 -164 922 -164 883 -139 c 128,-1,12
 844 -114 844 -114 807 -78 c 0,13,14
 773 -45 773 -45 740 -6 c 1,15,16
 679 -18 679 -18 607 -18 c 0,17,18
 507 -18 507 -18 430 4 c 128,-1,19
 353 26 353 26 296.5 65 c 128,-1,20
 240 104 240 104 201 159 c 128,-1,21
 162 214 162 214 138.5 280 c 128,-1,22
 115 346 115 346 105 421 c 128,-1,23
 95 496 95 496 95 576 c 2,24,-1
 95 1216 l 2,25,26
 95 1296 95 1296 105 1371 c 128,-1,27
 115 1446 115 1446 138.5 1512 c 128,-1,28
 162 1578 162 1578 201 1633 c 128,-1,29
 240 1688 240 1688 296.5 1727 c 128,-1,30
 353 1766 353 1766 430 1788 c 128,-1,31
 507 1810 507 1810 607 1810 c 0,32,33
 754 1810 754 1810 852.5 1762 c 128,-1,34
 951 1714 951 1714 1010 1633 c 128,-1,35
 1069 1552 1069 1552 1094 1444 c 128,-1,36
 1119 1336 1119 1336 1119 1216 c 2,37,-1
 1119 576 l 2,0,1
351 512 m 2,38,39
 351 440 351 440 364 381 c 128,-1,40
 377 322 377 322 407 280 c 128,-1,41
 437 238 437 238 486 215 c 128,-1,42
 535 192 535 192 607 192 c 256,43,44
 679 192 679 192 728 215 c 128,-1,45
 777 238 777 238 807 280 c 128,-1,46
 837 322 837 322 850 381 c 128,-1,47
 863 440 863 440 863 512 c 2,48,-1
 863 1280 l 2,49,50
 863 1352 863 1352 850 1411 c 128,-1,51
 837 1470 837 1470 807 1512 c 128,-1,52
 777 1554 777 1554 728 1577 c 128,-1,53
 679 1600 679 1600 607 1600 c 256,54,55
 535 1600 535 1600 486 1577 c 128,-1,56
 437 1554 437 1554 407 1512 c 128,-1,57
 377 1470 377 1470 364 1411 c 128,-1,58
 351 1352 351 1352 351 1280 c 2,59,-1
 351 512 l 2,38,39
EndSplineSet
EndChar

StartChar: R
Encoding: 82 82 53
Width: 1117
GlyphClass: 2
Flags: W
LayerCount: 2
Fore
SplineSet
836 0 m 1,0,-1
 578 832 l 1,1,-1
 386 832 l 1,2,-1
 386 0 l 1,3,-1
 130 0 l 1,4,-1
 130 1792 l 1,5,-1
 450 1792 l 2,6,7
 618 1792 618 1792 729 1757.5 c 128,-1,8
 840 1723 840 1723 906 1660 c 128,-1,9
 972 1597 972 1597 999 1508.5 c 128,-1,10
 1026 1420 1026 1420 1026 1312 c 0,11,12
 1026 1246 1026 1246 1016.5 1193 c 128,-1,13
 1007 1140 1007 1140 991 1098.5 c 128,-1,14
 975 1057 975 1057 955 1025.5 c 128,-1,15
 935 994 935 994 914 972 c 0,16,17
 865 919 865 919 802 896 c 1,18,-1
 1090 0 l 1,19,-1
 836 0 l 1,0,-1
386 1024 m 1,20,-1
 450 1024 l 2,21,22
 522 1024 522 1024 581 1037.5 c 128,-1,23
 640 1051 640 1051 682 1084 c 128,-1,24
 724 1117 724 1117 747 1172.5 c 128,-1,25
 770 1228 770 1228 770 1312 c 256,26,27
 770 1396 770 1396 747 1451.5 c 128,-1,28
 724 1507 724 1507 682 1540 c 128,-1,29
 640 1573 640 1573 581 1586.5 c 128,-1,30
 522 1600 522 1600 450 1600 c 2,31,-1
 386 1600 l 1,32,-1
 386 1024 l 1,20,-1
EndSplineSet
EndChar

StartChar: S
Encoding: 83 83 54
Width: 1113
GlyphClass: 2
Flags: W
LayerCount: 2
Fore
SplineSet
586 -18 m 0,0,1
 490 -18 490 -18 417 4.5 c 128,-1,2
 344 27 344 27 290 64.5 c 128,-1,3
 236 102 236 102 199 149.5 c 128,-1,4
 162 197 162 197 138 247 c 0,5,6
 82 363 82 363 74 512 c 1,7,-1
 330 576 l 1,8,9
 334 468 334 468 362 384 c 0,10,11
 374 348 374 348 392.5 313.5 c 128,-1,12
 411 279 411 279 438 252 c 128,-1,13
 465 225 465 225 501.5 208.5 c 128,-1,14
 538 192 538 192 586 192 c 0,15,16
 778 192 778 192 778 384 c 0,17,18
 778 432 778 432 766 473.5 c 128,-1,19
 754 515 754 515 730 553.5 c 128,-1,20
 706 592 706 592 670 628.5 c 128,-1,21
 634 665 634 665 586 704 c 2,22,-1
 266 960 l 2,23,24
 217 999 217 999 180.5 1048.5 c 128,-1,25
 144 1098 144 1098 120 1153 c 128,-1,26
 96 1208 96 1208 84.5 1265 c 128,-1,27
 73 1322 73 1322 73 1378 c 0,28,29
 73 1464 73 1464 102 1542.5 c 128,-1,30
 131 1621 131 1621 187.5 1680.5 c 128,-1,31
 244 1740 244 1740 328 1775 c 128,-1,32
 412 1810 412 1810 522 1810 c 0,33,34
 618 1810 618 1810 691 1790 c 128,-1,35
 764 1770 764 1770 818 1737 c 128,-1,36
 872 1704 872 1704 909 1662 c 128,-1,37
 946 1620 946 1620 970 1577 c 0,38,39
 1026 1474 1026 1474 1034 1344 c 1,40,-1
 778 1280 l 1,41,42
 774 1370 774 1370 746 1440 c 0,43,44
 734 1470 734 1470 715.5 1498.5 c 128,-1,45
 697 1527 697 1527 670 1549.5 c 128,-1,46
 643 1572 643 1572 606.5 1586 c 128,-1,47
 570 1600 570 1600 522 1600 c 0,48,49
 472 1600 472 1600 435.5 1584.5 c 128,-1,50
 399 1569 399 1569 375.5 1543 c 128,-1,51
 352 1517 352 1517 341 1482 c 128,-1,52
 330 1447 330 1447 330 1408 c 0,53,54
 330 1342 330 1342 361 1273 c 128,-1,55
 392 1204 392 1204 458 1152 c 2,56,-1
 778 896 l 2,57,58
 839 847 839 847 886.5 788.5 c 128,-1,59
 934 730 934 730 967 666 c 128,-1,60
 1000 602 1000 602 1017 534.5 c 128,-1,61
 1034 467 1034 467 1034 401 c 0,62,63
 1034 318 1034 318 1007 242.5 c 128,-1,64
 980 167 980 167 924.5 109 c 128,-1,65
 869 51 869 51 785 16.5 c 128,-1,66
 701 -18 701 -18 586 -18 c 0,0,1
EndSplineSet
EndChar

StartChar: T
Encoding: 84 84 55
Width: 780
GlyphClass: 2
Flags: W
LayerCount: 2
Fore
SplineSet
837 1792 m 1,0,-1
 837 1564 l 1,1,-1
 517 1564 l 1,2,-1
 517 0 l 1,3,-1
 261 0 l 1,4,-1
 261 1564 l 1,5,-1
 -59 1564 l 1,6,-1
 -59 1792 l 1,7,-1
 837 1792 l 1,0,-1
EndSplineSet
EndChar

StartChar: U
Encoding: 85 85 56
Width: 1260
GlyphClass: 2
Flags: W
LayerCount: 2
Fore
SplineSet
631 -19 m 256,0,1
 519 -19 519 -19 437.5 7.5 c 128,-1,2
 356 34 356 34 299 80.5 c 128,-1,3
 242 127 242 127 207 190.5 c 128,-1,4
 172 254 172 254 152.5 327 c 128,-1,5
 133 400 133 400 126 480 c 128,-1,6
 119 560 119 560 119 640 c 2,7,-1
 119 1792 l 1,8,-1
 375 1792 l 1,9,-1
 375 640 l 2,10,11
 375 592 375 592 376 540 c 128,-1,12
 377 488 377 488 384.5 438.5 c 128,-1,13
 392 389 392 389 407 344 c 128,-1,14
 422 299 422 299 450.5 265.5 c 128,-1,15
 479 232 479 232 523 212 c 128,-1,16
 567 192 567 192 631 192 c 256,17,18
 695 192 695 192 739 212 c 128,-1,19
 783 232 783 232 811.5 265.5 c 128,-1,20
 840 299 840 299 855 344 c 128,-1,21
 870 389 870 389 877.5 438.5 c 128,-1,22
 885 488 885 488 886 540 c 128,-1,23
 887 592 887 592 887 640 c 2,24,-1
 887 1792 l 1,25,-1
 1143 1792 l 1,26,-1
 1143 640 l 2,27,28
 1143 560 1143 560 1136 480 c 128,-1,29
 1129 400 1129 400 1109.5 327 c 128,-1,30
 1090 254 1090 254 1055 190.5 c 128,-1,31
 1020 127 1020 127 963 80.5 c 128,-1,32
 906 34 906 34 824.5 7.5 c 128,-1,33
 743 -19 743 -19 631 -19 c 256,0,1
EndSplineSet
EndChar

StartChar: V
Encoding: 86 86 57
Width: 991
GlyphClass: 2
Flags: W
LayerCount: 2
Fore
SplineSet
564 832 m 1,0,-1
 753 1792 l 1,1,-1
 1009 1792 l 1,2,-1
 625 0 l 1,3,-1
 369 0 l 1,4,-1
 -15 1792 l 1,5,-1
 241 1792 l 1,6,-1
 430 832 l 1,7,-1
 496 384 l 1,8,-1
 564 832 l 1,0,-1
EndSplineSet
EndChar

StartChar: W
Encoding: 87 87 58
Width: 1539
GlyphClass: 2
Flags: W
LayerCount: 2
Fore
SplineSet
899 1792 m 1,0,-1
 1027 960 l 1,1,-1
 1090 448 l 1,2,-1
 1155 960 l 1,3,-1
 1283 1792 l 1,4,-1
 1539 1792 l 1,5,-1
 1219 0 l 1,6,-1
 963 0 l 1,7,-1
 835 832 l 1,8,-1
 771 1344 l 1,9,-1
 707 832 l 1,10,-1
 579 0 l 1,11,-1
 323 0 l 1,12,-1
 3 1792 l 1,13,-1
 259 1792 l 1,14,-1
 387 960 l 1,15,-1
 452 448 l 1,16,-1
 515 960 l 1,17,-1
 643 1792 l 1,18,-1
 899 1792 l 1,0,-1
EndSplineSet
EndChar

StartChar: X
Encoding: 88 88 59
Width: 1072
GlyphClass: 2
Flags: W
LayerCount: 2
Fore
SplineSet
543 768 m 1,0,-1
 289 0 l 1,1,-1
 33 0 l 1,2,-1
 351 929 l 1,3,-1
 31 1792 l 1,4,-1
 287 1792 l 1,5,-1
 543 1088 l 1,6,-1
 799 1792 l 1,7,-1
 1055 1792 l 1,8,-1
 735 933 l 1,9,-1
 1051 0 l 1,10,-1
 797 0 l 1,11,-1
 543 768 l 1,0,-1
EndSplineSet
EndChar

StartChar: Y
Encoding: 89 89 60
Width: 903
GlyphClass: 2
Flags: W
LayerCount: 2
Fore
SplineSet
324 0 m 1,0,-1
 324 576 l 1,1,-1
 -60 1792 l 1,2,-1
 196 1792 l 1,3,-1
 452 896 l 1,4,-1
 708 1792 l 1,5,-1
 964 1792 l 1,6,-1
 580 576 l 1,7,-1
 580 0 l 1,8,-1
 324 0 l 1,0,-1
EndSplineSet
EndChar

StartChar: Z
Encoding: 90 90 61
Width: 941
GlyphClass: 2
Flags: W
LayerCount: 2
Fore
SplineSet
316 192 m 1,0,-1
 892 192 l 1,1,-1
 892 0 l 1,2,-1
 60 0 l 1,3,-1
 60 192 l 1,4,-1
 636 1600 l 1,5,-1
 124 1600 l 1,6,-1
 124 1792 l 1,7,-1
 892 1792 l 1,8,-1
 892 1600 l 1,9,-1
 316 192 l 1,0,-1
EndSplineSet
EndChar

StartChar: bracketleft
Encoding: 91 91 62
Width: 615
GlyphClass: 2
Flags: W
LayerCount: 2
Fore
SplineSet
128 1856 m 1,0,-1
 640 1856 l 1,1,-1
 640 1728 l 1,2,-1
 384 1728 l 1,3,-1
 384 64 l 1,4,-1
 640 64 l 1,5,-1
 640 -64 l 1,6,-1
 128 -64 l 1,7,-1
 128 1856 l 1,0,-1
EndSplineSet
EndChar

StartChar: backslash
Encoding: 92 92 63
Width: 530
GlyphClass: 2
Flags: W
LayerCount: 2
Fore
SplineSet
495 0 m 1,0,-1
 239 0 l 1,1,-1
 47 1792 l 1,2,-1
 303 1792 l 1,3,-1
 495 0 l 1,0,-1
EndSplineSet
EndChar

StartChar: bracketright
Encoding: 93 93 64
Width: 632
GlyphClass: 2
Flags: W
LayerCount: 2
Fore
SplineSet
507 -64 m 1,0,-1
 -5 -64 l 1,1,-1
 -5 64 l 1,2,-1
 251 64 l 1,3,-1
 251 1728 l 1,4,-1
 -5 1728 l 1,5,-1
 -5 1856 l 1,6,-1
 507 1856 l 1,7,-1
 507 -64 l 1,0,-1
EndSplineSet
EndChar

StartChar: asciicircum
Encoding: 94 94 65
Width: 802
GlyphClass: 2
Flags: W
LayerCount: 2
Fore
SplineSet
526 1536 m 1,0,-1
 782 896 l 1,1,-1
 526 896 l 1,2,-1
 397 1344 l 1,3,-1
 270 896 l 1,4,-1
 14 896 l 1,5,-1
 270 1536 l 1,6,-1
 526 1536 l 1,0,-1
EndSplineSet
EndChar

StartChar: underscore
Encoding: 95 95 66
Width: 929
GlyphClass: 2
Flags: W
LayerCount: 2
Fore
SplineSet
88 192 m 1,0,-1
 856 192 l 1,1,-1
 856 0 l 1,2,-1
 88 0 l 1,3,-1
 88 192 l 1,0,-1
EndSplineSet
EndChar

StartChar: grave
Encoding: 96 96 67
Width: 463
GlyphClass: 2
Flags: W
LayerCount: 2
Fore
SplineSet
18 1792 m 1,0,-1
 274 1792 l 1,1,-1
 402 1408 l 1,2,-1
 274 1408 l 1,3,-1
 18 1792 l 1,0,-1
EndSplineSet
EndChar

StartChar: a
Encoding: 97 97 68
Width: 953
GlyphClass: 2
Flags: W
LayerCount: 2
Fore
SplineSet
330 -18 m 256,0,1
 282 -18 282 -18 236 7 c 128,-1,2
 190 32 190 32 154 74 c 128,-1,3
 118 116 118 116 96 170 c 128,-1,4
 74 224 74 224 74 283 c 0,5,6
 74 332 74 332 79 377 c 128,-1,7
 84 422 84 422 102 464.5 c 128,-1,8
 120 507 120 507 153.5 548 c 128,-1,9
 187 589 187 589 244 630.5 c 128,-1,10
 301 672 301 672 384.5 715 c 128,-1,11
 468 758 468 758 586 804 c 1,12,-1
 586 896 l 2,13,14
 586 968 586 968 575 1007 c 128,-1,15
 564 1046 564 1046 546 1064 c 128,-1,16
 528 1082 528 1082 505 1085 c 128,-1,17
 482 1088 482 1088 458 1088 c 256,18,19
 434 1088 434 1088 411 1085 c 128,-1,20
 388 1082 388 1082 370 1064 c 128,-1,21
 352 1046 352 1046 341 1007 c 128,-1,22
 330 968 330 968 330 896 c 1,23,-1
 74 896 l 1,24,25
 75 987 75 987 102.5 1061.5 c 128,-1,26
 130 1136 130 1136 180 1188.5 c 128,-1,27
 230 1241 230 1241 300.5 1269.5 c 128,-1,28
 371 1298 371 1298 458 1298 c 0,29,30
 561 1298 561 1298 633.5 1262 c 128,-1,31
 706 1226 706 1226 752.5 1169 c 128,-1,32
 799 1112 799 1112 820.5 1040 c 128,-1,33
 842 968 842 968 842 896 c 2,34,-1
 842 320 l 2,35,36
 842 248 842 248 847 189 c 128,-1,37
 852 130 852 130 858 88 c 0,38,39
 862 63 862 63 866 41.5 c 128,-1,40
 870 20 870 20 875 0 c 1,41,-1
 620 0 l 1,42,-1
 586 192 l 1,43,44
 562 144 562 144 537 105 c 128,-1,45
 512 66 512 66 482 39 c 128,-1,46
 452 12 452 12 415 -3 c 128,-1,47
 378 -18 378 -18 330 -18 c 256,0,1
330 351 m 0,48,49
 330 303 330 303 341 272.5 c 128,-1,50
 352 242 352 242 370 224 c 128,-1,51
 388 206 388 206 411 199 c 128,-1,52
 434 192 434 192 458 192 c 256,53,54
 482 192 482 192 505 206.5 c 128,-1,55
 528 221 528 221 546 239 c 0,56,57
 557 249 557 249 566.5 260.5 c 128,-1,58
 576 272 576 272 586 286 c 1,59,-1
 586 640 l 1,60,61
 521 597 521 597 473 563 c 128,-1,62
 425 529 425 529 393.5 496 c 128,-1,63
 362 463 362 463 346 428.5 c 128,-1,64
 330 394 330 394 330 351 c 0,48,49
EndSplineSet
EndChar

StartChar: b
Encoding: 98 98 69
Width: 1049
GlyphClass: 2
Flags: W
LayerCount: 2
Fore
SplineSet
384 232 m 1,0,1
 441 209 441 209 493 200.5 c 128,-1,2
 545 192 545 192 576 192 c 0,3,4
 615 192 615 192 640 218.5 c 128,-1,5
 665 245 665 245 679 305.5 c 128,-1,6
 693 366 693 366 698.5 464 c 128,-1,7
 704 562 704 562 704 705 c 0,8,9
 704 789 704 789 702 859.5 c 128,-1,10
 700 930 700 930 688 980.5 c 128,-1,11
 676 1031 676 1031 650 1059.5 c 128,-1,12
 624 1088 624 1088 576 1088 c 256,13,14
 528 1088 528 1088 476 1074.5 c 128,-1,15
 424 1061 424 1061 384 1037 c 1,16,-1
 384 232 l 1,0,1
384 1153 m 1,17,18
 433 1205 433 1205 473 1234.5 c 128,-1,19
 513 1264 513 1264 544.5 1278 c 128,-1,20
 576 1292 576 1292 600.5 1295 c 128,-1,21
 625 1298 625 1298 644 1298 c 0,22,23
 734 1298 734 1298 794.5 1259.5 c 128,-1,24
 855 1221 855 1221 891.5 1135 c 128,-1,25
 928 1049 928 1049 944 912 c 128,-1,26
 960 775 960 775 960 577 c 0,27,28
 960 519 960 519 953.5 452.5 c 128,-1,29
 947 386 947 386 932.5 320 c 128,-1,30
 918 254 918 254 893.5 192.5 c 128,-1,31
 869 131 869 131 833.5 84.5 c 128,-1,32
 798 38 798 38 750 10 c 128,-1,33
 702 -18 702 -18 640 -18 c 0,34,35
 603 -18 603 -18 568 -7 c 128,-1,36
 533 4 533 4 500.5 22.5 c 128,-1,37
 468 41 468 41 438.5 65.5 c 128,-1,38
 409 90 409 90 384 116 c 1,39,-1
 384 0 l 1,40,-1
 128 0 l 1,41,-1
 128 1664 l 1,42,-1
 384 1664 l 1,43,-1
 384 1153 l 1,17,18
EndSplineSet
EndChar

StartChar: c
Encoding: 99 99 70
Width: 929
GlyphClass: 2
Flags: W
LayerCount: 2
Fore
SplineSet
456 -18 m 0,0,1
 360 -18 360 -18 294 13 c 128,-1,2
 228 44 228 44 185.5 95.5 c 128,-1,3
 143 147 143 147 120 215 c 128,-1,4
 97 283 97 283 86.5 356 c 128,-1,5
 76 429 76 429 74 502.5 c 128,-1,6
 72 576 72 576 72 640 c 256,7,8
 72 704 72 704 74 777.5 c 128,-1,9
 76 851 76 851 86.5 924 c 128,-1,10
 97 997 97 997 120 1065 c 128,-1,11
 143 1133 143 1133 185.5 1184.5 c 128,-1,12
 228 1236 228 1236 294 1267 c 128,-1,13
 360 1298 360 1298 456 1298 c 0,14,15
 554 1298 554 1298 620.5 1272.5 c 128,-1,16
 687 1247 687 1247 729.5 1206 c 128,-1,17
 772 1165 772 1165 795 1113 c 128,-1,18
 818 1061 818 1061 828 1009.5 c 128,-1,19
 838 958 838 958 839 911 c 128,-1,20
 840 864 840 864 840 832 c 1,21,-1
 584 832 l 1,22,23
 584 848 584 848 583.5 873 c 128,-1,24
 583 898 583 898 580 926.5 c 128,-1,25
 577 955 577 955 569.5 984 c 128,-1,26
 562 1013 562 1013 547.5 1036 c 128,-1,27
 533 1059 533 1059 511 1073.5 c 128,-1,28
 489 1088 489 1088 456 1088 c 0,29,30
 408 1088 408 1088 382 1054 c 128,-1,31
 356 1020 356 1020 344 960 c 128,-1,32
 332 900 332 900 330 818 c 128,-1,33
 328 736 328 736 328 640 c 256,34,35
 328 544 328 544 330 462 c 128,-1,36
 332 380 332 380 344 320 c 128,-1,37
 356 260 356 260 382 226 c 128,-1,38
 408 192 408 192 456 192 c 256,39,40
 504 192 504 192 530 214 c 128,-1,41
 556 236 556 236 568 272 c 128,-1,42
 580 308 580 308 582 354 c 128,-1,43
 584 400 584 400 584 448 c 1,44,-1
 840 448 l 1,45,46
 840 416 840 416 838 369 c 128,-1,47
 836 322 836 322 824.5 270.5 c 128,-1,48
 813 219 813 219 789.5 167 c 128,-1,49
 766 115 766 115 723.5 74 c 128,-1,50
 681 33 681 33 615.5 7.5 c 128,-1,51
 550 -18 550 -18 456 -18 c 0,0,1
EndSplineSet
EndChar

StartChar: d
Encoding: 100 100 71
Width: 1021
GlyphClass: 2
Flags: W
LayerCount: 2
Fore
SplineSet
640 1037 m 1,0,1
 600 1061 600 1061 548 1074.5 c 128,-1,2
 496 1088 496 1088 448 1088 c 256,3,4
 400 1088 400 1088 374 1059.5 c 128,-1,5
 348 1031 348 1031 336 980.5 c 128,-1,6
 324 930 324 930 322 859.5 c 128,-1,7
 320 789 320 789 320 705 c 0,8,9
 320 562 320 562 325.5 464 c 128,-1,10
 331 366 331 366 345 305.5 c 128,-1,11
 359 245 359 245 384 218.5 c 128,-1,12
 409 192 409 192 448 192 c 0,13,14
 479 192 479 192 531 200.5 c 128,-1,15
 583 209 583 209 640 232 c 1,16,-1
 640 1037 l 1,0,1
640 1664 m 1,17,-1
 896 1664 l 1,18,-1
 896 0 l 1,19,-1
 640 0 l 1,20,-1
 640 116 l 1,21,22
 615 90 615 90 585.5 65.5 c 128,-1,23
 556 41 556 41 523.5 22.5 c 128,-1,24
 491 4 491 4 455.5 -7 c 128,-1,25
 420 -18 420 -18 384 -18 c 0,26,27
 322 -18 322 -18 274 10 c 128,-1,28
 226 38 226 38 190.5 84.5 c 128,-1,29
 155 131 155 131 130.5 192.5 c 128,-1,30
 106 254 106 254 91.5 320 c 128,-1,31
 77 386 77 386 70.5 452.5 c 128,-1,32
 64 519 64 519 64 577 c 0,33,34
 64 775 64 775 80 912 c 128,-1,35
 96 1049 96 1049 132.5 1135 c 128,-1,36
 169 1221 169 1221 229.5 1259.5 c 128,-1,37
 290 1298 290 1298 380 1298 c 0,38,39
 399 1298 399 1298 423.5 1295 c 128,-1,40
 448 1292 448 1292 479.5 1278 c 128,-1,41
 511 1264 511 1264 550.5 1235 c 128,-1,42
 590 1206 590 1206 640 1153 c 1,43,-1
 640 1664 l 1,17,-1
EndSplineSet
EndChar

StartChar: e
Encoding: 101 101 72
Width: 930
GlyphClass: 2
Flags: W
LayerCount: 2
Fore
SplineSet
453 -18 m 0,0,1
 357 -18 357 -18 285.5 13.5 c 128,-1,2
 214 45 214 45 166 123 c 128,-1,3
 118 201 118 201 94 334 c 128,-1,4
 70 467 70 467 70 670 c 0,5,6
 70 851 70 851 94 971.5 c 128,-1,7
 118 1092 118 1092 166 1164.5 c 128,-1,8
 214 1237 214 1237 286 1267.5 c 128,-1,9
 358 1298 358 1298 454 1298 c 256,10,11
 550 1298 550 1298 622 1267.5 c 128,-1,12
 694 1237 694 1237 742 1164.5 c 128,-1,13
 790 1092 790 1092 814 971.5 c 128,-1,14
 838 851 838 851 838 670 c 2,15,-1
 838 640 l 1,16,-1
 326 640 l 1,17,-1
 326 576 l 2,18,19
 326 504 326 504 328 435 c 128,-1,20
 330 366 330 366 342 312 c 128,-1,21
 354 258 354 258 380 225 c 128,-1,22
 406 192 406 192 454 192 c 0,23,24
 503 192 503 192 529 214 c 128,-1,25
 555 236 555 236 567 272 c 128,-1,26
 579 308 579 308 581 354 c 128,-1,27
 583 400 583 400 583 448 c 1,28,-1
 838 448 l 1,29,30
 838 208 838 208 742 95 c 128,-1,31
 646 -18 646 -18 453 -18 c 0,0,1
454 1088 m 0,32,33
 406 1088 406 1088 380 1056 c 128,-1,34
 354 1024 354 1024 342 976 c 128,-1,35
 330 928 330 928 328 872 c 128,-1,36
 326 816 326 816 326 768 c 1,37,-1
 582 768 l 1,38,39
 582 816 582 816 580.5 872 c 128,-1,40
 579 928 579 928 567 976 c 128,-1,41
 555 1024 555 1024 529 1056 c 128,-1,42
 503 1088 503 1088 454 1088 c 0,32,33
EndSplineSet
EndChar

StartChar: f
Encoding: 102 102 73
Width: 670
GlyphClass: 2
Flags: W
LayerCount: 2
Fore
SplineSet
159 1088 m 1,0,-1
 31 1088 l 1,1,-1
 31 1280 l 1,2,-1
 159 1280 l 1,3,-1
 159 1329 l 2,4,5
 159 1372 159 1372 159.5 1418.5 c 128,-1,6
 160 1465 160 1465 167.5 1509 c 128,-1,7
 175 1553 175 1553 191.5 1593 c 128,-1,8
 208 1633 208 1633 240.5 1663 c 128,-1,9
 273 1693 273 1693 323.5 1710.5 c 128,-1,10
 374 1728 374 1728 449 1728 c 0,11,12
 485 1728 485 1728 519 1725.5 c 128,-1,13
 553 1723 553 1723 607 1716 c 1,14,-1
 607 1526 l 1,15,16
 589 1528 589 1528 572 1531 c 0,17,18
 558 1533 558 1533 543.5 1534.5 c 128,-1,19
 529 1536 529 1536 521 1536 c 0,20,21
 485 1536 485 1536 463.5 1523 c 128,-1,22
 442 1510 442 1510 431.5 1488 c 128,-1,23
 421 1466 421 1466 418 1437 c 128,-1,24
 415 1408 415 1408 415 1376 c 2,25,-1
 415 1280 l 1,26,-1
 607 1280 l 1,27,-1
 607 1088 l 1,28,-1
 415 1088 l 1,29,-1
 415 0 l 1,30,-1
 159 0 l 1,31,-1
 159 1088 l 1,0,-1
EndSplineSet
EndChar

StartChar: g
Encoding: 103 103 74
Width: 1039
GlyphClass: 2
Flags: W
LayerCount: 2
Fore
SplineSet
967 1088 m 1,0,1
 929 1088 929 1088 900 1078 c 128,-1,2
 871 1068 871 1068 850 1056 c 0,3,4
 837 1049 837 1049 826.5 1041 c 128,-1,5
 816 1033 816 1033 807 1024 c 1,6,7
 815 1001 815 1001 823 968 c 0,8,9
 829 942 829 942 834 907 c 128,-1,10
 839 872 839 872 839 832 c 0,11,12
 839 736 839 736 815 651.5 c 128,-1,13
 791 567 791 567 743 504 c 128,-1,14
 695 441 695 441 623 404.5 c 128,-1,15
 551 368 551 368 455 368 c 0,16,17
 438 368 438 368 416 370 c 0,18,19
 390 372 390 372 374 375 c 2,20,-1
 326 383 l 1,21,22
 320 371 320 371 314.5 363.5 c 128,-1,23
 309 356 309 356 303 343 c 128,-1,24
 297 330 297 330 294 322 c 128,-1,25
 291 314 291 314 291 301 c 0,26,27
 291 271 291 271 320 254.5 c 128,-1,28
 349 238 349 238 400.5 230 c 128,-1,29
 452 222 452 222 509.5 219.5 c 128,-1,30
 567 217 567 217 630 207.5 c 128,-1,31
 693 198 693 198 753.5 181 c 128,-1,32
 814 164 814 164 861.5 134 c 128,-1,33
 909 104 909 104 938 56 c 128,-1,34
 967 8 967 8 967 -64 c 0,35,36
 967 -139 967 -139 942.5 -188.5 c 128,-1,37
 918 -238 918 -238 879 -273.5 c 128,-1,38
 840 -309 840 -309 791 -330.5 c 128,-1,39
 742 -352 742 -352 692 -363.5 c 128,-1,40
 642 -375 642 -375 596.5 -379 c 128,-1,41
 551 -383 551 -383 519 -383 c 0,42,43
 484 -383 484 -383 432 -382 c 128,-1,44
 380 -381 380 -381 323.5 -376 c 128,-1,45
 267 -371 267 -371 210.5 -359 c 128,-1,46
 154 -347 154 -347 108.5 -326 c 128,-1,47
 63 -305 63 -305 35 -272 c 128,-1,48
 7 -239 7 -239 7 -195 c 0,49,50
 7 -171 7 -171 13.5 -136.5 c 128,-1,51
 20 -102 20 -102 44 -52 c 128,-1,52
 68 -2 68 -2 109.5 31.5 c 128,-1,53
 151 65 151 65 199 89 c 1,54,55
 139 106 139 106 105 136 c 128,-1,56
 71 166 71 166 71 194.5 c 128,-1,57
 71 223 71 223 84.5 258.5 c 128,-1,58
 98 294 98 294 117.5 329 c 128,-1,59
 137 364 137 364 159.5 395 c 128,-1,60
 182 426 182 426 199 448 c 1,61,62
 165 488 165 488 140.5 534 c 128,-1,63
 116 580 116 580 100.5 629 c 128,-1,64
 85 678 85 678 78 729.5 c 128,-1,65
 71 781 71 781 71 832 c 0,66,67
 71 952 71 952 104 1040 c 128,-1,68
 137 1128 137 1128 191 1185 c 128,-1,69
 245 1242 245 1242 314 1270 c 128,-1,70
 383 1298 383 1298 455 1298 c 0,71,72
 503 1298 503 1298 542 1290 c 128,-1,73
 581 1282 581 1282 614 1264.5 c 128,-1,74
 647 1247 647 1247 675.5 1218 c 128,-1,75
 704 1189 704 1189 731 1147 c 1,76,77
 744 1171 744 1171 764.5 1197.5 c 128,-1,78
 785 1224 785 1224 814 1246.5 c 128,-1,79
 843 1269 843 1269 881 1283.5 c 128,-1,80
 919 1298 919 1298 967 1298 c 1,81,-1
 967 1088 l 1,0,1
739 -66 m 0,82,83
 725 10 725 10 538 32 c 2,84,-1
 327 57 l 1,85,86
 275 16 275 16 243 -77 c 0,87,88
 233 -107 233 -107 233 -135 c 0,89,90
 233 -159 233 -159 255.5 -172 c 128,-1,91
 278 -185 278 -185 329.5 -188.5 c 128,-1,92
 381 -192 381 -192 426.5 -193 c 128,-1,93
 472 -194 472 -194 519 -194 c 0,94,95
 543 -194 543 -194 581 -192.5 c 128,-1,96
 619 -191 619 -191 655 -182.5 c 128,-1,97
 691 -174 691 -174 717 -151.5 c 128,-1,98
 743 -129 743 -129 743 -99 c 0,99,100
 743 -84 743 -84 739 -66 c 0,82,83
295 832 m 256,101,102
 295 784 295 784 302 735.5 c 128,-1,103
 309 687 309 687 327 648 c 128,-1,104
 345 609 345 609 376 584.5 c 128,-1,105
 407 560 407 560 455 560 c 256,106,107
 503 560 503 560 534 584.5 c 128,-1,108
 565 609 565 609 583 648 c 128,-1,109
 601 687 601 687 608 735.5 c 128,-1,110
 615 784 615 784 615 832 c 256,111,112
 615 880 615 880 608 931 c 128,-1,113
 601 982 601 982 583 1024 c 128,-1,114
 565 1066 565 1066 534 1093 c 128,-1,115
 503 1120 503 1120 455 1120 c 256,116,117
 407 1120 407 1120 376 1093 c 128,-1,118
 345 1066 345 1066 327 1024 c 128,-1,119
 309 982 309 982 302 931 c 128,-1,120
 295 880 295 880 295 832 c 256,101,102
EndSplineSet
EndChar

StartChar: h
Encoding: 104 104 75
Width: 1011
GlyphClass: 2
Flags: W
LayerCount: 2
Fore
SplineSet
130 1792 m 1,0,-1
 386 1792 l 1,1,-1
 386 1142 l 1,2,3
 450 1200 450 1200 501 1232 c 128,-1,4
 552 1264 552 1264 591.5 1278.5 c 128,-1,5
 631 1293 631 1293 661 1295.5 c 128,-1,6
 691 1298 691 1298 714 1298 c 0,7,8
 756 1298 756 1298 790 1280.5 c 128,-1,9
 824 1263 824 1263 848 1234 c 128,-1,10
 872 1205 872 1205 885 1167.5 c 128,-1,11
 898 1130 898 1130 898 1091 c 2,12,-1
 898 0 l 1,13,-1
 642 0 l 1,14,-1
 642 960 l 2,15,16
 642 984 642 984 640.5 1007 c 128,-1,17
 639 1030 639 1030 631 1048 c 128,-1,18
 623 1066 623 1066 605 1077 c 128,-1,19
 587 1088 587 1088 554 1088 c 0,20,21
 505 1088 505 1088 463.5 1065.5 c 128,-1,22
 422 1043 422 1043 386 1013 c 1,23,-1
 386 0 l 1,24,-1
 130 0 l 1,25,-1
 130 1792 l 1,0,-1
EndSplineSet
EndChar

StartChar: i
Encoding: 105 105 76
Width: 511
GlyphClass: 2
Flags: W
LayerCount: 2
Fore
SplineSet
129 1280 m 1,0,-1
 385 1280 l 1,1,-1
 385 0 l 1,2,-1
 129 0 l 1,3,-1
 129 1280 l 1,0,-1
129 1728 m 1,4,-1
 385 1728 l 1,5,-1
 385 1472 l 1,6,-1
 129 1472 l 1,7,-1
 129 1728 l 1,4,-1
EndSplineSet
EndChar

StartChar: j
Encoding: 106 106 77
Width: 493
GlyphClass: 2
Flags: W
LayerCount: 2
Fore
SplineSet
-83 -121 m 1,0,1
 -69 -124 -69 -124 -50 -126 c 128,-1,2
 -31 -128 -31 -128 -19 -128 c 0,3,4
 29 -128 29 -128 55 -109.5 c 128,-1,5
 81 -91 81 -91 93 -66.5 c 128,-1,6
 105 -42 105 -42 107 -17 c 128,-1,7
 109 8 109 8 109 21 c 2,8,-1
 109 1280 l 1,9,-1
 365 1280 l 1,10,-1
 365 -7 l 2,11,12
 365 -84 365 -84 341 -142.5 c 128,-1,13
 317 -201 317 -201 274 -240.5 c 128,-1,14
 231 -280 231 -280 172.5 -300 c 128,-1,15
 114 -320 114 -320 45 -320 c 0,16,17
 32 -320 32 -320 15.5 -319 c 128,-1,18
 -1 -318 -1 -318 -18.5 -316 c 128,-1,19
 -36 -314 -36 -314 -52.5 -311 c 128,-1,20
 -69 -308 -69 -308 -83 -303 c 1,21,-1
 -83 -121 l 1,0,1
109 1728 m 1,22,-1
 365 1728 l 1,23,-1
 365 1472 l 1,24,-1
 109 1472 l 1,25,-1
 109 1728 l 1,22,-1
EndSplineSet
EndChar

StartChar: k
Encoding: 107 107 78
Width: 997
GlyphClass: 2
Flags: W
LayerCount: 2
Fore
SplineSet
386 1792 m 1,0,-1
 386 807 l 1,1,-1
 706 1280 l 1,2,-1
 962 1280 l 1,3,-1
 675 833 l 1,4,-1
 962 0 l 1,5,-1
 706 0 l 1,6,-1
 514 619 l 1,7,-1
 386 448 l 1,8,-1
 386 0 l 1,9,-1
 130 0 l 1,10,-1
 130 1792 l 1,11,-1
 386 1792 l 1,0,-1
EndSplineSet
EndChar

StartChar: l
Encoding: 108 108 79
Width: 513
GlyphClass: 2
Flags: W
LayerCount: 2
Fore
SplineSet
386 0 m 1,0,-1
 130 0 l 1,1,-1
 130 1792 l 1,2,-1
 386 1792 l 1,3,-1
 386 0 l 1,0,-1
EndSplineSet
EndChar

StartChar: m
Encoding: 109 109 80
Width: 1508
GlyphClass: 2
Flags: W
LayerCount: 2
Fore
SplineSet
625 929 m 2,0,1
 625 965 625 965 624 994 c 128,-1,2
 623 1023 623 1023 617 1044 c 128,-1,3
 611 1065 611 1065 598 1076.5 c 128,-1,4
 585 1088 585 1088 561 1088 c 0,5,6
 524 1088 524 1088 490 1075 c 128,-1,7
 456 1062 456 1062 429 1047 c 0,8,9
 413 1038 413 1038 398 1028 c 128,-1,10
 383 1018 383 1018 369 1007 c 1,11,-1
 369 0 l 1,12,-1
 113 0 l 1,13,-1
 113 1280 l 1,14,-1
 369 1280 l 1,15,-1
 369 1135 l 1,16,17
 406 1180 406 1180 456 1216 c 0,18,19
 498 1247 498 1247 556.5 1272.5 c 128,-1,20
 615 1298 615 1298 688 1298 c 0,21,22
 725 1298 725 1298 756.5 1292 c 128,-1,23
 788 1286 788 1286 812.5 1267.5 c 128,-1,24
 837 1249 837 1249 854.5 1216 c 128,-1,25
 872 1183 872 1183 881 1129 c 1,26,27
 929 1192 929 1192 976 1226.5 c 128,-1,28
 1023 1261 1023 1261 1065 1276.5 c 128,-1,29
 1107 1292 1107 1292 1142 1295 c 128,-1,30
 1177 1298 1177 1298 1201 1298 c 0,31,32
 1273 1298 1273 1298 1312 1271.5 c 128,-1,33
 1351 1245 1351 1245 1369 1197 c 128,-1,34
 1387 1149 1387 1149 1390 1081 c 128,-1,35
 1393 1013 1393 1013 1393 931 c 2,36,-1
 1393 0 l 1,37,-1
 1137 0 l 1,38,-1
 1137 934 l 2,39,40
 1137 968 1137 968 1136 996 c 128,-1,41
 1135 1024 1135 1024 1129 1044.5 c 128,-1,42
 1123 1065 1123 1065 1110 1076.5 c 128,-1,43
 1097 1088 1097 1088 1073 1088 c 0,44,45
 1037 1088 1037 1088 1002.5 1074.5 c 128,-1,46
 968 1061 968 1061 941 1045 c 0,47,48
 925 1035 925 1035 910 1024.5 c 128,-1,49
 895 1014 895 1014 881 1002 c 1,50,-1
 881 0 l 1,51,-1
 625 0 l 1,52,-1
 625 929 l 2,0,1
EndSplineSet
EndChar

StartChar: n
Encoding: 110 110 81
Width: 996
GlyphClass: 2
Flags: W
LayerCount: 2
Fore
SplineSet
113 1280 m 1,0,-1
 369 1280 l 1,1,-1
 369 1142 l 1,2,3
 433 1200 433 1200 484 1232 c 128,-1,4
 535 1264 535 1264 574.5 1278.5 c 128,-1,5
 614 1293 614 1293 644 1295.5 c 128,-1,6
 674 1298 674 1298 697 1298 c 0,7,8
 739 1298 739 1298 773 1280.5 c 128,-1,9
 807 1263 807 1263 831 1234 c 128,-1,10
 855 1205 855 1205 868 1167.5 c 128,-1,11
 881 1130 881 1130 881 1091 c 2,12,-1
 881 0 l 1,13,-1
 625 0 l 1,14,-1
 625 960 l 2,15,16
 625 984 625 984 623.5 1007 c 128,-1,17
 622 1030 622 1030 613 1048 c 128,-1,18
 604 1066 604 1066 584.5 1077 c 128,-1,19
 565 1088 565 1088 529 1088 c 0,20,21
 480 1088 480 1088 442.5 1065.5 c 128,-1,22
 405 1043 405 1043 369 1013 c 1,23,-1
 369 0 l 1,24,-1
 113 0 l 1,25,-1
 113 1280 l 1,0,-1
EndSplineSet
EndChar

StartChar: o
Encoding: 111 111 82
Width: 950
GlyphClass: 2
Flags: W
LayerCount: 2
Fore
SplineSet
81 832 m 2,0,1
 81 864 81 864 83 911 c 128,-1,2
 85 958 85 958 95.5 1009.5 c 128,-1,3
 106 1061 106 1061 129 1113 c 128,-1,4
 152 1165 152 1165 194.5 1206 c 128,-1,5
 237 1247 237 1247 303 1272.5 c 128,-1,6
 369 1298 369 1298 465 1298 c 256,7,8
 561 1298 561 1298 627 1272.5 c 128,-1,9
 693 1247 693 1247 735.5 1206 c 128,-1,10
 778 1165 778 1165 801 1113 c 128,-1,11
 824 1061 824 1061 834.5 1009.5 c 128,-1,12
 845 958 845 958 847 911 c 128,-1,13
 849 864 849 864 849 832 c 2,14,-1
 849 448 l 2,15,16
 849 416 849 416 847 369 c 128,-1,17
 845 322 845 322 834.5 270.5 c 128,-1,18
 824 219 824 219 801 167 c 128,-1,19
 778 115 778 115 735.5 74 c 128,-1,20
 693 33 693 33 627 7.5 c 128,-1,21
 561 -18 561 -18 465 -18 c 256,22,23
 369 -18 369 -18 303 7.5 c 128,-1,24
 237 33 237 33 194.5 74 c 128,-1,25
 152 115 152 115 129 167 c 128,-1,26
 106 219 106 219 95.5 270.5 c 128,-1,27
 85 322 85 322 83 369 c 128,-1,28
 81 416 81 416 81 448 c 2,29,-1
 81 832 l 2,0,1
337 448 m 2,30,31
 337 400 337 400 339 354 c 128,-1,32
 341 308 341 308 353 272 c 128,-1,33
 365 236 365 236 391 214 c 128,-1,34
 417 192 417 192 465 192 c 256,35,36
 513 192 513 192 539 214 c 128,-1,37
 565 236 565 236 577 272 c 128,-1,38
 589 308 589 308 591 354 c 128,-1,39
 593 400 593 400 593 448 c 2,40,-1
 593 832 l 2,41,42
 593 880 593 880 591 926 c 128,-1,43
 589 972 589 972 577 1008 c 128,-1,44
 565 1044 565 1044 539 1066 c 128,-1,45
 513 1088 513 1088 465 1088 c 256,46,47
 417 1088 417 1088 391 1066 c 128,-1,48
 365 1044 365 1044 353 1008 c 128,-1,49
 341 972 341 972 339 926 c 128,-1,50
 337 880 337 880 337 832 c 2,51,-1
 337 448 l 2,30,31
EndSplineSet
EndChar

StartChar: p
Encoding: 112 112 83
Width: 1036
GlyphClass: 2
Flags: W
LayerCount: 2
Fore
SplineSet
113 1280 m 1,0,-1
 369 1280 l 1,1,-1
 369 1152 l 1,2,3
 419 1205 419 1205 458.5 1234.5 c 128,-1,4
 498 1264 498 1264 529.5 1278 c 128,-1,5
 561 1292 561 1292 585.5 1295 c 128,-1,6
 610 1298 610 1298 629 1298 c 0,7,8
 719 1298 719 1298 779.5 1259.5 c 128,-1,9
 840 1221 840 1221 876.5 1135 c 128,-1,10
 913 1049 913 1049 929 911.5 c 128,-1,11
 945 774 945 774 945 576 c 0,12,13
 945 518 945 518 938.5 451.5 c 128,-1,14
 932 385 932 385 917.5 319 c 128,-1,15
 903 253 903 253 878.5 192 c 128,-1,16
 854 131 854 131 818.5 84.5 c 128,-1,17
 783 38 783 38 735 10 c 128,-1,18
 687 -18 687 -18 625 -18 c 0,19,20
 589 -18 589 -18 553.5 -7 c 128,-1,21
 518 4 518 4 485.5 22.5 c 128,-1,22
 453 41 453 41 423.5 65 c 128,-1,23
 394 89 394 89 369 115 c 1,24,-1
 369 -384 l 1,25,-1
 113 -384 l 1,26,-1
 113 1280 l 1,0,-1
369 244 m 1,27,28
 426 211 426 211 478 201.5 c 128,-1,29
 530 192 530 192 561 192 c 0,30,31
 600 192 600 192 625 218.5 c 128,-1,32
 650 245 650 245 664 305 c 128,-1,33
 678 365 678 365 683.5 463 c 128,-1,34
 689 561 689 561 689 704 c 0,35,36
 689 788 689 788 683.5 860.5 c 128,-1,37
 678 933 678 933 661.5 986.5 c 128,-1,38
 645 1040 645 1040 615.5 1070.5 c 128,-1,39
 586 1101 586 1101 538 1101 c 256,40,41
 490 1101 490 1101 449.5 1080.5 c 128,-1,42
 409 1060 409 1060 369 1036 c 1,43,-1
 369 244 l 1,27,28
EndSplineSet
EndChar

StartChar: q
Encoding: 113 113 84
Width: 1025
GlyphClass: 2
Flags: W
LayerCount: 2
Fore
SplineSet
901 -384 m 1,0,-1
 645 -384 l 1,1,-1
 645 115 l 1,2,3
 620 89 620 89 590.5 65 c 128,-1,4
 561 41 561 41 528.5 22.5 c 128,-1,5
 496 4 496 4 460.5 -7 c 128,-1,6
 425 -18 425 -18 389 -18 c 0,7,8
 327 -18 327 -18 279 10 c 128,-1,9
 231 38 231 38 195.5 84.5 c 128,-1,10
 160 131 160 131 135.5 192 c 128,-1,11
 111 253 111 253 96.5 319 c 128,-1,12
 82 385 82 385 75.5 451.5 c 128,-1,13
 69 518 69 518 69 576 c 0,14,15
 69 774 69 774 85 911.5 c 128,-1,16
 101 1049 101 1049 137.5 1135 c 128,-1,17
 174 1221 174 1221 234.5 1259.5 c 128,-1,18
 295 1298 295 1298 385 1298 c 0,19,20
 404 1298 404 1298 428.5 1295 c 128,-1,21
 453 1292 453 1292 484.5 1278 c 128,-1,22
 516 1264 516 1264 555.5 1234.5 c 128,-1,23
 595 1205 595 1205 645 1152 c 1,24,-1
 645 1280 l 1,25,-1
 901 1280 l 1,26,-1
 901 -384 l 1,0,-1
645 1036 m 1,27,28
 605 1060 605 1060 564.5 1080.5 c 128,-1,29
 524 1101 524 1101 476 1101 c 256,30,31
 428 1101 428 1101 398.5 1070.5 c 128,-1,32
 369 1040 369 1040 352.5 986.5 c 128,-1,33
 336 933 336 933 330.5 860.5 c 128,-1,34
 325 788 325 788 325 704 c 0,35,36
 325 561 325 561 330.5 463 c 128,-1,37
 336 365 336 365 350 305 c 128,-1,38
 364 245 364 245 389 218.5 c 128,-1,39
 414 192 414 192 453 192 c 0,40,41
 484 192 484 192 536 201.5 c 128,-1,42
 588 211 588 211 645 244 c 1,43,-1
 645 1036 l 1,27,28
EndSplineSet
EndChar

StartChar: r
Encoding: 114 114 85
Width: 750
GlyphClass: 2
Flags: W
LayerCount: 2
Fore
SplineSet
369 1280 m 1,0,-1
 369 1109 l 1,1,-1
 383 1109 l 1,2,3
 402 1146 402 1146 430 1180 c 128,-1,4
 458 1214 458 1214 492 1240 c 128,-1,5
 526 1266 526 1266 565.5 1282 c 128,-1,6
 605 1298 605 1298 648 1298 c 0,7,8
 651 1298 651 1298 657.5 1297.5 c 128,-1,9
 664 1297 664 1297 671 1296 c 2,10,-1
 689 1294 l 1,11,-1
 689 1011 l 1,12,13
 657 1024 657 1024 619 1031.5 c 128,-1,14
 581 1039 581 1039 547 1039 c 0,15,16
 509 1039 509 1039 476.5 1026.5 c 128,-1,17
 444 1014 444 1014 420 991 c 128,-1,18
 396 968 396 968 382.5 935.5 c 128,-1,19
 369 903 369 903 369 864 c 2,20,-1
 369 0 l 1,21,-1
 113 0 l 1,22,-1
 113 1280 l 1,23,-1
 369 1280 l 1,0,-1
EndSplineSet
EndChar

StartChar: s
Encoding: 115 115 86
Width: 910
GlyphClass: 2
Flags: W
LayerCount: 2
Fore
SplineSet
253 384 m 1,0,1
 273 330 273 330 301 288 c 0,2,3
 313 270 313 270 328 252.5 c 128,-1,4
 343 235 343 235 361 221.5 c 128,-1,5
 379 208 379 208 400 200 c 128,-1,6
 421 192 421 192 445 192 c 256,7,8
 469 192 469 192 492 198.5 c 128,-1,9
 515 205 515 205 533 220 c 128,-1,10
 551 235 551 235 562 259.5 c 128,-1,11
 573 284 573 284 573 320 c 256,12,13
 573 356 573 356 563 383.5 c 128,-1,14
 553 411 553 411 541 430 c 0,15,16
 527 452 527 452 509 468 c 1,17,-1
 253 660 l 1,18,19
 191 703 191 703 153 743.5 c 128,-1,20
 115 784 115 784 94.5 821.5 c 128,-1,21
 74 859 74 859 67.5 893.5 c 128,-1,22
 61 928 61 928 61 960 c 0,23,24
 61 1032 61 1032 85 1094 c 128,-1,25
 109 1156 109 1156 157 1201 c 128,-1,26
 205 1246 205 1246 277 1272 c 128,-1,27
 349 1298 349 1298 445 1298 c 0,28,29
 505 1298 505 1298 553.5 1283.5 c 128,-1,30
 602 1269 602 1269 640 1245 c 128,-1,31
 678 1221 678 1221 707 1190.5 c 128,-1,32
 736 1160 736 1160 757 1129 c 0,33,34
 806 1054 806 1054 829 960 c 1,35,-1
 637 896 l 1,36,37
 617 950 617 950 589 992 c 0,38,39
 577 1010 577 1010 562 1027 c 128,-1,40
 547 1044 547 1044 529 1057.5 c 128,-1,41
 511 1071 511 1071 490 1079.5 c 128,-1,42
 469 1088 469 1088 445 1088 c 256,43,44
 421 1088 421 1088 398 1081.5 c 128,-1,45
 375 1075 375 1075 357 1060 c 128,-1,46
 339 1045 339 1045 328 1020.5 c 128,-1,47
 317 996 317 996 317 960 c 0,48,49
 317 936 317 936 327 916 c 128,-1,50
 337 896 337 896 349 882 c 0,51,52
 363 865 363 865 381 852 c 2,53,-1
 637 660 l 1,54,55
 728 587 728 587 778.5 504.5 c 128,-1,56
 829 422 829 422 829 320 c 0,57,58
 829 248 829 248 805 186 c 128,-1,59
 781 124 781 124 733 79 c 128,-1,60
 685 34 685 34 613 8 c 128,-1,61
 541 -18 541 -18 445 -18 c 0,62,63
 385 -18 385 -18 336.5 -3.5 c 128,-1,64
 288 11 288 11 249.5 34.5 c 128,-1,65
 211 58 211 58 182.5 88.5 c 128,-1,66
 154 119 154 119 133 151 c 0,67,68
 84 225 84 225 61 320 c 1,69,-1
 253 384 l 1,0,1
EndSplineSet
EndChar

StartChar: t
Encoding: 116 116 87
Width: 684
GlyphClass: 2
Flags: W
LayerCount: 2
Fore
SplineSet
161 1728 m 1,0,-1
 417 1728 l 1,1,-1
 417 1280 l 1,2,-1
 609 1280 l 1,3,-1
 609 1088 l 1,4,-1
 417 1088 l 1,5,-1
 417 341 l 2,6,7
 417 309 417 309 420 281.5 c 128,-1,8
 423 254 423 254 433.5 234 c 128,-1,9
 444 214 444 214 465.5 203 c 128,-1,10
 487 192 487 192 523 192 c 0,11,12
 531 192 531 192 545.5 193.5 c 128,-1,13
 560 195 560 195 574 197 c 0,14,15
 591 199 591 199 609 202 c 1,16,-1
 609 -6 l 1,17,18
 555 -13 555 -13 521 -15.5 c 128,-1,19
 487 -18 487 -18 451 -18 c 0,20,21
 376 -18 376 -18 325.5 -0.5 c 128,-1,22
 275 17 275 17 242.5 47 c 128,-1,23
 210 77 210 77 193.5 117 c 128,-1,24
 177 157 177 157 169.5 201 c 128,-1,25
 162 245 162 245 161.5 291.5 c 128,-1,26
 161 338 161 338 161 381 c 2,27,-1
 161 1088 l 1,28,-1
 33 1088 l 1,29,-1
 33 1280 l 1,30,-1
 161 1280 l 1,31,-1
 161 1728 l 1,0,-1
EndSplineSet
EndChar

StartChar: u
Encoding: 117 117 88
Width: 994
GlyphClass: 2
Flags: W
LayerCount: 2
Fore
SplineSet
875 0 m 1,0,-1
 619 0 l 1,1,-1
 619 138 l 1,2,3
 554 79 554 79 503.5 47.5 c 128,-1,4
 453 16 453 16 413.5 1.5 c 128,-1,5
 374 -13 374 -13 344 -15.5 c 128,-1,6
 314 -18 314 -18 291 -18 c 0,7,8
 249 -18 249 -18 215 -0.5 c 128,-1,9
 181 17 181 17 157 46 c 128,-1,10
 133 75 133 75 120 112.5 c 128,-1,11
 107 150 107 150 107 189 c 2,12,-1
 107 1280 l 1,13,-1
 363 1280 l 1,14,-1
 363 267 l 2,15,16
 363 225 363 225 388.5 201 c 128,-1,17
 414 177 414 177 451 177 c 0,18,19
 475 177 475 177 497.5 185.5 c 128,-1,20
 520 194 520 194 541 207 c 128,-1,21
 562 220 562 220 581.5 236 c 128,-1,22
 601 252 601 252 619 267 c 1,23,-1
 619 1280 l 1,24,-1
 875 1280 l 1,25,-1
 875 0 l 1,0,-1
EndSplineSet
EndChar

StartChar: v
Encoding: 118 118 89
Width: 878
GlyphClass: 2
Flags: W
LayerCount: 2
Fore
SplineSet
296 0 m 1,0,-1
 8 1280 l 1,1,-1
 264 1280 l 1,2,-1
 424 320 l 1,3,-1
 584 1280 l 1,4,-1
 840 1280 l 1,5,-1
 554 0 l 1,6,-1
 296 0 l 1,0,-1
EndSplineSet
EndChar

StartChar: w
Encoding: 119 119 90
Width: 1337
GlyphClass: 2
Flags: W
LayerCount: 2
Fore
SplineSet
655 832 m 1,0,-1
 527 0 l 1,1,-1
 271 0 l 1,2,-1
 15 1280 l 1,3,-1
 271 1280 l 1,4,-1
 399 448 l 1,5,-1
 527 1280 l 1,6,-1
 781 1280 l 1,7,-1
 909 448 l 1,8,-1
 1037 1280 l 1,9,-1
 1293 1280 l 1,10,-1
 1037 0 l 1,11,-1
 781 0 l 1,12,-1
 655 832 l 1,0,-1
EndSplineSet
EndChar

StartChar: x
Encoding: 120 120 91
Width: 939
GlyphClass: 2
Flags: W
LayerCount: 2
Fore
SplineSet
308 640 m 1,0,-1
 308 704 l 1,1,-1
 52 1280 l 1,2,-1
 308 1280 l 1,3,-1
 436 896 l 1,4,-1
 468 768 l 1,5,-1
 500 896 l 1,6,-1
 628 1280 l 1,7,-1
 884 1280 l 1,8,-1
 628 704 l 1,9,-1
 628 640 l 1,10,-1
 884 0 l 1,11,-1
 628 0 l 1,12,-1
 500 384 l 1,13,-1
 468 512 l 1,14,-1
 436 384 l 1,15,-1
 308 0 l 1,16,-1
 52 0 l 1,17,-1
 308 640 l 1,0,-1
EndSplineSet
EndChar

StartChar: y
Encoding: 121 121 92
Width: 869
GlyphClass: 2
Flags: W
LayerCount: 2
Fore
SplineSet
421 384 m 1,0,-1
 452 576 l 1,1,-1
 580 1280 l 1,2,-1
 836 1280 l 1,3,-1
 516 -64 l 2,4,5
 499 -138 499 -138 463 -187.5 c 128,-1,6
 427 -237 427 -237 371 -266.5 c 128,-1,7
 315 -296 315 -296 239.5 -308 c 128,-1,8
 164 -320 164 -320 68 -320 c 1,9,-1
 68 -128 l 1,10,11
 127 -128 127 -128 168.5 -114 c 128,-1,12
 210 -100 210 -100 236 -75.5 c 128,-1,13
 262 -51 262 -51 273.5 -17.5 c 128,-1,14
 285 16 285 16 285 56 c 0,15,16
 285 73 285 73 283.5 91 c 128,-1,17
 282 109 282 109 277 128 c 2,18,-1
 4 1280 l 1,19,-1
 260 1280 l 1,20,-1
 388 576 l 1,21,-1
 421 384 l 1,0,-1
EndSplineSet
EndChar

StartChar: z
Encoding: 122 122 93
Width: 843
GlyphClass: 2
Flags: W
LayerCount: 2
Fore
SplineSet
501 1088 m 1,0,-1
 117 1088 l 1,1,-1
 117 1280 l 1,2,-1
 757 1280 l 1,3,-1
 757 1088 l 1,4,-1
 309 192 l 1,5,-1
 757 192 l 1,6,-1
 757 0 l 1,7,-1
 53 0 l 1,8,-1
 53 192 l 1,9,-1
 501 1088 l 1,0,-1
EndSplineSet
EndChar

StartChar: braceleft
Encoding: 123 123 94
Width: 610
GlyphClass: 2
Flags: W
LayerCount: 2
Fore
SplineSet
411 1408 m 0,0,1
 411 1324 411 1324 402.5 1257.5 c 128,-1,2
 394 1191 394 1191 380.5 1139 c 128,-1,3
 367 1087 367 1087 350 1049 c 128,-1,4
 333 1011 333 1011 315 984 c 0,5,6
 273 921 273 921 219 896 c 1,7,8
 273 873 273 873 315 824 c 0,9,10
 333 803 333 803 350 774 c 128,-1,11
 367 745 367 745 380.5 707 c 128,-1,12
 394 669 394 669 402.5 620.5 c 128,-1,13
 411 572 411 572 411 512 c 0,14,15
 411 398 411 398 420 323.5 c 128,-1,16
 429 249 429 249 450.5 205.5 c 128,-1,17
 472 162 472 162 509 145 c 128,-1,18
 546 128 546 128 603 128 c 1,19,-1
 603 -64 l 1,20,21
 494 -64 494 -64 410.5 -40 c 128,-1,22
 327 -16 327 -16 270 48.5 c 128,-1,23
 213 113 213 113 184 224.5 c 128,-1,24
 155 336 155 336 155 512 c 0,25,26
 155 605 155 605 149.5 656.5 c 128,-1,27
 144 708 144 708 129.5 733 c 128,-1,28
 115 758 115 758 90.5 763 c 128,-1,29
 66 768 66 768 27 768 c 1,30,-1
 27 1024 l 1,31,32
 66 1024 66 1024 90.5 1041 c 128,-1,33
 115 1058 115 1058 129.5 1101.5 c 128,-1,34
 144 1145 144 1145 149.5 1219.5 c 128,-1,35
 155 1294 155 1294 155 1408 c 0,36,37
 155 1511 155 1511 168 1584 c 128,-1,38
 181 1657 181 1657 206.5 1707 c 128,-1,39
 232 1757 232 1757 270 1786.5 c 128,-1,40
 308 1816 308 1816 357.5 1831.5 c 128,-1,41
 407 1847 407 1847 468.5 1851.5 c 128,-1,42
 530 1856 530 1856 603 1856 c 1,43,-1
 603 1664 l 1,44,45
 546 1664 546 1664 509 1659 c 128,-1,46
 472 1654 472 1654 450.5 1629 c 128,-1,47
 429 1604 429 1604 420 1552.5 c 128,-1,48
 411 1501 411 1501 411 1408 c 0,0,1
EndSplineSet
EndChar

StartChar: bar
Encoding: 124 124 95
Width: 447
GlyphClass: 2
Flags: W
LayerCount: 2
Fore
SplineSet
128 1920 m 1,0,-1
 320 1920 l 1,1,-1
 320 -128 l 1,2,-1
 128 -128 l 1,3,-1
 128 1920 l 1,0,-1
EndSplineSet
EndChar

StartChar: braceright
Encoding: 125 125 96
Width: 626
GlyphClass: 2
Flags: W
LayerCount: 2
Fore
SplineSet
219 1408 m 0,0,1
 219 1501 219 1501 210 1552.5 c 128,-1,2
 201 1604 201 1604 179.5 1629 c 128,-1,3
 158 1654 158 1654 121 1659 c 128,-1,4
 84 1664 84 1664 27 1664 c 1,5,-1
 27 1856 l 1,6,7
 100 1856 100 1856 161.5 1851.5 c 128,-1,8
 223 1847 223 1847 272.5 1831.5 c 128,-1,9
 322 1816 322 1816 360 1786.5 c 128,-1,10
 398 1757 398 1757 423.5 1707 c 128,-1,11
 449 1657 449 1657 462 1584 c 128,-1,12
 475 1511 475 1511 475 1408 c 0,13,14
 475 1294 475 1294 480.5 1219.5 c 128,-1,15
 486 1145 486 1145 500.5 1101.5 c 128,-1,16
 515 1058 515 1058 539.5 1041 c 128,-1,17
 564 1024 564 1024 603 1024 c 1,18,-1
 603 768 l 1,19,20
 564 768 564 768 539.5 763 c 128,-1,21
 515 758 515 758 500.5 733 c 128,-1,22
 486 708 486 708 480.5 656.5 c 128,-1,23
 475 605 475 605 475 512 c 0,24,25
 475 336 475 336 446 224.5 c 128,-1,26
 417 113 417 113 360 48.5 c 128,-1,27
 303 -16 303 -16 219.5 -40 c 128,-1,28
 136 -64 136 -64 27 -64 c 1,29,-1
 27 128 l 1,30,31
 84 128 84 128 121 145 c 128,-1,32
 158 162 158 162 179.5 205.5 c 128,-1,33
 201 249 201 249 210 323.5 c 128,-1,34
 219 398 219 398 219 512 c 0,35,36
 219 572 219 572 227 620.5 c 128,-1,37
 235 669 235 669 248.5 707 c 128,-1,38
 262 745 262 745 279.5 774 c 128,-1,39
 297 803 297 803 315 824 c 0,40,41
 357 873 357 873 411 896 c 1,42,43
 357 921 357 921 315 984 c 0,44,45
 297 1011 297 1011 279.5 1049 c 128,-1,46
 262 1087 262 1087 248.5 1139 c 128,-1,47
 235 1191 235 1191 227 1257.5 c 128,-1,48
 219 1324 219 1324 219 1408 c 0,0,1
EndSplineSet
EndChar

StartChar: asciitilde
Encoding: 126 126 97
Width: 854
GlyphClass: 2
Flags: W
LayerCount: 2
Fore
SplineSet
301.5 1105 m 0,0,1
 340.5 1105 340.5 1105 380 1091.5 c 128,-1,2
 419.5 1078 419.5 1078 456.5 1062 c 128,-1,3
 493.5 1046 493.5 1046 526 1032.5 c 128,-1,4
 558.5 1019 558.5 1019 582.5 1019 c 0,5,6
 605.5 1019 605.5 1019 619.5 1034.5 c 128,-1,7
 633.5 1050 633.5 1050 633.5 1088 c 1,8,-1
 786.5 1088 l 1,9,10
 787.5 1083 787.5 1083 786.5 1060.5 c 128,-1,11
 785.5 1038 785.5 1038 779.5 1007 c 128,-1,12
 773.5 976 773.5 976 760.5 942 c 128,-1,13
 747.5 908 747.5 908 723 879 c 128,-1,14
 698.5 850 698.5 850 660.5 831 c 128,-1,15
 622.5 812 622.5 812 567.5 812 c 0,16,17
 525.5 812 525.5 812 484.5 825.5 c 128,-1,18
 443.5 839 443.5 839 407 855.5 c 128,-1,19
 370.5 872 370.5 872 339 885.5 c 128,-1,20
 307.5 899 307.5 899 283.5 899 c 0,21,22
 260.5 899 260.5 899 248 884.5 c 128,-1,23
 235.5 870 235.5 870 235.5 832 c 1,24,-1
 82.5 832 l 1,25,26
 81.5 838 81.5 838 82.5 860.5 c 128,-1,27
 83.5 883 83.5 883 89.5 913 c 128,-1,28
 95.5 943 95.5 943 108.5 977 c 128,-1,29
 121.5 1011 121.5 1011 146 1039.5 c 128,-1,30
 170.5 1068 170.5 1068 208.5 1086.5 c 128,-1,31
 246.5 1105 246.5 1105 301.5 1105 c 0,0,1
EndSplineSet
EndChar

StartChar: exclamdown
Encoding: 161 161 98
Width: 458
GlyphClass: 2
Flags: W
LayerCount: 2
Fore
SplineSet
167 1152 m 1,0,-1
 295 1152 l 1,1,-1
 359 0 l 1,2,-1
 103 0 l 1,3,-1
 167 1152 l 1,0,-1
103 1536 m 1,4,-1
 359 1536 l 1,5,-1
 359 1280 l 1,6,-1
 103 1280 l 1,7,-1
 103 1536 l 1,4,-1
EndSplineSet
EndChar

StartChar: cent
Encoding: 162 162 99
Width: 842
GlyphClass: 2
Flags: W
LayerCount: 2
Fore
SplineSet
368 -15 m 1,0,1
 292 -8 292 -8 239 15.5 c 128,-1,2
 186 39 186 39 150.5 76.5 c 128,-1,3
 115 114 115 114 94.5 163 c 128,-1,4
 74 212 74 212 63.5 270.5 c 128,-1,5
 53 329 53 329 50.5 395 c 128,-1,6
 48 461 48 461 48 532 c 2,7,-1
 48 733 l 2,8,9
 48 796 48 796 50.5 859.5 c 128,-1,10
 53 923 53 923 63.5 982.5 c 128,-1,11
 74 1042 74 1042 94.5 1095 c 128,-1,12
 115 1148 115 1148 150.5 1189.5 c 128,-1,13
 186 1231 186 1231 239 1258.5 c 128,-1,14
 292 1286 292 1286 368 1294 c 1,15,-1
 368 1408 l 1,16,-1
 496 1408 l 1,17,-1
 496 1294 l 1,18,19
 578 1284 578 1284 633.5 1253 c 128,-1,20
 689 1222 689 1222 724.5 1178.5 c 128,-1,21
 760 1135 760 1135 778.5 1084 c 128,-1,22
 797 1033 797 1033 805.5 985 c 128,-1,23
 814 937 814 937 815 896 c 128,-1,24
 816 855 816 855 816 831 c 1,25,-1
 560 832 l 1,26,27
 560 869 560 869 559 906 c 128,-1,28
 558 943 558 943 552 975.5 c 128,-1,29
 546 1008 546 1008 533 1033.5 c 128,-1,30
 520 1059 520 1059 496 1073 c 1,31,-1
 496 207 l 1,32,33
 520 222 520 222 533 248 c 128,-1,34
 546 274 546 274 552 309 c 128,-1,35
 558 344 558 344 559 385.5 c 128,-1,36
 560 427 560 427 560 473 c 1,37,-1
 816 473 l 1,38,39
 816 470 816 470 816.5 458.5 c 128,-1,40
 817 447 817 447 817 430 c 0,41,42
 817 401 817 401 813.5 360 c 128,-1,43
 810 319 810 319 799 272.5 c 128,-1,44
 788 226 788 226 767 179 c 128,-1,45
 746 132 746 132 710.5 92 c 128,-1,46
 675 52 675 52 622.5 23.5 c 128,-1,47
 570 -5 570 -5 496 -14 c 1,48,-1
 496 -128 l 1,49,-1
 368 -128 l 1,50,-1
 368 -15 l 1,0,1
304 640 m 0,51,52
 304 535 304 535 305 459.5 c 128,-1,53
 306 384 306 384 312 332 c 128,-1,54
 318 280 318 280 331 250 c 128,-1,55
 344 220 344 220 368 206 c 1,56,-1
 368 1071 l 1,57,58
 344 1054 344 1054 331 1020.5 c 128,-1,59
 318 987 318 987 312 934 c 128,-1,60
 306 881 306 881 305 808 c 128,-1,61
 304 735 304 735 304 640 c 0,51,52
EndSplineSet
EndChar

StartChar: sterling
Encoding: 163 163 100
Width: 921
GlyphClass: 2
Flags: W
LayerCount: 2
Fore
SplineSet
55 960 m 1,0,-1
 183 960 l 1,1,-1
 183 1152 l 2,2,3
 183 1216 183 1216 185 1289.5 c 128,-1,4
 187 1363 187 1363 197.5 1436 c 128,-1,5
 208 1509 208 1509 231 1577 c 128,-1,6
 254 1645 254 1645 296.5 1696.5 c 128,-1,7
 339 1748 339 1748 405 1779 c 128,-1,8
 471 1810 471 1810 567 1810 c 0,9,10
 650 1810 650 1810 706 1784.5 c 128,-1,11
 762 1759 762 1759 797.5 1718 c 128,-1,12
 833 1677 833 1677 851.5 1625 c 128,-1,13
 870 1573 870 1573 878 1521.5 c 128,-1,14
 886 1470 886 1470 886.5 1423 c 128,-1,15
 887 1376 887 1376 887 1344 c 1,16,-1
 695 1344 l 1,17,18
 695 1360 695 1360 694.5 1385 c 128,-1,19
 694 1410 694 1410 691 1438.5 c 128,-1,20
 688 1467 688 1467 680.5 1496 c 128,-1,21
 673 1525 673 1525 658.5 1548 c 128,-1,22
 644 1571 644 1571 622 1585.5 c 128,-1,23
 600 1600 600 1600 567 1600 c 0,24,25
 519 1600 519 1600 493 1566 c 128,-1,26
 467 1532 467 1532 455 1472 c 128,-1,27
 443 1412 443 1412 441 1330 c 128,-1,28
 439 1248 439 1248 439 1152 c 2,29,-1
 439 960 l 1,30,-1
 695 960 l 1,31,-1
 695 768 l 1,32,-1
 439 768 l 1,33,-1
 439 192 l 1,34,-1
 887 192 l 1,35,-1
 887 0 l 1,36,-1
 55 0 l 1,37,-1
 55 128 l 1,38,-1
 183 191 l 1,39,-1
 183 768 l 1,40,-1
 55 768 l 1,41,-1
 55 960 l 1,0,-1
EndSplineSet
EndChar

StartChar: currency
Encoding: 164 164 101
Width: 990
GlyphClass: 2
Flags: W
LayerCount: 2
Fore
SplineSet
495 1280 m 256,0,1
 568 1280 568 1280 625 1263 c 128,-1,2
 682 1246 682 1246 726 1217 c 1,3,-1
 812 1303 l 1,4,-1
 902 1213 l 1,5,-1
 815 1126 l 1,6,7
 848 1076 848 1076 863.5 1017 c 128,-1,8
 879 958 879 958 879 897 c 0,9,10
 879 835 879 835 863.5 775.5 c 128,-1,11
 848 716 848 716 815 665 c 1,12,-1
 902 579 l 1,13,-1
 812 489 l 1,14,-1
 726 575 l 1,15,16
 682 546 682 546 625 529 c 128,-1,17
 568 512 568 512 495 512 c 256,18,19
 422 512 422 512 365 529 c 128,-1,20
 308 546 308 546 264 575 c 1,21,-1
 178 489 l 1,22,-1
 88 579 l 1,23,-1
 174 665 l 1,24,25
 141 716 141 716 126 775.5 c 128,-1,26
 111 835 111 835 111 897 c 0,27,28
 111 958 111 958 126 1017 c 128,-1,29
 141 1076 141 1076 174 1127 c 1,30,-1
 88 1213 l 1,31,-1
 178 1303 l 1,32,-1
 264 1217 l 1,33,34
 308 1246 308 1246 365 1263 c 128,-1,35
 422 1280 422 1280 495 1280 c 256,0,1
495 682 m 256,36,37
 545 682 545 682 581.5 700.5 c 128,-1,38
 618 719 618 719 641.5 749 c 128,-1,39
 665 779 665 779 676 817.5 c 128,-1,40
 687 856 687 856 687 896 c 256,41,42
 687 936 687 936 676 974.5 c 128,-1,43
 665 1013 665 1013 641.5 1043 c 128,-1,44
 618 1073 618 1073 582 1091.5 c 128,-1,45
 546 1110 546 1110 495 1110 c 256,46,47
 444 1110 444 1110 408 1092 c 128,-1,48
 372 1074 372 1074 348.5 1044 c 128,-1,49
 325 1014 325 1014 314 975.5 c 128,-1,50
 303 937 303 937 303 897 c 256,51,52
 303 857 303 857 314 818.5 c 128,-1,53
 325 780 325 780 348.5 749.5 c 128,-1,54
 372 719 372 719 408.5 700.5 c 128,-1,55
 445 682 445 682 495 682 c 256,36,37
EndSplineSet
EndChar

StartChar: yen
Encoding: 165 165 102
Width: 897
GlyphClass: 2
Flags: W
LayerCount: 2
Fore
SplineSet
328 0 m 1,0,-1
 328 256 l 1,1,-1
 136 256 l 1,2,-1
 136 424 l 1,3,-1
 328 424 l 1,4,-1
 328 553 l 1,5,-1
 136 553 l 1,6,-1
 136 719 l 1,7,-1
 285 719 l 1,8,-1
 -8 1792 l 1,9,-1
 252 1792 l 1,10,-1
 456 848 l 1,11,-1
 658 1792 l 1,12,-1
 918 1792 l 1,13,-1
 623 719 l 1,14,-1
 776 719 l 1,15,-1
 776 553 l 1,16,-1
 584 553 l 1,17,-1
 584 424 l 1,18,-1
 776 424 l 1,19,-1
 776 256 l 1,20,-1
 584 256 l 1,21,-1
 584 0 l 1,22,-1
 328 0 l 1,0,-1
EndSplineSet
EndChar

StartChar: brokenbar
Encoding: 166 166 103
Width: 435
GlyphClass: 2
Flags: W
LayerCount: 2
Fore
SplineSet
116 614 m 1,0,-1
 319 614 l 1,1,-1
 319 -14 l 1,2,-1
 116 -14 l 1,3,-1
 116 614 l 1,0,-1
116 1518 m 1,4,-1
 319 1518 l 1,5,-1
 319 889 l 1,6,-1
 116 889 l 1,7,-1
 116 1518 l 1,4,-1
EndSplineSet
EndChar

StartChar: section
Encoding: 167 167 104
Width: 918
GlyphClass: 2
Flags: W
LayerCount: 2
Fore
SplineSet
268 385 m 1,0,1
 279 354 279 354 296.5 320.5 c 128,-1,2
 314 287 314 287 338 258.5 c 128,-1,3
 362 230 362 230 392 211.5 c 128,-1,4
 422 193 422 193 460 193 c 0,5,6
 484 193 484 193 507 199.5 c 128,-1,7
 530 206 530 206 548 221 c 128,-1,8
 566 236 566 236 577 260.5 c 128,-1,9
 588 285 588 285 588 321 c 0,10,11
 588 379 588 379 567.5 417 c 128,-1,12
 547 455 547 455 524 469 c 2,13,-1
 268 625 l 2,14,15
 203 664 203 664 165 704 c 128,-1,16
 127 744 127 744 107.5 782.5 c 128,-1,17
 88 821 88 821 82 857 c 128,-1,18
 76 893 76 893 76 925 c 0,19,20
 76 1026 76 1026 122 1105 c 128,-1,21
 168 1184 168 1184 262 1226 c 1,22,23
 202 1261 202 1261 165 1294 c 128,-1,24
 128 1327 128 1327 108.5 1358 c 128,-1,25
 89 1389 89 1389 82.5 1417.5 c 128,-1,26
 76 1446 76 1446 76 1472 c 0,27,28
 76 1544 76 1544 100 1606 c 128,-1,29
 124 1668 124 1668 172 1713 c 128,-1,30
 220 1758 220 1758 292 1784 c 128,-1,31
 364 1810 364 1810 460 1810 c 256,32,33
 556 1810 556 1810 623 1776.5 c 128,-1,34
 690 1743 690 1743 735 1692 c 128,-1,35
 780 1641 780 1641 806 1582 c 128,-1,36
 832 1523 832 1523 844 1472 c 1,37,-1
 652 1408 l 1,38,39
 641 1437 641 1437 624.5 1470.5 c 128,-1,40
 608 1504 608 1504 584 1533 c 128,-1,41
 560 1562 560 1562 529.5 1581 c 128,-1,42
 499 1600 499 1600 460 1600 c 0,43,44
 436 1600 436 1600 413 1593.5 c 128,-1,45
 390 1587 390 1587 372 1572 c 128,-1,46
 354 1557 354 1557 343 1532.5 c 128,-1,47
 332 1508 332 1508 332 1472 c 0,48,49
 332 1434 332 1434 353.5 1407 c 128,-1,50
 375 1380 375 1380 396 1364 c 1,51,52
 543 1283 543 1283 631.5 1216.5 c 128,-1,53
 720 1150 720 1150 767 1092.5 c 128,-1,54
 814 1035 814 1035 829 984 c 128,-1,55
 844 933 844 933 844 882 c 0,56,57
 844 789 844 789 804.5 715 c 128,-1,58
 765 641 765 641 686 596 c 1,59,60
 761 537 761 537 802.5 469 c 128,-1,61
 844 401 844 401 844 321 c 0,62,63
 844 249 844 249 820 187 c 128,-1,64
 796 125 796 125 748 80 c 128,-1,65
 700 35 700 35 628 9 c 128,-1,66
 556 -17 556 -17 460 -17 c 0,67,68
 400 -17 400 -17 351.5 -2.5 c 128,-1,69
 303 12 303 12 264.5 35.5 c 128,-1,70
 226 59 226 59 197.5 89.5 c 128,-1,71
 169 120 169 120 148 152 c 0,72,73
 99 225 99 225 76 321 c 1,74,-1
 268 385 l 1,0,1
588 882 m 0,75,76
 588 896 588 896 581 912 c 128,-1,77
 574 928 574 928 563 944 c 128,-1,78
 552 960 552 960 537.5 975.5 c 128,-1,79
 523 991 523 991 508 1006 c 0,80,81
 473 1039 473 1039 428 1074 c 1,82,83
 401 1057 401 1057 380 1035 c 0,84,85
 362 1016 362 1016 347 988.5 c 128,-1,86
 332 961 332 961 332 925 c 0,87,88
 332 887 332 887 353 859 c 128,-1,89
 374 831 374 831 396 817 c 2,90,-1
 492 754 l 1,91,92
 519 767 519 767 540 785 c 0,93,94
 558 801 558 801 573 825 c 128,-1,95
 588 849 588 849 588 882 c 0,75,76
EndSplineSet
EndChar

StartChar: dieresis
Encoding: 168 168 105
Width: 814
GlyphClass: 2
Flags: W
LayerCount: 2
Fore
SplineSet
97 1792 m 1,0,-1
 353 1792 l 1,1,-1
 353 1536 l 1,2,-1
 97 1536 l 1,3,-1
 97 1792 l 1,0,-1
481 1792 m 1,4,-1
 737 1792 l 1,5,-1
 737 1536 l 1,6,-1
 481 1536 l 1,7,-1
 481 1792 l 1,4,-1
EndSplineSet
EndChar

StartChar: copyright
Encoding: 169 169 106
Width: 1395
GlyphClass: 2
Flags: W
LayerCount: 2
Fore
SplineSet
706 217 m 0,0,1
 633 217 633 217 582.5 237.5 c 128,-1,2
 532 258 532 258 499.5 293.5 c 128,-1,3
 467 329 467 329 449.5 377 c 128,-1,4
 432 425 432 425 424 481.5 c 128,-1,5
 416 538 416 538 414.5 599.5 c 128,-1,6
 413 661 413 661 413 723 c 0,7,8
 413 776 413 776 415 830 c 128,-1,9
 417 884 417 884 426 935 c 128,-1,10
 435 986 435 986 453.5 1030.5 c 128,-1,11
 472 1075 472 1075 505 1108.5 c 128,-1,12
 538 1142 538 1142 588.5 1161 c 128,-1,13
 639 1180 639 1180 712 1180 c 0,14,15
 782 1180 782 1180 830.5 1160 c 128,-1,16
 879 1140 879 1140 910 1108 c 128,-1,17
 941 1076 941 1076 958 1037 c 128,-1,18
 975 998 975 998 982.5 960.5 c 128,-1,19
 990 923 990 923 991.5 890.5 c 128,-1,20
 993 858 993 858 993 840 c 1,21,-1
 810 840 l 1,22,23
 810 885 810 885 805.5 921.5 c 128,-1,24
 801 958 801 958 789.5 983.5 c 128,-1,25
 778 1009 778 1009 759.5 1022.5 c 128,-1,26
 741 1036 741 1036 714 1036 c 0,27,28
 679 1036 679 1036 655.5 1028.5 c 128,-1,29
 632 1021 632 1021 618 989.5 c 128,-1,30
 604 958 604 958 598.5 895 c 128,-1,31
 593 832 593 832 593 721 c 0,32,33
 593 622 593 622 595.5 554 c 128,-1,34
 598 486 598 486 609.5 444 c 128,-1,35
 621 402 621 402 643.5 383.5 c 128,-1,36
 666 365 666 365 706 365 c 0,37,38
 743 365 743 365 764.5 385 c 128,-1,39
 786 405 786 405 796.5 436.5 c 128,-1,40
 807 468 807 468 809.5 505.5 c 128,-1,41
 812 543 812 543 812 578 c 1,42,-1
 991 578 l 1,43,-1
 991 562 l 2,44,45
 991 544 991 544 988.5 511.5 c 128,-1,46
 986 479 986 479 977 440.5 c 128,-1,47
 968 402 968 402 950 362.5 c 128,-1,48
 932 323 932 323 900.5 290.5 c 128,-1,49
 869 258 869 258 821.5 237.5 c 128,-1,50
 774 217 774 217 706 217 c 0,0,1
180 696 m 0,51,52
 180 579 180 579 221 476.5 c 128,-1,53
 262 374 262 374 332.5 297.5 c 128,-1,54
 403 221 403 221 498.5 177 c 128,-1,55
 594 133 594 133 702 133 c 256,56,57
 810 133 810 133 905.5 177 c 128,-1,58
 1001 221 1001 221 1071.5 297.5 c 128,-1,59
 1142 374 1142 374 1183 476.5 c 128,-1,60
 1224 579 1224 579 1224 696 c 0,61,62
 1224 774 1224 774 1205.5 846 c 128,-1,63
 1187 918 1187 918 1153 981 c 128,-1,64
 1119 1044 1119 1044 1071.5 1095 c 128,-1,65
 1024 1146 1024 1146 966 1183 c 128,-1,66
 908 1220 908 1220 841 1240 c 128,-1,67
 774 1260 774 1260 702 1260 c 256,68,69
 630 1260 630 1260 563 1240 c 128,-1,70
 496 1220 496 1220 438 1183 c 128,-1,71
 380 1146 380 1146 332.5 1095 c 128,-1,72
 285 1044 285 1044 251 981 c 128,-1,73
 217 918 217 918 198.5 846 c 128,-1,74
 180 774 180 774 180 696 c 0,51,52
8 700 m 256,75,76
 8 799 8 799 33 890.5 c 128,-1,77
 58 982 58 982 103 1061.5 c 128,-1,78
 148 1141 148 1141 211.5 1206 c 128,-1,79
 275 1271 275 1271 352 1317.5 c 128,-1,80
 429 1364 429 1364 517.5 1389.5 c 128,-1,81
 606 1415 606 1415 702 1415 c 256,82,83
 798 1415 798 1415 886.5 1389.5 c 128,-1,84
 975 1364 975 1364 1052 1317.5 c 128,-1,85
 1129 1271 1129 1271 1192.5 1206 c 128,-1,86
 1256 1141 1256 1141 1301 1061.5 c 128,-1,87
 1346 982 1346 982 1371 890.5 c 128,-1,88
 1396 799 1396 799 1396 700 c 256,89,90
 1396 601 1396 601 1371 510 c 128,-1,91
 1346 419 1346 419 1301 339.5 c 128,-1,92
 1256 260 1256 260 1192.5 195 c 128,-1,93
 1129 130 1129 130 1052 83.5 c 128,-1,94
 975 37 975 37 886.5 11.5 c 128,-1,95
 798 -14 798 -14 702 -14 c 256,96,97
 606 -14 606 -14 517.5 11.5 c 128,-1,98
 429 37 429 37 352 83.5 c 128,-1,99
 275 130 275 130 211.5 195 c 128,-1,100
 148 260 148 260 103 339.5 c 128,-1,101
 58 419 58 419 33 510 c 128,-1,102
 8 601 8 601 8 700 c 256,75,76
EndSplineSet
EndChar

StartChar: ordfeminine
Encoding: 170 170 107
Width: 739
GlyphClass: 2
Flags: W
LayerCount: 2
Fore
SplineSet
446 766 m 1,0,1
 411 701 411 701 361.5 673 c 128,-1,2
 312 645 312 645 262 645 c 0,3,4
 224 645 224 645 189 659.5 c 128,-1,5
 154 674 154 674 127.5 699.5 c 128,-1,6
 101 725 101 725 85 760.5 c 128,-1,7
 69 796 69 796 69 838 c 0,8,9
 69 866 69 866 73 892 c 128,-1,10
 77 918 77 918 90 942.5 c 128,-1,11
 103 967 103 967 128 991 c 128,-1,12
 153 1015 153 1015 194.5 1039.5 c 128,-1,13
 236 1064 236 1064 298 1089 c 128,-1,14
 360 1114 360 1114 446 1141 c 1,15,-1
 446 1235 l 2,16,17
 446 1283 446 1283 438 1310.5 c 128,-1,18
 430 1338 430 1338 418 1352 c 128,-1,19
 406 1366 406 1366 393 1370 c 128,-1,20
 380 1374 380 1374 370 1374 c 0,21,22
 321 1374 321 1374 300.5 1333 c 128,-1,23
 280 1292 280 1292 280 1223 c 1,24,-1
 102 1223 l 1,25,26
 103 1293 103 1293 124 1347.5 c 128,-1,27
 145 1402 145 1402 181 1440 c 128,-1,28
 217 1478 217 1478 266 1498 c 128,-1,29
 315 1518 315 1518 374 1518 c 0,30,31
 453 1518 453 1518 504.5 1496.5 c 128,-1,32
 556 1475 556 1475 586 1432 c 128,-1,33
 616 1389 616 1389 627.5 1325 c 128,-1,34
 639 1261 639 1261 639 1176 c 2,35,-1
 639 883 l 2,36,37
 639 833 639 833 639.5 799 c 128,-1,38
 640 765 640 765 641.5 740 c 128,-1,39
 643 715 643 715 645.5 695.5 c 128,-1,40
 648 676 648 676 653 655 c 1,41,-1
 462 655 l 1,42,-1
 446 766 l 1,0,1
264 883 m 0,43,44
 264 838 264 838 285 818.5 c 128,-1,45
 306 799 306 799 335 799 c 0,46,47
 366 799 366 799 397.5 819 c 128,-1,48
 429 839 429 839 446 874 c 1,49,-1
 446 1063 l 1,50,51
 355 1013 355 1013 309.5 972.5 c 128,-1,52
 264 932 264 932 264 883 c 0,43,44
EndSplineSet
EndChar

StartChar: guillemotleft
Encoding: 171 171 108
Width: 1044
GlyphClass: 2
Flags: W
LayerCount: 2
Fore
SplineSet
45 704 m 1,0,-1
 493 1216 l 1,1,-1
 493 896 l 1,2,-1
 237 641 l 1,3,-1
 493 384 l 1,4,-1
 493 64 l 1,5,-1
 45 576 l 1,6,-1
 45 704 l 1,0,-1
493 704 m 1,7,-1
 941 1216 l 1,8,-1
 941 896 l 1,9,-1
 685 641 l 1,10,-1
 941 384 l 1,11,-1
 941 64 l 1,12,-1
 493 576 l 1,13,-1
 493 704 l 1,7,-1
EndSplineSet
EndChar

StartChar: logicalnot
Encoding: 172 172 109
Width: 697
GlyphClass: 2
Flags: W
LayerCount: 2
Fore
SplineSet
85 640 m 1,0,-1
 597 640 l 1,1,-1
 597 256 l 1,2,-1
 469 256 l 1,3,-1
 469 448 l 1,4,-1
 85 448 l 1,5,-1
 85 640 l 1,0,-1
EndSplineSet
EndChar

StartChar: uni00AD
Encoding: 173 173 110
Width: 708
GlyphClass: 2
Flags: W
LayerCount: 2
Fore
SplineSet
101 640 m 1,0,-1
 613 640 l 1,1,-1
 613 448 l 1,2,-1
 101 448 l 1,3,-1
 101 640 l 1,0,-1
EndSplineSet
EndChar

StartChar: registered
Encoding: 174 174 111
Width: 1395
GlyphClass: 2
Flags: W
LayerCount: 2
Fore
SplineSet
180 696 m 0,0,1
 180 579 180 579 221 476.5 c 128,-1,2
 262 374 262 374 332.5 297.5 c 128,-1,3
 403 221 403 221 498.5 177 c 128,-1,4
 594 133 594 133 702 133 c 256,5,6
 810 133 810 133 905.5 177 c 128,-1,7
 1001 221 1001 221 1071.5 297.5 c 128,-1,8
 1142 374 1142 374 1183 476.5 c 128,-1,9
 1224 579 1224 579 1224 696 c 0,10,11
 1224 774 1224 774 1205.5 846 c 128,-1,12
 1187 918 1187 918 1153 981 c 128,-1,13
 1119 1044 1119 1044 1071.5 1095 c 128,-1,14
 1024 1146 1024 1146 966 1183 c 128,-1,15
 908 1220 908 1220 841 1240 c 128,-1,16
 774 1260 774 1260 702 1260 c 256,17,18
 630 1260 630 1260 563 1240 c 128,-1,19
 496 1220 496 1220 438 1183 c 128,-1,20
 380 1146 380 1146 332.5 1095 c 128,-1,21
 285 1044 285 1044 251 981 c 128,-1,22
 217 918 217 918 198.5 846 c 128,-1,23
 180 774 180 774 180 696 c 0,0,1
8 700 m 256,24,25
 8 799 8 799 33 890.5 c 128,-1,26
 58 982 58 982 103 1061.5 c 128,-1,27
 148 1141 148 1141 211.5 1206 c 128,-1,28
 275 1271 275 1271 352 1317.5 c 128,-1,29
 429 1364 429 1364 517.5 1389.5 c 128,-1,30
 606 1415 606 1415 702 1415 c 256,31,32
 798 1415 798 1415 886.5 1389.5 c 128,-1,33
 975 1364 975 1364 1052 1317.5 c 128,-1,34
 1129 1271 1129 1271 1192.5 1206 c 128,-1,35
 1256 1141 1256 1141 1301 1061.5 c 128,-1,36
 1346 982 1346 982 1371 890.5 c 128,-1,37
 1396 799 1396 799 1396 700 c 256,38,39
 1396 601 1396 601 1371 510 c 128,-1,40
 1346 419 1346 419 1301 339.5 c 128,-1,41
 1256 260 1256 260 1192.5 195 c 128,-1,42
 1129 130 1129 130 1052 83.5 c 128,-1,43
 975 37 975 37 886.5 11.5 c 128,-1,44
 798 -14 798 -14 702 -14 c 256,45,46
 606 -14 606 -14 517.5 11.5 c 128,-1,47
 429 37 429 37 352 83.5 c 128,-1,48
 275 130 275 130 211.5 195 c 128,-1,49
 148 260 148 260 103 339.5 c 128,-1,50
 58 419 58 419 33 510 c 128,-1,51
 8 601 8 601 8 700 c 256,24,25
819 248 m 1,52,-1
 692 633 l 1,53,-1
 610 633 l 1,54,-1
 610 248 l 1,55,-1
 454 248 l 1,56,-1
 454 1167 l 1,57,-1
 694 1167 l 2,58,59
 773 1167 773 1167 825 1145.5 c 128,-1,60
 877 1124 877 1124 908 1086.5 c 128,-1,61
 939 1049 939 1049 951.5 999.5 c 128,-1,62
 964 950 964 950 964 893 c 0,63,64
 964 842 964 842 953 805.5 c 128,-1,65
 942 769 942 769 924 743 c 128,-1,66
 906 717 906 717 883.5 699.5 c 128,-1,67
 861 682 861 682 839 670 c 1,68,-1
 839 668 l 2,69,70
 839 658 839 658 845 635 c 128,-1,71
 851 612 851 612 867.5 565.5 c 128,-1,72
 884 519 884 519 912.5 442.5 c 128,-1,73
 941 366 941 366 987 248 c 1,74,-1
 819 248 l 1,52,-1
610 729 m 1,75,-1
 643 729 l 2,76,77
 682 729 682 729 712 733.5 c 128,-1,78
 742 738 742 738 762.5 754.5 c 128,-1,79
 783 771 783 771 793.5 804.5 c 128,-1,80
 804 838 804 838 804 897 c 0,81,82
 804 975 804 975 774 1012 c 128,-1,83
 744 1049 744 1049 681 1049 c 2,84,-1
 610 1049 l 1,85,-1
 610 729 l 1,75,-1
EndSplineSet
EndChar

StartChar: degree
Encoding: 176 176 112
Width: 875
GlyphClass: 2
Flags: W
LayerCount: 2
Fore
SplineSet
431 1810 m 0,0,1
 534 1810 534 1810 607 1777 c 128,-1,2
 680 1744 680 1744 726 1690 c 128,-1,3
 772 1636 772 1636 793.5 1567.5 c 128,-1,4
 815 1499 815 1499 815 1427 c 256,5,6
 815 1355 815 1355 793.5 1285.5 c 128,-1,7
 772 1216 772 1216 726 1162 c 128,-1,8
 680 1108 680 1108 607 1075 c 128,-1,9
 534 1042 534 1042 431 1042 c 256,10,11
 328 1042 328 1042 255 1075 c 128,-1,12
 182 1108 182 1108 136 1162 c 128,-1,13
 90 1216 90 1216 68.5 1285.5 c 128,-1,14
 47 1355 47 1355 47 1427 c 256,15,16
 47 1499 47 1499 68 1567.5 c 128,-1,17
 89 1636 89 1636 135.5 1690 c 128,-1,18
 182 1744 182 1744 254.5 1777 c 128,-1,19
 327 1810 327 1810 431 1810 c 0,0,1
431 1212 m 256,20,21
 481 1212 481 1212 517.5 1230.5 c 128,-1,22
 554 1249 554 1249 577.5 1279 c 128,-1,23
 601 1309 601 1309 612 1347.5 c 128,-1,24
 623 1386 623 1386 623 1426 c 256,25,26
 623 1466 623 1466 612 1504.5 c 128,-1,27
 601 1543 601 1543 577.5 1573 c 128,-1,28
 554 1603 554 1603 518 1621.5 c 128,-1,29
 482 1640 482 1640 431 1640 c 256,30,31
 380 1640 380 1640 344 1622 c 128,-1,32
 308 1604 308 1604 284.5 1574 c 128,-1,33
 261 1544 261 1544 250 1505.5 c 128,-1,34
 239 1467 239 1467 239 1427 c 256,35,36
 239 1387 239 1387 250 1348.5 c 128,-1,37
 261 1310 261 1310 284.5 1279.5 c 128,-1,38
 308 1249 308 1249 344.5 1230.5 c 128,-1,39
 381 1212 381 1212 431 1212 c 256,20,21
EndSplineSet
EndChar

StartChar: plusminus
Encoding: 177 177 113
Width: 765
GlyphClass: 2
Flags: W
LayerCount: 2
Fore
SplineSet
102 192 m 1,0,-1
 678 192 l 1,1,-1
 678 0 l 1,2,-1
 102 0 l 1,3,-1
 102 192 l 1,0,-1
294 384 m 1,4,-1
 294 576 l 1,5,-1
 102 576 l 1,6,-1
 102 768 l 1,7,-1
 294 768 l 1,8,-1
 294 960 l 1,9,-1
 486 960 l 1,10,-1
 486 768 l 1,11,-1
 678 768 l 1,12,-1
 678 576 l 1,13,-1
 486 576 l 1,14,-1
 486 384 l 1,15,-1
 294 384 l 1,4,-1
EndSplineSet
EndChar

StartChar: twosuperior
Encoding: 178 178 114
Width: 670
GlyphClass: 2
Flags: W
LayerCount: 2
Fore
SplineSet
79 1216 m 1,0,1
 79 1264 79 1264 92 1310 c 128,-1,2
 105 1356 105 1356 135 1392 c 128,-1,3
 165 1428 165 1428 214 1450 c 128,-1,4
 263 1472 263 1472 335 1472 c 256,5,6
 407 1472 407 1472 456 1450 c 128,-1,7
 505 1428 505 1428 535 1392 c 128,-1,8
 565 1356 565 1356 578 1310 c 128,-1,9
 591 1264 591 1264 591 1216 c 256,10,11
 591 1168 591 1168 568 1118 c 128,-1,12
 545 1068 545 1068 503 1008 c 128,-1,13
 461 948 461 948 402 874 c 128,-1,14
 343 800 343 800 271 704 c 1,15,-1
 591 704 l 1,16,-1
 591 576 l 1,17,-1
 79 576 l 1,18,-1
 79 704 l 1,19,-1
 271 960 l 2,20,21
 307 1008 307 1008 331.5 1045 c 128,-1,22
 356 1082 356 1082 371 1112 c 128,-1,23
 386 1142 386 1142 392.5 1167 c 128,-1,24
 399 1192 399 1192 399 1216 c 256,25,26
 399 1240 399 1240 398 1263 c 128,-1,27
 397 1286 397 1286 391 1304 c 128,-1,28
 385 1322 385 1322 372 1333 c 128,-1,29
 359 1344 359 1344 335 1344 c 256,30,31
 311 1344 311 1344 298 1333 c 128,-1,32
 285 1322 285 1322 279 1304 c 128,-1,33
 273 1286 273 1286 272 1263 c 128,-1,34
 271 1240 271 1240 271 1216 c 1,35,-1
 79 1216 l 1,0,1
EndSplineSet
EndChar

StartChar: threesuperior
Encoding: 179 179 115
Width: 673
GlyphClass: 2
Flags: W
LayerCount: 2
Fore
SplineSet
330 640 m 256,0,1
 258 640 258 640 209 662 c 128,-1,2
 160 684 160 684 130 720 c 128,-1,3
 100 756 100 756 87 802 c 128,-1,4
 74 848 74 848 74 896 c 1,5,-1
 266 896 l 1,6,7
 266 872 266 872 267 849 c 128,-1,8
 268 826 268 826 274 808 c 128,-1,9
 280 790 280 790 293 779 c 128,-1,10
 306 768 306 768 330 768 c 256,11,12
 354 768 354 768 367 779 c 128,-1,13
 380 790 380 790 386 808 c 128,-1,14
 392 826 392 826 393 849 c 128,-1,15
 394 872 394 872 394 896 c 256,16,17
 394 920 394 920 392 943 c 128,-1,18
 390 966 390 966 378 984 c 128,-1,19
 366 1002 366 1002 340 1013 c 128,-1,20
 314 1024 314 1024 266 1024 c 1,21,-1
 266 1152 l 1,22,23
 314 1152 314 1152 340 1163 c 128,-1,24
 366 1174 366 1174 378 1192 c 128,-1,25
 390 1210 390 1210 392 1233 c 128,-1,26
 394 1256 394 1256 394 1280 c 256,27,28
 394 1304 394 1304 393 1327 c 128,-1,29
 392 1350 392 1350 386 1368 c 128,-1,30
 380 1386 380 1386 367 1397 c 128,-1,31
 354 1408 354 1408 330 1408 c 256,32,33
 306 1408 306 1408 293 1397 c 128,-1,34
 280 1386 280 1386 274 1368 c 128,-1,35
 268 1350 268 1350 267 1327 c 128,-1,36
 266 1304 266 1304 266 1280 c 1,37,-1
 74 1280 l 1,38,39
 74 1328 74 1328 87 1374 c 128,-1,40
 100 1420 100 1420 130 1456 c 128,-1,41
 160 1492 160 1492 209 1514 c 128,-1,42
 258 1536 258 1536 330 1536 c 256,43,44
 402 1536 402 1536 451 1514 c 128,-1,45
 500 1492 500 1492 530 1456 c 128,-1,46
 560 1420 560 1420 573 1374 c 128,-1,47
 586 1328 586 1328 586 1280 c 0,48,49
 586 1244 586 1244 577.5 1216.5 c 128,-1,50
 569 1189 569 1189 555.5 1169 c 128,-1,51
 542 1149 542 1149 525 1135 c 128,-1,52
 508 1121 508 1121 490 1112 c 0,53,54
 448 1091 448 1091 394 1088 c 1,55,56
 448 1085 448 1085 490 1064 c 0,57,58
 508 1055 508 1055 525 1041 c 128,-1,59
 542 1027 542 1027 555.5 1007 c 128,-1,60
 569 987 569 987 577.5 959.5 c 128,-1,61
 586 932 586 932 586 896 c 0,62,63
 586 848 586 848 573 802 c 128,-1,64
 560 756 560 756 530 720 c 128,-1,65
 500 684 500 684 451 662 c 128,-1,66
 402 640 402 640 330 640 c 256,0,1
EndSplineSet
EndChar

StartChar: acute
Encoding: 180 180 116
Width: 443
GlyphClass: 2
Flags: W
LayerCount: 2
Fore
SplineSet
186 1408 m 1,0,-1
 58 1408 l 1,1,-1
 186 1792 l 1,2,-1
 442 1792 l 1,3,-1
 186 1408 l 1,0,-1
EndSplineSet
EndChar

StartChar: mu
Encoding: 181 181 117
Width: 1006
GlyphClass: 2
Flags: W
LayerCount: 2
Fore
SplineSet
124 1280 m 1,0,-1
 380 1280 l 1,1,-1
 380 267 l 2,2,3
 380 225 380 225 405.5 201 c 128,-1,4
 431 177 431 177 468 177 c 0,5,6
 492 177 492 177 514.5 185.5 c 128,-1,7
 537 194 537 194 558 207 c 128,-1,8
 579 220 579 220 598.5 236 c 128,-1,9
 618 252 618 252 636 267 c 1,10,-1
 636 1280 l 1,11,-1
 892 1280 l 1,12,-1
 892 0 l 1,13,-1
 636 0 l 1,14,-1
 636 138 l 1,15,16
 612 86 612 86 569 58 c 128,-1,17
 526 30 526 30 484 17 c 0,18,19
 435 2 435 2 380 0 c 1,20,-1
 380 -256 l 1,21,-1
 124 -256 l 1,22,-1
 124 1280 l 1,0,-1
EndSplineSet
EndChar

StartChar: paragraph
Encoding: 182 182 118
Width: 977
GlyphClass: 2
Flags: W
LayerCount: 2
Fore
SplineSet
345 876 m 1,0,1
 268 876 268 876 201.5 897.5 c 128,-1,2
 135 919 135 919 85.5 960.5 c 128,-1,3
 36 1002 36 1002 7.5 1063 c 128,-1,4
 -21 1124 -21 1124 -21 1204 c 0,5,6
 -21 1362 -21 1362 79.5 1449 c 128,-1,7
 180 1536 180 1536 386 1536 c 2,8,-1
 859 1536 l 1,9,-1
 859 0 l 1,10,-1
 681 0 l 1,11,-1
 681 876 l 1,12,-1
 542 876 l 1,13,-1
 542 0 l 1,14,-1
 345 0 l 1,15,-1
 345 876 l 1,0,1
EndSplineSet
EndChar

StartChar: periodcentered
Encoding: 183 183 119
Width: 456
GlyphClass: 2
Flags: W
LayerCount: 2
Fore
SplineSet
105 960 m 1,0,-1
 361 960 l 1,1,-1
 361 704 l 1,2,-1
 105 704 l 1,3,-1
 105 960 l 1,0,-1
EndSplineSet
EndChar

StartChar: cedilla
Encoding: 184 184 120
Width: 572
GlyphClass: 2
Flags: W
LayerCount: 2
Fore
SplineSet
75 -384 m 1,0,1
 147 -384 147 -384 196 -383 c 128,-1,2
 245 -382 245 -382 275 -376 c 128,-1,3
 305 -370 305 -370 318 -357 c 128,-1,4
 331 -344 331 -344 331 -320 c 0,5,6
 331 -308 331 -308 322.5 -296 c 128,-1,7
 314 -284 314 -284 300.5 -273 c 128,-1,8
 287 -262 287 -262 270 -251.5 c 128,-1,9
 253 -241 253 -241 235 -232 c 0,10,11
 193 -211 193 -211 139 -192 c 1,12,-1
 139 0 l 1,13,-1
 267 0 l 1,14,-1
 267 -128 l 1,15,16
 339 -148 339 -148 395 -176 c 0,17,18
 419 -188 419 -188 442 -203 c 128,-1,19
 465 -218 465 -218 483 -236 c 128,-1,20
 501 -254 501 -254 512 -275 c 128,-1,21
 523 -296 523 -296 523 -320 c 0,22,23
 523 -392 523 -392 489 -431 c 128,-1,24
 455 -470 455 -470 395 -488 c 128,-1,25
 335 -506 335 -506 253 -509 c 128,-1,26
 171 -512 171 -512 75 -512 c 1,27,-1
 75 -384 l 1,0,1
EndSplineSet
EndChar

StartChar: onesuperior
Encoding: 185 185 121
Width: 462
GlyphClass: 2
Flags: W
LayerCount: 2
Fore
SplineSet
31 1344 m 1,0,1
 79 1368 79 1368 117 1391 c 128,-1,2
 155 1414 155 1414 185.5 1437.5 c 128,-1,3
 216 1461 216 1461 241 1485.5 c 128,-1,4
 266 1510 266 1510 287 1536 c 1,5,-1
 351 1536 l 1,6,-1
 351 640 l 1,7,-1
 159 640 l 1,8,-1
 159 1216 l 1,9,-1
 31 1216 l 1,10,-1
 31 1344 l 1,0,1
EndSplineSet
EndChar

StartChar: ordmasculine
Encoding: 186 186 122
Width: 885
GlyphClass: 2
Flags: W
LayerCount: 2
Fore
SplineSet
98 729 m 2,0,1
 98 825 98 825 115 903 c 128,-1,2
 132 981 132 981 172.5 1036.5 c 128,-1,3
 213 1092 213 1092 280.5 1122.5 c 128,-1,4
 348 1153 348 1153 449 1153 c 0,5,6
 542 1153 542 1153 608.5 1121.5 c 128,-1,7
 675 1090 675 1090 717.5 1033.5 c 128,-1,8
 760 977 760 977 779.5 899 c 128,-1,9
 799 821 799 821 799 729 c 2,10,-1
 799 410 l 2,11,12
 799 318 799 318 779.5 240 c 128,-1,13
 760 162 760 162 717.5 105.5 c 128,-1,14
 675 49 675 49 608.5 17.5 c 128,-1,15
 542 -14 542 -14 449 -14 c 0,16,17
 348 -14 348 -14 280.5 16 c 128,-1,18
 213 46 213 46 172.5 101.5 c 128,-1,19
 132 157 132 157 115 235.5 c 128,-1,20
 98 314 98 314 98 410 c 2,21,-1
 98 729 l 2,0,1
311 451 m 2,22,23
 311 364 311 364 320 311.5 c 128,-1,24
 329 259 329 259 346 231.5 c 128,-1,25
 363 204 363 204 387.5 195 c 128,-1,26
 412 186 412 186 444 186 c 0,27,28
 477 186 477 186 501.5 194.5 c 128,-1,29
 526 203 526 203 542 230.5 c 128,-1,30
 558 258 558 258 565.5 310.5 c 128,-1,31
 573 363 573 363 573 451 c 2,32,-1
 573 688 l 2,33,34
 573 776 573 776 565.5 828 c 128,-1,35
 558 880 558 880 542 907.5 c 128,-1,36
 526 935 526 935 501.5 943.5 c 128,-1,37
 477 952 477 952 444 952 c 0,38,39
 412 952 412 952 387.5 943.5 c 128,-1,40
 363 935 363 935 346 907 c 128,-1,41
 329 879 329 879 320 827 c 128,-1,42
 311 775 311 775 311 688 c 2,43,-1
 311 451 l 2,22,23
EndSplineSet
EndChar

StartChar: guillemotright
Encoding: 187 187 123
Width: 1038
GlyphClass: 2
Flags: W
LayerCount: 2
Fore
SplineSet
1006 576 m 1,0,-1
 558 64 l 1,1,-1
 558 384 l 1,2,-1
 814 641 l 1,3,-1
 558 896 l 1,4,-1
 558 1216 l 1,5,-1
 1006 704 l 1,6,-1
 1006 576 l 1,0,-1
558 576 m 1,7,-1
 110 64 l 1,8,-1
 110 384 l 1,9,-1
 366 641 l 1,10,-1
 110 896 l 1,11,-1
 110 1216 l 1,12,-1
 558 704 l 1,13,-1
 558 576 l 1,7,-1
EndSplineSet
EndChar

StartChar: questiondown
Encoding: 191 191 127
Width: 745
GlyphClass: 2
Flags: W
LayerCount: 2
Fore
SplineSet
523 1029 m 1,0,-1
 523 784 l 2,1,2
 523 783 523 783 504.5 759.5 c 128,-1,3
 486 736 486 736 459 698.5 c 128,-1,4
 432 661 432 661 399.5 613 c 128,-1,5
 367 565 367 565 340 514.5 c 128,-1,6
 313 464 313 464 294.5 415.5 c 128,-1,7
 276 367 276 367 276 328 c 0,8,9
 276 272 276 272 301 237 c 128,-1,10
 326 202 326 202 388 202 c 0,11,12
 432 202 432 202 459.5 221 c 128,-1,13
 487 240 487 240 502.5 270.5 c 128,-1,14
 518 301 518 301 523.5 340.5 c 128,-1,15
 529 380 529 380 529 421 c 1,16,-1
 748 421 l 1,17,-1
 748 396 l 2,18,19
 748 312 748 312 727 238.5 c 128,-1,20
 706 165 706 165 662 111 c 128,-1,21
 618 57 618 57 550 26 c 128,-1,22
 482 -5 482 -5 388 -5 c 0,23,24
 289 -5 289 -5 221.5 21.5 c 128,-1,25
 154 48 154 48 113.5 95 c 128,-1,26
 73 142 73 142 55.5 206.5 c 128,-1,27
 38 271 38 271 38 346 c 0,28,29
 38 383 38 383 49.5 422.5 c 128,-1,30
 61 462 61 462 80 501.5 c 128,-1,31
 99 541 99 541 123 579.5 c 128,-1,32
 147 618 147 618 172 653 c 0,33,34
 230 734 230 734 307 812 c 1,35,-1
 307 1029 l 1,36,-1
 523 1029 l 1,0,-1
522 1106 m 1,37,-1
 301 1106 l 1,38,-1
 301 1329 l 1,39,-1
 522 1329 l 1,40,-1
 522 1106 l 1,37,-1
EndSplineSet
EndChar

StartChar: AE
Encoding: 198 198 134
Width: 1481
GlyphClass: 2
Flags: W
LayerCount: 2
Fore
SplineSet
1308 832 m 1,0,-1
 988 832 l 1,1,-1
 988 192 l 1,2,-1
 1436 192 l 1,3,-1
 1436 0 l 1,4,-1
 732 0 l 1,5,-1
 732 448 l 1,6,-1
 412 448 l 1,7,-1
 221 0 l 1,8,-1
 -34 0 l 1,9,-1
 730 1792 l 1,10,-1
 1436 1792 l 1,11,-1
 1436 1600 l 1,12,-1
 988 1600 l 1,13,-1
 988 1024 l 1,14,-1
 1308 1024 l 1,15,-1
 1308 832 l 1,0,-1
732 640 m 1,16,-1
 732 1298 l 1,17,-1
 485 640 l 1,18,-1
 732 640 l 1,16,-1
EndSplineSet
EndChar

StartChar: Eth
Encoding: 208 208 144
Width: 1147
GlyphClass: 2
Flags: W
LayerCount: 2
Fore
SplineSet
140 0 m 1,0,-1
 140 832 l 1,1,-1
 76 832 l 1,2,-1
 76 1024 l 1,3,-1
 140 1024 l 1,4,-1
 140 1792 l 1,5,-1
 524 1792 l 2,6,7
 668 1792 668 1792 766 1766 c 128,-1,8
 864 1740 864 1740 924 1680 c 128,-1,9
 984 1620 984 1620 1010 1522 c 128,-1,10
 1036 1424 1036 1424 1036 1280 c 2,11,-1
 1036 576 l 2,12,13
 1036 432 1036 432 1010 324 c 128,-1,14
 984 216 984 216 924 144 c 128,-1,15
 864 72 864 72 765.5 36 c 128,-1,16
 667 0 667 0 522 0 c 2,17,-1
 140 0 l 1,0,-1
524 192 m 2,18,19
 620 192 620 192 672 217 c 128,-1,20
 724 242 724 242 748 296 c 128,-1,21
 772 350 772 350 776 435 c 128,-1,22
 780 520 780 520 780 640 c 2,23,-1
 780 1216 l 2,24,25
 780 1312 780 1312 776 1384 c 128,-1,26
 772 1456 772 1456 747.5 1504 c 128,-1,27
 723 1552 723 1552 670 1576 c 128,-1,28
 617 1600 617 1600 519 1600 c 2,29,-1
 396 1600 l 1,30,-1
 396 1024 l 1,31,-1
 460 1024 l 1,32,-1
 460 832 l 1,33,-1
 396 832 l 1,34,-1
 396 192 l 1,35,-1
 524 192 l 2,18,19
EndSplineSet
EndChar

StartChar: multiply
Encoding: 215 215 151
Width: 743
GlyphClass: 2
Flags: W
LayerCount: 2
Fore
SplineSet
351 512 m 1,0,-1
 159 320 l 1,1,-1
 31 448 l 1,2,-1
 223 640 l 1,3,-1
 31 832 l 1,4,-1
 159 960 l 1,5,-1
 351 768 l 1,6,-1
 543 960 l 1,7,-1
 671 832 l 1,8,-1
 479 640 l 1,9,-1
 671 448 l 1,10,-1
 543 320 l 1,11,-1
 351 512 l 1,0,-1
EndSplineSet
EndChar

StartChar: Oslash
Encoding: 216 216 152
Width: 1227
GlyphClass: 2
Flags: W
LayerCount: 2
Fore
SplineSet
1119 576 m 2,0,1
 1119 456 1119 456 1094 348 c 128,-1,2
 1069 240 1069 240 1010 159 c 128,-1,3
 951 78 951 78 852.5 30 c 128,-1,4
 754 -18 754 -18 607 -18 c 0,5,6
 518 -18 518 -18 447 0 c 1,7,-1
 415 -128 l 1,8,-1
 287 -128 l 1,9,-1
 330 44 l 1,10,11
 312 54 312 54 296 65 c 0,12,13
 240 104 240 104 201 159 c 128,-1,14
 162 214 162 214 138.5 280 c 128,-1,15
 115 346 115 346 105 421 c 128,-1,16
 95 496 95 496 95 576 c 2,17,-1
 95 1216 l 2,18,19
 95 1296 95 1296 105 1371 c 128,-1,20
 115 1446 115 1446 138.5 1512 c 128,-1,21
 162 1578 162 1578 201 1633 c 128,-1,22
 240 1688 240 1688 296.5 1727 c 128,-1,23
 353 1766 353 1766 430 1788 c 128,-1,24
 507 1810 507 1810 607 1810 c 0,25,26
 696 1810 696 1810 767 1792 c 1,27,-1
 799 1920 l 1,28,-1
 927 1920 l 1,29,-1
 883 1745 l 1,30,31
 960 1700 960 1700 1010 1633 c 0,32,33
 1069 1552 1069 1552 1094 1444 c 128,-1,34
 1119 1336 1119 1336 1119 1216 c 2,35,-1
 1119 576 l 2,0,1
351 512 m 2,36,37
 351 440 351 440 364 381 c 0,38,39
 374 335 374 335 394 300 c 1,40,-1
 714 1583 l 1,41,42
 669 1600 669 1600 607 1600 c 0,43,44
 535 1600 535 1600 486 1577 c 128,-1,45
 437 1554 437 1554 407 1512 c 128,-1,46
 377 1470 377 1470 364 1411 c 128,-1,47
 351 1352 351 1352 351 1280 c 2,48,-1
 351 512 l 2,36,37
607 192 m 0,49,50
 679 192 679 192 728 215 c 128,-1,51
 777 238 777 238 807 280 c 128,-1,52
 837 322 837 322 850 381 c 128,-1,53
 863 440 863 440 863 512 c 2,54,-1
 863 1280 l 2,55,56
 863 1352 863 1352 850 1411 c 0,57,58
 840 1456 840 1456 820 1492 c 1,59,-1
 499 209 l 1,60,61
 544 192 544 192 607 192 c 0,49,50
EndSplineSet
EndChar

StartChar: Thorn
Encoding: 222 222 158
Width: 1032
GlyphClass: 2
Flags: W
LayerCount: 2
Fore
SplineSet
373 1536 m 1,0,-1
 373 1281 l 1,1,-1
 553 1281 l 2,2,3
 656 1281 656 1281 732.5 1250 c 128,-1,4
 809 1219 809 1219 859.5 1160.5 c 128,-1,5
 910 1102 910 1102 935 1017.5 c 128,-1,6
 960 933 960 933 960 826 c 0,7,8
 960 603 960 603 842 489.5 c 128,-1,9
 724 376 724 376 506 384 c 1,10,-1
 375 384 l 1,11,-1
 375 0 l 1,12,-1
 121 0 l 1,13,-1
 121 1536 l 1,14,-1
 373 1536 l 1,0,-1
418 601 m 2,15,16
 482 601 482 601 533.5 609 c 128,-1,17
 585 617 585 617 621.5 641 c 128,-1,18
 658 665 658 665 678 709.5 c 128,-1,19
 698 754 698 754 698 828 c 0,20,21
 698 892 698 892 684 936 c 128,-1,22
 670 980 670 980 640 1007 c 128,-1,23
 610 1034 610 1034 563 1046 c 128,-1,24
 516 1058 516 1058 450 1058 c 2,25,-1
 373 1058 l 1,26,-1
 373 601 l 1,27,-1
 418 601 l 2,15,16
EndSplineSet
EndChar

StartChar: germandbls
Encoding: 223 223 159
Width: 1096
GlyphClass: 2
Flags: W
LayerCount: 2
Fore
SplineSet
121 0 m 1,0,-1
 121 1354 l 2,1,2
 121 1477 121 1477 154 1563.5 c 128,-1,3
 187 1650 187 1650 241 1705 c 128,-1,4
 295 1760 295 1760 364 1785 c 128,-1,5
 433 1810 433 1810 505 1810 c 0,6,7
 601 1810 601 1810 671.5 1789 c 128,-1,8
 742 1768 742 1768 792 1732 c 128,-1,9
 842 1696 842 1696 873 1649 c 128,-1,10
 904 1602 904 1602 922 1550 c 128,-1,11
 940 1498 940 1498 946.5 1445 c 128,-1,12
 953 1392 953 1392 953 1344 c 0,13,14
 953 1200 953 1200 901.5 1101.5 c 128,-1,15
 850 1003 850 1003 734 939 c 1,16,17
 792 923 792 923 843.5 888 c 128,-1,18
 895 853 895 853 933.5 799.5 c 128,-1,19
 972 746 972 746 994.5 674 c 128,-1,20
 1017 602 1017 602 1017 512 c 0,21,22
 1017 392 1017 392 991 294 c 128,-1,23
 965 196 965 196 905 127 c 128,-1,24
 845 58 845 58 747 20 c 128,-1,25
 649 -18 649 -18 505 -18 c 1,26,-1
 505 192 l 1,27,28
 577 192 577 192 626 206 c 128,-1,29
 675 220 675 220 705 256 c 128,-1,30
 735 292 735 292 748 354 c 128,-1,31
 761 416 761 416 761 512 c 0,32,33
 761 659 761 659 693.5 735.5 c 128,-1,34
 626 812 626 812 505 812 c 1,35,-1
 505 1024 l 1,36,37
 553 1024 553 1024 590.5 1047 c 128,-1,38
 628 1070 628 1070 653 1112 c 128,-1,39
 678 1154 678 1154 691 1213 c 128,-1,40
 704 1272 704 1272 704 1344 c 0,41,42
 704 1405 704 1405 696.5 1452.5 c 128,-1,43
 689 1500 689 1500 670.5 1533 c 128,-1,44
 652 1566 652 1566 619.5 1583 c 128,-1,45
 587 1600 587 1600 537 1600 c 0,46,47
 489 1600 489 1600 458 1583.5 c 128,-1,48
 427 1567 427 1567 409 1536 c 128,-1,49
 391 1505 391 1505 384 1460.5 c 128,-1,50
 377 1416 377 1416 377 1359 c 2,51,-1
 377 0 l 1,52,-1
 121 0 l 1,0,-1
EndSplineSet
EndChar

StartChar: ae
Encoding: 230 230 166
Width: 1446
GlyphClass: 2
Flags: W
LayerCount: 2
Fore
SplineSet
75 283 m 0,0,1
 75 332 75 332 80.5 377 c 128,-1,2
 86 422 86 422 103.5 464.5 c 128,-1,3
 121 507 121 507 154.5 548 c 128,-1,4
 188 589 188 589 245 630.5 c 128,-1,5
 302 672 302 672 385.5 715 c 128,-1,6
 469 758 469 758 587 804 c 1,7,-1
 587 896 l 2,8,9
 587 968 587 968 576 1007 c 128,-1,10
 565 1046 565 1046 547 1064 c 128,-1,11
 529 1082 529 1082 506 1085 c 128,-1,12
 483 1088 483 1088 459 1088 c 256,13,14
 435 1088 435 1088 412 1085 c 128,-1,15
 389 1082 389 1082 371 1064 c 128,-1,16
 353 1046 353 1046 342 1007 c 128,-1,17
 331 968 331 968 331 896 c 1,18,-1
 75 896 l 1,19,20
 76 987 76 987 103.5 1061.5 c 128,-1,21
 131 1136 131 1136 181 1188.5 c 128,-1,22
 231 1241 231 1241 301.5 1269.5 c 128,-1,23
 372 1298 372 1298 459 1298 c 0,24,25
 529 1298 529 1298 577.5 1276 c 128,-1,26
 626 1254 626 1254 656.5 1227.5 c 128,-1,27
 687 1201 687 1201 701 1178 c 128,-1,28
 715 1155 715 1155 716 1152 c 1,29,30
 717 1155 717 1155 730.5 1178 c 128,-1,31
 744 1201 744 1201 774 1227.5 c 128,-1,32
 804 1254 804 1254 852 1276 c 128,-1,33
 900 1298 900 1298 970 1298 c 0,34,35
 1066 1298 1066 1298 1138 1267.5 c 128,-1,36
 1210 1237 1210 1237 1258 1164.5 c 128,-1,37
 1306 1092 1306 1092 1330 971.5 c 128,-1,38
 1354 851 1354 851 1354 670 c 2,39,-1
 1354 640 l 1,40,-1
 843 640 l 1,41,-1
 843 462 l 1,42,43
 844 406 844 406 850 357 c 128,-1,44
 856 308 856 308 869.5 271.5 c 128,-1,45
 883 235 883 235 907 213.5 c 128,-1,46
 931 192 931 192 970 192 c 0,47,48
 1019 192 1019 192 1045 214 c 128,-1,49
 1071 236 1071 236 1083 272 c 128,-1,50
 1095 308 1095 308 1097 354 c 128,-1,51
 1099 400 1099 400 1099 448 c 1,52,-1
 1354 448 l 1,53,54
 1354 208 1354 208 1258 95 c 128,-1,55
 1162 -18 1162 -18 969 -18 c 0,56,57
 898 -18 898 -18 849.5 4.5 c 128,-1,58
 801 27 801 27 771 55 c 0,59,60
 736 87 736 87 715 128 c 1,61,62
 627 51 627 51 539.5 16 c 128,-1,63
 452 -19 452 -19 373 -19 c 0,64,65
 310 -19 310 -19 255.5 2 c 128,-1,66
 201 23 201 23 161 62 c 128,-1,67
 121 101 121 101 98 157 c 128,-1,68
 75 213 75 213 75 283 c 0,0,1
331 351 m 0,69,70
 331 303 331 303 342 272.5 c 128,-1,71
 353 242 353 242 371 224 c 128,-1,72
 389 206 389 206 412 199 c 128,-1,73
 435 192 435 192 459 192 c 0,74,75
 477 192 477 192 501 198 c 128,-1,76
 525 204 525 204 549 212.5 c 128,-1,77
 573 221 573 221 594.5 230 c 128,-1,78
 616 239 616 239 630 246 c 1,79,80
 609 318 609 318 598 415 c 128,-1,81
 587 512 587 512 586 639 c 1,82,83
 521 597 521 597 473.5 562.5 c 128,-1,84
 426 528 426 528 394 495.5 c 128,-1,85
 362 463 362 463 346.5 428.5 c 128,-1,86
 331 394 331 394 331 351 c 0,69,70
970 1088 m 0,87,88
 931 1088 931 1088 907 1067 c 128,-1,89
 883 1046 883 1046 869.5 1012 c 128,-1,90
 856 978 856 978 850 935.5 c 128,-1,91
 844 893 844 893 843 850 c 1,92,-1
 843 768 l 1,93,-1
 1098 768 l 1,94,95
 1098 816 1098 816 1096.5 872 c 128,-1,96
 1095 928 1095 928 1083 976 c 128,-1,97
 1071 1024 1071 1024 1045 1056 c 128,-1,98
 1019 1088 1019 1088 970 1088 c 0,87,88
EndSplineSet
EndChar

StartChar: eth
Encoding: 240 240 176
Width: 1090
GlyphClass: 2
Flags: W
LayerCount: 2
Fore
SplineSet
204 1472 m 1,0,-1
 524 1546 l 1,1,2
 453 1578 453 1578 357.5 1589 c 128,-1,3
 262 1600 262 1600 140 1600 c 1,4,-1
 140 1810 l 1,5,6
 258 1810 258 1810 358.5 1800.5 c 128,-1,7
 459 1791 459 1791 542 1768.5 c 128,-1,8
 625 1746 625 1746 691.5 1707.5 c 128,-1,9
 758 1669 758 1669 808 1611 c 1,10,-1
 1036 1664 l 1,11,-1
 1036 1536 l 1,12,-1
 880 1500 l 1,13,14
 927 1404 927 1404 949.5 1272 c 128,-1,15
 972 1140 972 1140 972 960 c 2,16,-1
 972 576 l 2,17,18
 972 432 972 432 938 321 c 128,-1,19
 904 210 904 210 844 135 c 128,-1,20
 784 60 784 60 702 21 c 128,-1,21
 620 -18 620 -18 524 -18 c 0,22,23
 392 -18 392 -18 305.5 31 c 128,-1,24
 219 80 219 80 168 167 c 128,-1,25
 117 254 117 254 97 375 c 128,-1,26
 77 496 77 496 77 640 c 0,27,28
 77 783 77 783 101 904 c 128,-1,29
 125 1025 125 1025 172.5 1112.5 c 128,-1,30
 220 1200 220 1200 292 1249 c 128,-1,31
 364 1298 364 1298 460 1298 c 0,32,33
 530 1298 530 1298 578.5 1276 c 128,-1,34
 627 1254 627 1254 657 1227.5 c 128,-1,35
 687 1201 687 1201 701 1178 c 128,-1,36
 715 1155 715 1155 716 1152 c 1,37,38
 716 1252 716 1252 699 1323.5 c 128,-1,39
 682 1395 682 1395 647 1446 c 1,40,-1
 204 1344 l 1,41,-1
 204 1472 l 1,0,-1
716 978 m 1,42,43
 696 1008 696 1008 668 1033 c 1,44,45
 644 1053 644 1053 608 1070.5 c 128,-1,46
 572 1088 572 1088 524 1088 c 0,47,48
 332 1088 332 1088 332 704 c 0,49,50
 332 560 332 560 344 462 c 128,-1,51
 356 364 356 364 380 304 c 128,-1,52
 404 244 404 244 440 218 c 128,-1,53
 476 192 476 192 524 192 c 256,54,55
 572 192 572 192 608 215 c 128,-1,56
 644 238 644 238 668 280 c 128,-1,57
 692 322 692 322 704 381 c 128,-1,58
 716 440 716 440 716 512 c 2,59,-1
 716 978 l 1,42,43
EndSplineSet
EndChar

StartChar: divide
Encoding: 247 247 183
Width: 714
GlyphClass: 2
Flags: W
LayerCount: 2
Fore
SplineSet
15 768 m 1,0,-1
 655 768 l 1,1,-1
 655 576 l 1,2,-1
 15 576 l 1,3,-1
 15 768 l 1,0,-1
207 1135 m 1,4,-1
 463 1135 l 1,5,-1
 463 879 l 1,6,-1
 207 879 l 1,7,-1
 207 1135 l 1,4,-1
207 489 m 1,8,-1
 463 489 l 1,9,-1
 463 233 l 1,10,-1
 207 233 l 1,11,-1
 207 489 l 1,8,-1
EndSplineSet
EndChar

StartChar: oslash
Encoding: 248 248 184
Width: 948
GlyphClass: 2
Flags: W
LayerCount: 2
Fore
SplineSet
335 448 m 2,0,1
 335 400 335 400 337 354 c 0,2,3
 337 350 337 350 337 346 c 1,4,-1
 573 1015 l 1,5,6
 561 1046 561 1046 537 1066 c 0,7,8
 511 1088 511 1088 463 1088 c 128,-1,9
 415 1088 415 1088 389 1066 c 128,-1,10
 363 1044 363 1044 351 1008 c 128,-1,11
 339 972 339 972 337 926 c 128,-1,12
 335 880 335 880 335 832 c 2,13,-1
 335 448 l 2,0,1
79 832 m 2,14,15
 79 864 79 864 81 911 c 128,-1,16
 83 958 83 958 93.5 1009.5 c 128,-1,17
 104 1061 104 1061 127 1113 c 128,-1,18
 150 1165 150 1165 192.5 1206 c 128,-1,19
 235 1247 235 1247 301 1272.5 c 128,-1,20
 367 1298 367 1298 463 1298 c 128,-1,21
 559 1298 559 1298 625 1272 c 0,22,23
 642 1266 642 1266 658 1258 c 1,24,-1
 730 1462 l 1,25,-1
 827 1462 l 1,26,-1
 735 1205 l 1,27,28
 776 1164 776 1164 799 1113 c 0,29,30
 822 1061 822 1061 832.5 1009.5 c 128,-1,31
 843 958 843 958 845 911 c 128,-1,32
 847 864 847 864 847 832 c 2,33,-1
 847 448 l 2,34,35
 847 416 847 416 845 369 c 128,-1,36
 843 322 843 322 832.5 270.5 c 128,-1,37
 822 219 822 219 799 167 c 128,-1,38
 776 115 776 115 733.5 74 c 128,-1,39
 691 33 691 33 625 7.5 c 128,-1,40
 559 -18 559 -18 463 -18 c 0,41,42
 370 -18 370 -18 305 6 c 1,43,-1
 233 -196 l 1,44,-1
 147 -196 l 1,45,-1
 231 43 l 1,46,47
 210 57 210 57 193 74 c 0,48,49
 150 115 150 115 127 167 c 128,-1,50
 104 219 104 219 93.5 270.5 c 128,-1,51
 83 322 83 322 81 369 c 128,-1,52
 79 416 79 416 79 448 c 2,53,-1
 79 832 l 2,14,15
382 220 m 1,54,55
 385 217 385 217 389 214 c 0,56,57
 415 192 415 192 463 192 c 128,-1,58
 511 192 511 192 537 214 c 128,-1,59
 563 236 563 236 575 272 c 128,-1,60
 587 308 587 308 589 354 c 128,-1,61
 591 400 591 400 591 448 c 2,62,-1
 591 803 l 1,63,-1
 382 220 l 1,54,55
EndSplineSet
EndChar

StartChar: thorn
Encoding: 254 254 190
Width: 909
GlyphClass: 2
Flags: W
LayerCount: 2
Fore
SplineSet
120 1518 m 1,0,-1
 339 1518 l 1,1,-1
 339 1024 l 1,2,3
 383 1071 383 1071 418 1097 c 128,-1,4
 453 1123 453 1123 480.5 1135.5 c 128,-1,5
 508 1148 508 1148 529.5 1150.5 c 128,-1,6
 551 1153 551 1153 568 1153 c 0,7,8
 647 1153 647 1153 696 1116 c 128,-1,9
 745 1079 745 1079 772 1000 c 128,-1,10
 799 921 799 921 808.5 796.5 c 128,-1,11
 818 672 818 672 818 498 c 0,12,13
 818 447 818 447 815 389 c 128,-1,14
 812 331 812 331 803.5 274 c 128,-1,15
 795 217 795 217 778.5 165 c 128,-1,16
 762 113 762 113 734.5 73 c 128,-1,17
 707 33 707 33 668 9.5 c 128,-1,18
 629 -14 629 -14 574 -14 c 0,19,20
 542 -14 542 -14 509.5 -3.5 c 128,-1,21
 477 7 477 7 446.5 24 c 128,-1,22
 416 41 416 41 388.5 63.5 c 128,-1,23
 361 86 361 86 339 109 c 1,24,-1
 339 -340 l 1,25,-1
 120 -340 l 1,26,-1
 120 1518 l 1,0,-1
339 223 m 1,27,28
 440 164 440 164 494 164 c 0,29,30
 528 164 528 164 548 190 c 128,-1,31
 568 216 568 216 578 272.5 c 128,-1,32
 588 329 588 329 590.5 418 c 128,-1,33
 593 507 593 507 593 633 c 0,34,35
 593 707 593 707 592.5 770.5 c 128,-1,36
 592 834 592 834 583 880.5 c 128,-1,37
 574 927 574 927 552 953 c 128,-1,38
 530 979 530 979 488 979 c 256,39,40
 446 979 446 979 410 961 c 128,-1,41
 374 943 374 943 339 922 c 1,42,-1
 339 223 l 1,27,28
EndSplineSet
EndChar

StartChar: dotlessi
Encoding: 305 305 222
Width: 441
GlyphClass: 2
Flags: W
LayerCount: 2
Fore
SplineSet
105 1135 m 1,0,-1
 326 1135 l 1,1,-1
 326 0 l 1,2,-1
 105 0 l 1,3,-1
 105 1135 l 1,0,-1
EndSplineSet
EndChar

StartChar: jcircumflex
Encoding: 309 309 224
Width: 595
GlyphClass: 2
Flags: W
LayerCount: 2
Fore
SplineSet
-23 -121 m 1,0,1
 -9 -124 -9 -124 10 -126 c 128,-1,2
 29 -128 29 -128 41 -128 c 0,3,4
 89 -128 89 -128 115 -109.5 c 128,-1,5
 141 -91 141 -91 153 -66.5 c 128,-1,6
 165 -42 165 -42 167 -17 c 128,-1,7
 169 8 169 8 169 21 c 2,8,-1
 169 1280 l 1,9,-1
 425 1280 l 1,10,-1
 425 -7 l 2,11,12
 425 -84 425 -84 401 -142.5 c 128,-1,13
 377 -201 377 -201 334 -240.5 c 128,-1,14
 291 -280 291 -280 232.5 -300 c 128,-1,15
 174 -320 174 -320 105 -320 c 0,16,17
 92 -320 92 -320 75.5 -319 c 128,-1,18
 59 -318 59 -318 41.5 -316 c 128,-1,19
 24 -314 24 -314 7.5 -311 c 128,-1,20
 -9 -308 -9 -308 -23 -303 c 1,21,-1
 -23 -121 l 1,0,1
297 1728 m 1,22,-1
 169 1472 l 1,23,-1
 -23 1472 l 1,24,-1
 169 1856 l 1,25,-1
 425 1856 l 1,26,-1
 617 1472 l 1,27,-1
 425 1472 l 1,28,-1
 297 1728 l 1,22,-1
EndSplineSet
EndChar

StartChar: OE
Encoding: 338 338 237
Width: 1612
GlyphClass: 2
Flags: W
LayerCount: 2
Fore
SplineSet
1439 832 m 1,0,-1
 1119 832 l 1,1,-1
 1119 192 l 1,2,-1
 1567 192 l 1,3,-1
 1567 0 l 1,4,-1
 863 0 l 1,5,-1
 863 128 l 1,6,7
 842 87 842 87 807 55 c 0,8,9
 777 27 777 27 728 4.5 c 128,-1,10
 679 -18 679 -18 607 -18 c 0,11,12
 507 -18 507 -18 430 4 c 128,-1,13
 353 26 353 26 296.5 65 c 128,-1,14
 240 104 240 104 201 159 c 128,-1,15
 162 214 162 214 138.5 280 c 128,-1,16
 115 346 115 346 105 421 c 128,-1,17
 95 496 95 496 95 576 c 2,18,-1
 95 1216 l 2,19,20
 95 1296 95 1296 105 1371 c 128,-1,21
 115 1446 115 1446 138.5 1512 c 128,-1,22
 162 1578 162 1578 201 1633 c 128,-1,23
 240 1688 240 1688 296.5 1727 c 128,-1,24
 353 1766 353 1766 430 1788 c 128,-1,25
 507 1810 507 1810 607 1810 c 0,26,27
 679 1810 679 1810 728 1787 c 128,-1,28
 777 1764 777 1764 807 1737 c 0,29,30
 842 1704 842 1704 863 1664 c 1,31,-1
 863 1792 l 1,32,-1
 1567 1792 l 1,33,-1
 1567 1600 l 1,34,-1
 1119 1600 l 1,35,-1
 1119 1024 l 1,36,-1
 1439 1024 l 1,37,-1
 1439 832 l 1,0,-1
351 512 m 2,38,39
 351 440 351 440 364 381 c 128,-1,40
 377 322 377 322 407 280 c 128,-1,41
 437 238 437 238 486 215 c 128,-1,42
 535 192 535 192 607 192 c 256,43,44
 679 192 679 192 728 215 c 128,-1,45
 777 238 777 238 807 280 c 128,-1,46
 837 322 837 322 850 381 c 128,-1,47
 863 440 863 440 863 512 c 2,48,-1
 863 1294 l 1,49,50
 862 1363 862 1363 848 1419.5 c 128,-1,51
 834 1476 834 1476 804 1516 c 128,-1,52
 774 1556 774 1556 725.5 1578 c 128,-1,53
 677 1600 677 1600 607 1600 c 0,54,55
 535 1600 535 1600 486 1577 c 128,-1,56
 437 1554 437 1554 407 1512 c 128,-1,57
 377 1470 377 1470 364 1411 c 128,-1,58
 351 1352 351 1352 351 1280 c 2,59,-1
 351 512 l 2,38,39
EndSplineSet
EndChar

StartChar: oe
Encoding: 339 339 238
Width: 1454
GlyphClass: 2
Flags: W
LayerCount: 2
Fore
SplineSet
81 832 m 2,0,1
 81 864 81 864 83 911 c 128,-1,2
 85 958 85 958 95.5 1009.5 c 128,-1,3
 106 1061 106 1061 129 1113 c 128,-1,4
 152 1165 152 1165 194.5 1206 c 128,-1,5
 237 1247 237 1247 303 1272.5 c 128,-1,6
 369 1298 369 1298 465 1298 c 0,7,8
 537 1298 537 1298 586 1275 c 128,-1,9
 635 1252 635 1252 665 1225 c 0,10,11
 700 1192 700 1192 721 1152 c 1,12,13
 742 1192 742 1192 777 1225 c 0,14,15
 807 1252 807 1252 856 1275 c 128,-1,16
 905 1298 905 1298 978 1298 c 0,17,18
 1074 1298 1074 1298 1145.5 1267.5 c 128,-1,19
 1217 1237 1217 1237 1265 1164.5 c 128,-1,20
 1313 1092 1313 1092 1337 971.5 c 128,-1,21
 1361 851 1361 851 1361 670 c 2,22,-1
 1361 640 l 1,23,-1
 849 640 l 1,24,-1
 849 576 l 2,25,26
 849 504 849 504 851 435 c 128,-1,27
 853 366 853 366 865 312 c 128,-1,28
 877 258 877 258 903 225 c 128,-1,29
 929 192 929 192 977 192 c 0,30,31
 1026 192 1026 192 1052 214 c 128,-1,32
 1078 236 1078 236 1090 272 c 128,-1,33
 1102 308 1102 308 1103.5 354 c 128,-1,34
 1105 400 1105 400 1105 448 c 1,35,-1
 1361 448 l 1,36,37
 1361 208 1361 208 1265.5 95 c 128,-1,38
 1170 -18 1170 -18 977 -18 c 0,39,40
 905 -18 905 -18 856 4.5 c 128,-1,41
 807 27 807 27 777 55 c 0,42,43
 742 87 742 87 721 128 c 1,44,45
 700 87 700 87 665 55 c 0,46,47
 635 27 635 27 586 4.5 c 128,-1,48
 537 -18 537 -18 465 -18 c 0,49,50
 369 -18 369 -18 303 7.5 c 128,-1,51
 237 33 237 33 194.5 74 c 128,-1,52
 152 115 152 115 129 167 c 128,-1,53
 106 219 106 219 95.5 270.5 c 128,-1,54
 85 322 85 322 83 369 c 128,-1,55
 81 416 81 416 81 448 c 2,56,-1
 81 832 l 2,0,1
337 448 m 2,57,58
 337 400 337 400 339 354 c 128,-1,59
 341 308 341 308 353 272 c 128,-1,60
 365 236 365 236 391 214 c 128,-1,61
 417 192 417 192 465 192 c 256,62,63
 513 192 513 192 539 214 c 128,-1,64
 565 236 565 236 577 272 c 128,-1,65
 589 308 589 308 591 354 c 128,-1,66
 593 400 593 400 593 448 c 2,67,-1
 593 832 l 2,68,69
 593 880 593 880 591 926 c 128,-1,70
 589 972 589 972 577 1008 c 128,-1,71
 565 1044 565 1044 539 1066 c 128,-1,72
 513 1088 513 1088 465 1088 c 256,73,74
 417 1088 417 1088 391 1066 c 128,-1,75
 365 1044 365 1044 353 1008 c 128,-1,76
 341 972 341 972 339 926 c 128,-1,77
 337 880 337 880 337 832 c 2,78,-1
 337 448 l 2,57,58
978 1088 m 0,79,80
 930 1088 930 1088 904 1056 c 128,-1,81
 878 1024 878 1024 865.5 976 c 128,-1,82
 853 928 853 928 851 872 c 128,-1,83
 849 816 849 816 849 768 c 1,84,-1
 1105 768 l 1,85,86
 1105 816 1105 816 1103.5 872 c 128,-1,87
 1102 928 1102 928 1090.5 976 c 128,-1,88
 1079 1024 1079 1024 1053 1056 c 128,-1,89
 1027 1088 1027 1088 978 1088 c 0,79,80
EndSplineSet
EndChar

StartChar: florin
Encoding: 402 402 268
Width: 610
GlyphClass: 2
Flags: W
LayerCount: 2
Fore
SplineSet
15 1280 m 1,0,-1
 143 1280 l 1,1,-1
 143 1344 l 2,2,3
 143 1392 143 1392 144.5 1439 c 128,-1,4
 146 1486 146 1486 154 1529 c 128,-1,5
 162 1572 162 1572 179.5 1608 c 128,-1,6
 197 1644 197 1644 229 1671 c 128,-1,7
 261 1698 261 1698 310.5 1713 c 128,-1,8
 360 1728 360 1728 433 1728 c 0,9,10
 469 1728 469 1728 503 1725.5 c 128,-1,11
 537 1723 537 1723 591 1716 c 1,12,-1
 591 1526 l 1,13,14
 573 1528 573 1528 556 1531 c 0,15,16
 542 1533 542 1533 527.5 1534.5 c 128,-1,17
 513 1536 513 1536 505 1536 c 0,18,19
 469 1536 469 1536 447.5 1523 c 128,-1,20
 426 1510 426 1510 415.5 1488 c 128,-1,21
 405 1466 405 1466 402 1437 c 128,-1,22
 399 1408 399 1408 399 1376 c 2,23,-1
 399 1280 l 1,24,-1
 527 1280 l 1,25,-1
 527 1088 l 1,26,-1
 399 1088 l 1,27,-1
 399 128 l 2,28,29
 399 80 399 80 397.5 33 c 128,-1,30
 396 -14 396 -14 388 -57 c 128,-1,31
 380 -100 380 -100 362.5 -136 c 128,-1,32
 345 -172 345 -172 313 -199 c 128,-1,33
 281 -226 281 -226 231 -241 c 128,-1,34
 181 -256 181 -256 109 -256 c 0,35,36
 73 -256 73 -256 39 -253.5 c 128,-1,37
 5 -251 5 -251 -49 -244 c 1,38,-1
 -49 -54 l 1,39,40
 -31 -57 -31 -57 -14 -59 c 0,41,42
 0 -61 0 -61 14.5 -62.5 c 128,-1,43
 29 -64 29 -64 37 -64 c 0,44,45
 73 -64 73 -64 94.5 -51 c 128,-1,46
 116 -38 116 -38 126.5 -16 c 128,-1,47
 137 6 137 6 140 35 c 128,-1,48
 143 64 143 64 143 96 c 2,49,-1
 143 1088 l 1,50,-1
 15 1088 l 1,51,-1
 15 1280 l 1,0,-1
EndSplineSet
EndChar

StartChar: dotlessj
Encoding: 567 567 269
Width: 477
GlyphClass: 2
Flags: W
LayerCount: 2
Fore
SplineSet
-92 -121 m 1,0,1
 -78 -124 -78 -124 -59 -126 c 128,-1,2
 -40 -128 -40 -128 -28 -128 c 0,3,4
 20 -128 20 -128 46 -109.5 c 128,-1,5
 72 -91 72 -91 84 -66.5 c 128,-1,6
 96 -42 96 -42 98 -17 c 128,-1,7
 100 8 100 8 100 21 c 2,8,-1
 100 1280 l 1,9,-1
 356 1280 l 1,10,-1
 356 -7 l 2,11,12
 356 -84 356 -84 332 -142.5 c 128,-1,13
 308 -201 308 -201 265 -240.5 c 128,-1,14
 222 -280 222 -280 163.5 -300 c 128,-1,15
 105 -320 105 -320 36 -320 c 0,16,17
 23 -320 23 -320 6.5 -319 c 128,-1,18
 -10 -318 -10 -318 -27.5 -316 c 128,-1,19
 -45 -314 -45 -314 -61.5 -311 c 128,-1,20
 -78 -308 -78 -308 -92 -303 c 1,21,-1
 -92 -121 l 1,0,1
EndSplineSet
EndChar

StartChar: circumflex
Encoding: 710 710 270
Width: 745
GlyphClass: 2
Flags: W
LayerCount: 2
Fore
SplineSet
370 1664 m 1,0,-1
 242 1408 l 1,1,-1
 50 1408 l 1,2,-1
 242 1792 l 1,3,-1
 498 1792 l 1,4,-1
 690 1408 l 1,5,-1
 498 1408 l 1,6,-1
 370 1664 l 1,0,-1
EndSplineSet
EndChar

StartChar: caron
Encoding: 711 711 271
Width: 687
GlyphClass: 2
Flags: W
LayerCount: 2
Fore
SplineSet
478 1792 m 1,0,-1
 670 1792 l 1,1,-1
 478 1408 l 1,2,-1
 222 1408 l 1,3,-1
 30 1792 l 1,4,-1
 222 1792 l 1,5,-1
 350 1536 l 1,6,-1
 478 1792 l 1,0,-1
EndSplineSet
EndChar

StartChar: breve
Encoding: 728 728 272
Width: 742
GlyphClass: 2
Flags: W
LayerCount: 2
Fore
SplineSet
376 1408 m 256,0,1
 344 1408 344 1408 308 1410 c 128,-1,2
 272 1412 272 1412 236.5 1422.5 c 128,-1,3
 201 1433 201 1433 168 1456 c 128,-1,4
 135 1479 135 1479 110.5 1521.5 c 128,-1,5
 86 1564 86 1564 71 1630 c 128,-1,6
 56 1696 56 1696 56 1792 c 1,7,-1
 248 1792 l 1,8,9
 248 1720 248 1720 259 1681 c 128,-1,10
 270 1642 270 1642 288 1624 c 128,-1,11
 306 1606 306 1606 329 1603 c 128,-1,12
 352 1600 352 1600 376 1600 c 256,13,14
 400 1600 400 1600 423 1603 c 128,-1,15
 446 1606 446 1606 464 1624 c 128,-1,16
 482 1642 482 1642 493 1681 c 128,-1,17
 504 1720 504 1720 504 1792 c 1,18,-1
 696 1792 l 1,19,20
 696 1696 696 1696 681 1630 c 128,-1,21
 666 1564 666 1564 641.5 1521.5 c 128,-1,22
 617 1479 617 1479 584 1456 c 128,-1,23
 551 1433 551 1433 515.5 1422.5 c 128,-1,24
 480 1412 480 1412 444 1410 c 128,-1,25
 408 1408 408 1408 376 1408 c 256,0,1
EndSplineSet
EndChar

StartChar: dotaccent
Encoding: 729 729 273
Width: 430
GlyphClass: 2
Flags: W
LayerCount: 2
Fore
SplineSet
97 1792 m 1,0,-1
 353 1792 l 1,1,-1
 353 1536 l 1,2,-1
 97 1536 l 1,3,-1
 97 1792 l 1,0,-1
EndSplineSet
EndChar

StartChar: ring
Encoding: 730 730 274
Width: 622
GlyphClass: 2
Flags: W
LayerCount: 2
Fore
SplineSet
315 1792 m 256,0,1
 281 1792 281 1792 256.5 1781 c 128,-1,2
 232 1770 232 1770 216.5 1752 c 128,-1,3
 201 1734 201 1734 194 1711 c 128,-1,4
 187 1688 187 1688 187 1664 c 256,5,6
 187 1640 187 1640 194 1617 c 128,-1,7
 201 1594 201 1594 216 1576 c 128,-1,8
 231 1558 231 1558 255.5 1547 c 128,-1,9
 280 1536 280 1536 315 1536 c 0,10,11
 349 1536 349 1536 373.5 1547 c 128,-1,12
 398 1558 398 1558 413.5 1576 c 128,-1,13
 429 1594 429 1594 436 1617 c 128,-1,14
 443 1640 443 1640 443 1664 c 256,15,16
 443 1688 443 1688 436 1711 c 128,-1,17
 429 1734 429 1734 413.5 1752 c 128,-1,18
 398 1770 398 1770 373.5 1781 c 128,-1,19
 349 1792 349 1792 315 1792 c 256,0,1
315 1920 m 256,20,21
 380 1920 380 1920 428.5 1898 c 128,-1,22
 477 1876 477 1876 508.5 1840 c 128,-1,23
 540 1804 540 1804 555.5 1758 c 128,-1,24
 571 1712 571 1712 571 1664 c 256,25,26
 571 1616 571 1616 555.5 1570 c 128,-1,27
 540 1524 540 1524 508.5 1488 c 128,-1,28
 477 1452 477 1452 428.5 1430 c 128,-1,29
 380 1408 380 1408 315 1408 c 256,30,31
 250 1408 250 1408 201.5 1430 c 128,-1,32
 153 1452 153 1452 121.5 1488 c 128,-1,33
 90 1524 90 1524 74.5 1570 c 128,-1,34
 59 1616 59 1616 59 1664 c 256,35,36
 59 1712 59 1712 74.5 1758 c 128,-1,37
 90 1804 90 1804 121.5 1840 c 128,-1,38
 153 1876 153 1876 201.5 1898 c 128,-1,39
 250 1920 250 1920 315 1920 c 256,20,21
EndSplineSet
EndChar

StartChar: tilde
Encoding: 732 732 276
Width: 837
GlyphClass: 2
Flags: W
LayerCount: 2
Fore
SplineSet
295.5 1745 m 0,0,1
 334.5 1745 334.5 1745 374 1731.5 c 128,-1,2
 413.5 1718 413.5 1718 450.5 1702 c 128,-1,3
 487.5 1686 487.5 1686 520 1672.5 c 128,-1,4
 552.5 1659 552.5 1659 576.5 1659 c 0,5,6
 599.5 1659 599.5 1659 613.5 1674.5 c 128,-1,7
 627.5 1690 627.5 1690 627.5 1728 c 1,8,-1
 780.5 1728 l 1,9,10
 781.5 1723 781.5 1723 780.5 1700.5 c 128,-1,11
 779.5 1678 779.5 1678 773.5 1647 c 128,-1,12
 767.5 1616 767.5 1616 754.5 1582 c 128,-1,13
 741.5 1548 741.5 1548 717 1519 c 128,-1,14
 692.5 1490 692.5 1490 654.5 1471 c 128,-1,15
 616.5 1452 616.5 1452 561.5 1452 c 0,16,17
 519.5 1452 519.5 1452 478.5 1465.5 c 128,-1,18
 437.5 1479 437.5 1479 401 1495.5 c 128,-1,19
 364.5 1512 364.5 1512 333 1525.5 c 128,-1,20
 301.5 1539 301.5 1539 277.5 1539 c 0,21,22
 254.5 1539 254.5 1539 242 1524.5 c 128,-1,23
 229.5 1510 229.5 1510 229.5 1472 c 1,24,-1
 76.5 1472 l 1,25,26
 75.5 1478 75.5 1478 76.5 1500.5 c 128,-1,27
 77.5 1523 77.5 1523 83.5 1553 c 128,-1,28
 89.5 1583 89.5 1583 102.5 1617 c 128,-1,29
 115.5 1651 115.5 1651 140 1679.5 c 128,-1,30
 164.5 1708 164.5 1708 202.5 1726.5 c 128,-1,31
 240.5 1745 240.5 1745 295.5 1745 c 0,0,1
EndSplineSet
EndChar

StartChar: hungarumlaut
Encoding: 733 733 277
Width: 827
GlyphClass: 2
Flags: W
LayerCount: 2
Fore
SplineSet
186 1408 m 1,0,-1
 58 1408 l 1,1,-1
 186 1792 l 1,2,-1
 442 1792 l 1,3,-1
 186 1408 l 1,0,-1
570 1408 m 1,4,-1
 442 1408 l 1,5,-1
 570 1792 l 1,6,-1
 826 1792 l 1,7,-1
 570 1408 l 1,4,-1
EndSplineSet
EndChar

StartChar: quoteleft
Encoding: 8216 8216 278
Width: 430
GlyphClass: 2
Flags: W
LayerCount: 2
Fore
SplineSet
338 1280 m 1,0,-1
 82 1280 l 1,1,2
 82 1424 82 1424 85 1522 c 128,-1,3
 88 1620 88 1620 106 1680 c 128,-1,4
 124 1740 124 1740 163 1766 c 128,-1,5
 202 1792 202 1792 274 1792 c 1,6,-1
 338 1664 l 1,7,8
 290 1664 290 1664 264 1650.5 c 128,-1,9
 238 1637 238 1637 226 1617 c 128,-1,10
 214 1597 214 1597 212 1575 c 128,-1,11
 210 1553 210 1553 210 1536 c 1,12,-1
 338 1536 l 1,13,-1
 338 1280 l 1,0,-1
EndSplineSet
EndChar

StartChar: quoteright
Encoding: 8217 8217 279
Width: 415
GlyphClass: 2
Flags: W
LayerCount: 2
Fore
SplineSet
78 1792 m 1,0,-1
 334 1792 l 1,1,2
 334 1648 334 1648 331 1550 c 128,-1,3
 328 1452 328 1452 310 1392 c 128,-1,4
 292 1332 292 1332 253 1306 c 128,-1,5
 214 1280 214 1280 142 1280 c 1,6,-1
 78 1408 l 1,7,8
 126 1408 126 1408 152 1421.5 c 128,-1,9
 178 1435 178 1435 190 1455 c 128,-1,10
 202 1475 202 1475 204 1497 c 128,-1,11
 206 1519 206 1519 206 1536 c 1,12,-1
 78 1536 l 1,13,-1
 78 1792 l 1,0,-1
EndSplineSet
EndChar

StartChar: quotesinglbase
Encoding: 8218 8218 280
Width: 379
GlyphClass: 2
Flags: W
LayerCount: 2
Fore
SplineSet
67 63 m 1,0,-1
 323 63 l 1,1,-1
 259 -321 l 1,2,-1
 131 -321 l 1,3,-1
 67 63 l 1,0,-1
EndSplineSet
EndChar

StartChar: quotedblleft
Encoding: 8220 8220 281
Width: 814
GlyphClass: 2
Flags: W
LayerCount: 2
Fore
SplineSet
338 1280 m 1,0,-1
 82 1280 l 1,1,2
 82 1424 82 1424 85 1522 c 128,-1,3
 88 1620 88 1620 106 1680 c 128,-1,4
 124 1740 124 1740 163 1766 c 128,-1,5
 202 1792 202 1792 274 1792 c 1,6,-1
 338 1664 l 1,7,8
 290 1664 290 1664 264 1650.5 c 128,-1,9
 238 1637 238 1637 226 1617 c 128,-1,10
 214 1597 214 1597 212 1575 c 128,-1,11
 210 1553 210 1553 210 1536 c 1,12,-1
 338 1536 l 1,13,-1
 338 1280 l 1,0,-1
722 1280 m 1,14,-1
 466 1280 l 1,15,16
 466 1424 466 1424 469 1522 c 128,-1,17
 472 1620 472 1620 490 1680 c 128,-1,18
 508 1740 508 1740 547 1766 c 128,-1,19
 586 1792 586 1792 658 1792 c 1,20,-1
 722 1664 l 1,21,22
 674 1664 674 1664 648 1650.5 c 128,-1,23
 622 1637 622 1637 610 1617 c 128,-1,24
 598 1597 598 1597 596 1575 c 128,-1,25
 594 1553 594 1553 594 1536 c 1,26,-1
 722 1536 l 1,27,-1
 722 1280 l 1,14,-1
EndSplineSet
EndChar

StartChar: quotedblright
Encoding: 8221 8221 282
Width: 799
GlyphClass: 2
Flags: W
LayerCount: 2
Fore
SplineSet
78 1792 m 1,0,-1
 334 1792 l 1,1,2
 334 1648 334 1648 331 1550 c 128,-1,3
 328 1452 328 1452 310 1392 c 128,-1,4
 292 1332 292 1332 253 1306 c 128,-1,5
 214 1280 214 1280 142 1280 c 1,6,-1
 78 1408 l 1,7,8
 126 1408 126 1408 152 1421.5 c 128,-1,9
 178 1435 178 1435 190 1455 c 128,-1,10
 202 1475 202 1475 204 1497 c 128,-1,11
 206 1519 206 1519 206 1536 c 1,12,-1
 78 1536 l 1,13,-1
 78 1792 l 1,0,-1
462 1792 m 1,14,-1
 718 1792 l 1,15,16
 718 1648 718 1648 715 1550 c 128,-1,17
 712 1452 712 1452 694 1392 c 128,-1,18
 676 1332 676 1332 637 1306 c 128,-1,19
 598 1280 598 1280 526 1280 c 1,20,-1
 462 1408 l 1,21,22
 510 1408 510 1408 536 1421.5 c 128,-1,23
 562 1435 562 1435 574 1455 c 128,-1,24
 586 1475 586 1475 588 1497 c 128,-1,25
 590 1519 590 1519 590 1536 c 1,26,-1
 462 1536 l 1,27,-1
 462 1792 l 1,14,-1
EndSplineSet
EndChar

StartChar: quotedblbase
Encoding: 8222 8222 283
Width: 702
GlyphClass: 2
Flags: W
LayerCount: 2
Fore
SplineSet
67 64 m 1,0,-1
 323 64 l 1,1,-1
 259 -320 l 1,2,-1
 131 -320 l 1,3,-1
 67 64 l 1,0,-1
390 64 m 1,4,-1
 646 64 l 1,5,-1
 582 -320 l 1,6,-1
 454 -320 l 1,7,-1
 390 64 l 1,4,-1
EndSplineSet
EndChar

StartChar: daggerdbl
Encoding: 8225 8225 284
Width: 742
GlyphClass: 2
Flags: W
LayerCount: 2
Fore
SplineSet
500 448 m 1,0,-1
 500 0 l 1,1,-1
 244 0 l 1,2,-1
 244 448 l 1,3,-1
 52 448 l 1,4,-1
 52 704 l 1,5,-1
 244 704 l 1,6,-1
 244 1024 l 1,7,-1
 52 1024 l 1,8,-1
 52 1280 l 1,9,-1
 244 1280 l 1,10,-1
 244 1536 l 1,11,-1
 500 1536 l 1,12,-1
 500 1280 l 1,13,-1
 692 1280 l 1,14,-1
 692 1024 l 1,15,-1
 500 1024 l 1,16,-1
 500 704 l 1,17,-1
 692 704 l 1,18,-1
 692 448 l 1,19,-1
 500 448 l 1,0,-1
EndSplineSet
EndChar

StartChar: perthousand
Encoding: 8240 8240 285
Width: 2699
GlyphClass: 2
Flags: W
LayerCount: 2
Fore
SplineSet
20 1032 m 0,0,1
 20 1143 20 1143 40 1222 c 128,-1,2
 60 1301 60 1301 92 1355 c 128,-1,3
 124 1409 124 1409 164.5 1441 c 128,-1,4
 205 1473 205 1473 245.5 1489.5 c 128,-1,5
 286 1506 286 1506 323 1511 c 128,-1,6
 360 1516 360 1516 386 1516 c 256,7,8
 412 1516 412 1516 449 1511 c 128,-1,9
 486 1506 486 1506 527 1489.5 c 128,-1,10
 568 1473 568 1473 608.5 1441 c 128,-1,11
 649 1409 649 1409 681 1355 c 128,-1,12
 713 1301 713 1301 733 1222 c 128,-1,13
 753 1143 753 1143 753 1032 c 0,14,15
 753 899 753 899 722 806 c 128,-1,16
 691 713 691 713 639.5 654 c 128,-1,17
 588 595 588 595 522 568 c 128,-1,18
 456 541 456 541 386 541 c 256,19,20
 316 541 316 541 250 568 c 128,-1,21
 184 595 184 595 133 654 c 128,-1,22
 82 713 82 713 51 806 c 128,-1,23
 20 899 20 899 20 1032 c 0,0,1
253 1032 m 0,24,25
 253 1005 253 1005 255 973 c 128,-1,26
 257 941 257 941 262.5 908 c 128,-1,27
 268 875 268 875 277.5 844 c 128,-1,28
 287 813 287 813 302 788.5 c 128,-1,29
 317 764 317 764 337.5 749.5 c 128,-1,30
 358 735 358 735 386 735 c 0,31,32
 428 735 428 735 454.5 766 c 128,-1,33
 481 797 481 797 495.5 843 c 128,-1,34
 510 889 510 889 515 940 c 128,-1,35
 520 991 520 991 520 1032 c 0,36,37
 520 1072 520 1072 516 1122 c 128,-1,38
 512 1172 512 1172 498 1216.5 c 128,-1,39
 484 1261 484 1261 457.5 1291 c 128,-1,40
 431 1321 431 1321 386 1321 c 0,41,42
 342 1321 342 1321 315.5 1291 c 128,-1,43
 289 1261 289 1261 275 1216.5 c 128,-1,44
 261 1172 261 1172 257 1122 c 128,-1,45
 253 1072 253 1072 253 1032 c 0,24,25
1965 492 m 0,46,47
 1965 603 1965 603 1985 682 c 128,-1,48
 2005 761 2005 761 2037.5 814.5 c 128,-1,49
 2070 868 2070 868 2110.5 900 c 128,-1,50
 2151 932 2151 932 2191.5 948.5 c 128,-1,51
 2232 965 2232 965 2269 970 c 128,-1,52
 2306 975 2306 975 2332 975 c 0,53,54
 2357 975 2357 975 2394.5 970 c 128,-1,55
 2432 965 2432 965 2472.5 948.5 c 128,-1,56
 2513 932 2513 932 2553.5 900 c 128,-1,57
 2594 868 2594 868 2626.5 814.5 c 128,-1,58
 2659 761 2659 761 2679 682 c 128,-1,59
 2699 603 2699 603 2699 492 c 0,60,61
 2699 359 2699 359 2668 265.5 c 128,-1,62
 2637 172 2637 172 2585.5 113 c 128,-1,63
 2534 54 2534 54 2468 27 c 128,-1,64
 2402 0 2402 0 2332 0 c 256,65,66
 2262 0 2262 0 2196 27 c 128,-1,67
 2130 54 2130 54 2078.5 113 c 128,-1,68
 2027 172 2027 172 1996 265.5 c 128,-1,69
 1965 359 1965 359 1965 492 c 0,46,47
2199 492 m 256,70,71
 2199 452 2199 452 2204 400.5 c 128,-1,72
 2209 349 2209 349 2223 303.5 c 128,-1,73
 2237 258 2237 258 2263.5 226.5 c 128,-1,74
 2290 195 2290 195 2332 195 c 256,75,76
 2374 195 2374 195 2400.5 226 c 128,-1,77
 2427 257 2427 257 2441 302.5 c 128,-1,78
 2455 348 2455 348 2460 399.5 c 128,-1,79
 2465 451 2465 451 2465 492 c 0,80,81
 2465 532 2465 532 2461 582 c 128,-1,82
 2457 632 2457 632 2443 676 c 128,-1,83
 2429 720 2429 720 2403 750 c 128,-1,84
 2377 780 2377 780 2332 780 c 256,85,86
 2287 780 2287 780 2261 750 c 128,-1,87
 2235 720 2235 720 2221 676 c 128,-1,88
 2207 632 2207 632 2203 582 c 128,-1,89
 2199 532 2199 532 2199 492 c 256,70,71
1130 492 m 0,90,91
 1130 603 1130 603 1150 682 c 128,-1,92
 1170 761 1170 761 1202 814.5 c 128,-1,93
 1234 868 1234 868 1274.5 900 c 128,-1,94
 1315 932 1315 932 1355.5 948.5 c 128,-1,95
 1396 965 1396 965 1433 970 c 128,-1,96
 1470 975 1470 975 1496 975 c 256,97,98
 1522 975 1522 975 1559 970 c 128,-1,99
 1596 965 1596 965 1637 948.5 c 128,-1,100
 1678 932 1678 932 1718.5 900 c 128,-1,101
 1759 868 1759 868 1791 814.5 c 128,-1,102
 1823 761 1823 761 1843 682 c 128,-1,103
 1863 603 1863 603 1863 492 c 0,104,105
 1863 359 1863 359 1832 265.5 c 128,-1,106
 1801 172 1801 172 1749.5 113 c 128,-1,107
 1698 54 1698 54 1632 27 c 128,-1,108
 1566 0 1566 0 1496 0 c 256,109,110
 1426 0 1426 0 1360 27 c 128,-1,111
 1294 54 1294 54 1243 113 c 128,-1,112
 1192 172 1192 172 1161 265.5 c 128,-1,113
 1130 359 1130 359 1130 492 c 0,90,91
1363 492 m 0,114,115
 1363 452 1363 452 1368 400.5 c 128,-1,116
 1373 349 1373 349 1387.5 303.5 c 128,-1,117
 1402 258 1402 258 1428 226.5 c 128,-1,118
 1454 195 1454 195 1496 195 c 256,119,120
 1538 195 1538 195 1564.5 226 c 128,-1,121
 1591 257 1591 257 1605.5 302.5 c 128,-1,122
 1620 348 1620 348 1625 399.5 c 128,-1,123
 1630 451 1630 451 1630 492 c 0,124,125
 1630 532 1630 532 1626 582 c 128,-1,126
 1622 632 1622 632 1608 676 c 128,-1,127
 1594 720 1594 720 1567.5 750 c 128,-1,128
 1541 780 1541 780 1496 780 c 0,129,130
 1466 780 1466 780 1445 766 c 128,-1,131
 1424 752 1424 752 1409 729 c 128,-1,132
 1394 706 1394 706 1385 676 c 128,-1,133
 1376 646 1376 646 1371 614 c 128,-1,134
 1366 582 1366 582 1364.5 550.5 c 128,-1,135
 1363 519 1363 519 1363 492 c 0,114,115
976 1518 m 1,136,-1
 1195 1518 l 1,137,-1
 913 0 l 1,138,-1
 693 0 l 1,139,-1
 976 1518 l 1,136,-1
EndSplineSet
EndChar

StartChar: fraction
Encoding: 8260 8260 286
Width: 538
GlyphClass: 2
Flags: W
LayerCount: 2
Fore
SplineSet
317 1901 m 1,0,-1
 536 1901 l 1,1,-1
 254 383 l 1,2,-1
 34 383 l 1,3,-1
 317 1901 l 1,0,-1
EndSplineSet
EndChar

StartChar: foursuperior
Encoding: 8308 8308 287
Width: 682
GlyphClass: 2
Flags: W
LayerCount: 2
Fore
SplineSet
322 832 m 1,0,-1
 2 832 l 1,1,-1
 2 960 l 1,2,-1
 342 1536 l 1,3,-1
 514 1536 l 1,4,-1
 514 960 l 1,5,-1
 642 960 l 1,6,-1
 642 832 l 1,7,-1
 514 832 l 1,8,-1
 514 576 l 1,9,-1
 322 576 l 1,10,-1
 322 832 l 1,0,-1
322 960 m 1,11,-1
 322 1216 l 1,12,-1
 194 960 l 1,13,-1
 322 960 l 1,11,-1
EndSplineSet
EndChar

StartChar: Euro
Encoding: 8364 8364 288
Width: 978
GlyphClass: 2
Flags: W
LayerCount: 2
Fore
SplineSet
32 993 m 1,0,-1
 102 993 l 1,1,2
 106 1117 106 1117 128 1217 c 128,-1,3
 150 1317 150 1317 198 1388 c 128,-1,4
 246 1459 246 1459 324 1497.5 c 128,-1,5
 402 1536 402 1536 519 1536 c 0,6,7
 642 1536 642 1536 722 1494.5 c 128,-1,8
 802 1453 802 1453 849 1382.5 c 128,-1,9
 896 1312 896 1312 915 1218 c 128,-1,10
 934 1124 934 1124 935 1018 c 1,11,-1
 685 1018 l 1,12,13
 685 1115 685 1115 667.5 1172.5 c 128,-1,14
 650 1230 650 1230 625 1260.5 c 128,-1,15
 600 1291 600 1291 572.5 1300 c 128,-1,16
 545 1309 545 1309 524 1309 c 0,17,18
 469 1309 469 1309 436 1290 c 128,-1,19
 403 1271 403 1271 385 1232 c 128,-1,20
 367 1193 367 1193 361 1133.5 c 128,-1,21
 355 1074 355 1074 354 993 c 1,22,-1
 550 993 l 1,23,-1
 550 827 l 1,24,-1
 354 827 l 1,25,-1
 354 674 l 1,26,-1
 550 674 l 1,27,-1
 550 508 l 1,28,-1
 356 508 l 1,29,30
 360 419 360 419 371.5 360.5 c 128,-1,31
 383 302 383 302 404 267.5 c 128,-1,32
 425 233 425 233 456 219 c 128,-1,33
 487 205 487 205 530 205 c 0,34,35
 540 205 540 205 556.5 206.5 c 128,-1,36
 573 208 573 208 591 217 c 128,-1,37
 609 226 609 226 627.5 246 c 128,-1,38
 646 266 646 266 660.5 303.5 c 128,-1,39
 675 341 675 341 684.5 398.5 c 128,-1,40
 694 456 694 456 694 541 c 1,41,-1
 941 541 l 1,42,43
 941 472 941 472 934.5 403.5 c 128,-1,44
 928 335 928 335 911.5 271.5 c 128,-1,45
 895 208 895 208 865.5 153.5 c 128,-1,46
 836 99 836 99 790 59 c 128,-1,47
 744 19 744 19 679 -4 c 128,-1,48
 614 -27 614 -27 526 -27 c 0,49,50
 437 -27 437 -27 371 -5.5 c 128,-1,51
 305 16 305 16 258.5 53 c 128,-1,52
 212 90 212 90 182 141.5 c 128,-1,53
 152 193 152 193 134.5 252 c 128,-1,54
 117 311 117 311 109.5 376.5 c 128,-1,55
 102 442 102 442 100 508 c 1,56,-1
 32 508 l 1,57,-1
 32 674 l 1,58,-1
 100 674 l 1,59,-1
 100 827 l 1,60,-1
 32 827 l 1,61,-1
 32 993 l 1,0,-1
EndSplineSet
EndChar

StartChar: trademark
Encoding: 8482 8482 289
Width: 1426
GlyphClass: 2
Flags: W
LayerCount: 2
Fore
SplineSet
530 1518 m 1,0,-1
 530 1364 l 1,1,-1
 366 1364 l 1,2,-1
 366 686 l 1,3,-1
 196 686 l 1,4,-1
 196 1364 l 1,5,-1
 33 1364 l 1,6,-1
 33 1518 l 1,7,-1
 530 1518 l 1,0,-1
1020 686 m 1,8,-1
 917 686 l 1,9,-1
 780 1241 l 1,10,-1
 780 686 l 1,11,-1
 622 686 l 1,12,-1
 622 1518 l 1,13,-1
 864 1518 l 1,14,-1
 968 1065 l 1,15,-1
 1075 1518 l 1,16,-1
 1317 1518 l 1,17,-1
 1317 686 l 1,18,-1
 1157 686 l 1,19,-1
 1157 1241 l 1,20,-1
 1020 686 l 1,8,-1
EndSplineSet
EndChar

StartChar: Delta
Encoding: 8710 8710 290
Width: 947
GlyphClass: 2
Flags: W
LayerCount: 2
Fore
SplineSet
633 192 m 1,0,-1
 481 896 l 1,1,-1
 330 192 l 1,2,-1
 633 192 l 1,0,-1
33 0 m 1,3,-1
 353 1280 l 1,4,-1
 611 1280 l 1,5,-1
 931 0 l 1,6,-1
 33 0 l 1,3,-1
EndSplineSet
EndChar

StartChar: product
Encoding: 8719 8719 291
Width: 1215
GlyphClass: 2
Flags: W
LayerCount: 2
Fore
SplineSet
1090 1792 m 1,0,-1
 1090 0 l 1,1,-1
 834 0 l 1,2,-1
 834 1600 l 1,3,-1
 386 1600 l 1,4,-1
 386 0 l 1,5,-1
 130 0 l 1,6,-1
 130 1792 l 1,7,-1
 1090 1792 l 1,0,-1
EndSplineSet
EndChar

StartChar: integral
Encoding: 8747 8747 292
Width: 565
GlyphClass: 2
Flags: W
LayerCount: 2
Fore
SplineSet
388 128 m 2,0,1
 388 80 388 80 386.5 33 c 128,-1,2
 385 -14 385 -14 377 -57 c 128,-1,3
 369 -100 369 -100 351.5 -136 c 128,-1,4
 334 -172 334 -172 302 -199 c 128,-1,5
 270 -226 270 -226 220 -241 c 128,-1,6
 170 -256 170 -256 98 -256 c 0,7,8
 62 -256 62 -256 28 -253.5 c 128,-1,9
 -6 -251 -6 -251 -60 -244 c 1,10,-1
 -60 -54 l 1,11,12
 -42 -57 -42 -57 -25 -59 c 0,13,14
 -11 -61 -11 -61 3.5 -62.5 c 128,-1,15
 18 -64 18 -64 26 -64 c 0,16,17
 62 -64 62 -64 83.5 -51 c 128,-1,18
 105 -38 105 -38 115.5 -16 c 128,-1,19
 126 6 126 6 129 35 c 128,-1,20
 132 64 132 64 132 96 c 2,21,-1
 132 1344 l 2,22,23
 132 1392 132 1392 133.5 1439 c 128,-1,24
 135 1486 135 1486 143 1529 c 128,-1,25
 151 1572 151 1572 168.5 1608 c 128,-1,26
 186 1644 186 1644 218 1671 c 128,-1,27
 250 1698 250 1698 299.5 1713 c 128,-1,28
 349 1728 349 1728 422 1728 c 0,29,30
 458 1728 458 1728 492 1725.5 c 128,-1,31
 526 1723 526 1723 580 1716 c 1,32,-1
 580 1526 l 1,33,34
 562 1528 562 1528 545 1531 c 0,35,36
 531 1533 531 1533 516.5 1534.5 c 128,-1,37
 502 1536 502 1536 494 1536 c 0,38,39
 458 1536 458 1536 436.5 1523 c 128,-1,40
 415 1510 415 1510 404.5 1488 c 128,-1,41
 394 1466 394 1466 391 1437 c 128,-1,42
 388 1408 388 1408 388 1376 c 2,43,-1
 388 128 l 2,0,1
EndSplineSet
EndChar

StartChar: lozenge
Encoding: 9674 9674 293
Width: 783
GlyphClass: 2
Flags: W
LayerCount: 2
Fore
SplineSet
267 1536 m 1,0,-1
 525 1536 l 1,1,-1
 777 768 l 1,2,-1
 525 0 l 1,3,-1
 267 0 l 1,4,-1
 13 767 l 1,5,-1
 267 1536 l 1,0,-1
395 256 m 1,6,-1
 521 767 l 1,7,-1
 395 1280 l 1,8,-1
 269 768 l 1,9,-1
 395 256 l 1,6,-1
EndSplineSet
EndChar

StartChar: glyph290
Encoding: 65540 -1 297
Width: 443
GlyphClass: 2
Flags: W
LayerCount: 2
Fore
SplineSet
358 10 m 1,0,1
 358 9 358 9 236 -150 c 0,2,3
 166 -242 166 -242 166 -316 c 0,4,5
 166 -344 166 -344 179 -357 c 128,-1,6
 192 -370 192 -370 227 -377 c 128,-1,7
 262 -384 262 -384 422 -384 c 1,8,-1
 422 -512 l 1,9,10
 182 -512 182 -512 102 -488 c 0,11,12
 -26 -450 -26 -450 -26 -320 c 0,13,14
 -26 -214 -26 -214 52 -129 c 1,15,16
 162 -6 162 -6 230 10 c 1,17,-1
 358 10 l 1,0,1
EndSplineSet
EndChar
